<?xml version="1.0" standalone="yes"?>
<svg xmlns="http://www.w3.org/2000/svg" width="225" height="225">
<path style="fill:#fefefe; stroke:none;" d="M0 0L0 225L225 225L225 0L0 0z"/>
<path style="fill:#afafaf; stroke:none;" d="M103 1L103 2L122 2L103 1M95 2L95 3L98 3L95 2z"/>
<path style="fill:#7c817f; stroke:none;" d="M98 2.42824C81.3776 4.8085 64.9976 10.3419 51 19.7492C-27.2488 72.3377 -6.80242 199.579 87 220.575C99.652 223.407 114.107 224.418 127 222.572C143.622 220.191 160.002 214.658 174 205.251C252.249 152.662 231.802 25.4209 138 4.42516C125.348 1.59325 110.893 0.582016 98 2.42824z"/>
<path style="fill:#afafaf; stroke:none;" d="M127 2L127 3L130 3L127 2M90.6667 3.33333L91.3333 3.66667L90.6667 3.33333M109 3L109 4C113.361 9.75616 111 21.9489 111 29L112 29C112 22.5007 114.896 6.82213 109 3M114 3L113 29L114 29C114 21.9489 111.639 9.75616 116 4L114 3M133.667 3.33333L134.333 3.66667L133.667 3.33333M85.6667 4.33333L86.3333 4.66667L85.6667 4.33333M97 4L97 5L101 5L97 4z"/>
<path style="fill:#fefefe; stroke:none;" d="M53 42L53 41C66.0268 32.8877 77.6562 25.1755 93 22C95.1889 32.3952 102.268 29.0009 111 29L111 4C90.5813 4.00223 70.1196 10.2037 53 21.3449C49.0364 23.9244 38.2068 29.5567 38.2068 35.0039C38.2068 39.234 49.6948 50.7932 53.9367 50.7932C60.1502 50.7932 54.8976 43.5957 53 42M114 4L114 29C128.069 29.0015 141.769 32.8754 154 39.8727C158.298 42.3314 166.96 51.9745 172 50.6582C176.113 49.584 187.826 38.6006 186.654 34.0147C185.453 29.3158 177.748 25.1965 174 22.6713C156.351 10.7807 135.307 4.00232 114 4z"/>
<path style="fill:#afafaf; stroke:none;" d="M124 4L124 5L128 5L124 4M138.667 4.33333L139.333 4.66667L138.667 4.33333M82 5L83 6L82 5M91 5L91 6L94 6L91 5M131 5L131 6L134 6L131 5M142.667 5.33333L143.333 5.66667L142.667 5.33333M78.6667 6.33333L79.3333 6.66667L78.6667 6.33333M87.6667 6.33333L88.3333 6.66667L87.6667 6.33333M136.667 6.33333L137.333 6.66667L136.667 6.33333M145.667 6.33333L146.333 6.66667L145.667 6.33333M75.6667 7.33333L76.3333 7.66667L75.6667 7.33333M83.6667 7.33333L84.3333 7.66667L83.6667 7.33333M140.667 7.33333L141.333 7.66667L140.667 7.33333M148.667 7.33333L149.333 7.66667L148.667 7.33333M73 8L74 9L73 8M80 8L81 9L80 8M144 8L145 9L144 8M151 8L152 9L151 8M70 9L71 10L70 9M77 9L78 10L77 9M147 9L148 10L147 9M154 9L155 10L154 9M68 10L69 11L68 10M74 10L75 11L74 10M150 10L151 11L150 10M156 10L157 11L156 10M71 11L72 12L71 11M153 11L154 12L153 11M63 12L64 13L63 12M69 12L70 13L69 12M155 12L156 13L155 12M161 12L162 13L161 12M61 13L62 14L61 13M67 13L68 14L67 13M157 13L158 14L157 13M163 13L164 14L163 13M65 14L66 15L65 14M159 14L160 15L159 14M58 15L59 16L58 15M63 15L64 16L63 15M161 15L162 16L161 15M166 15L167 16L166 15M56 16L57 17L56 16M61 16L62 17L61 16M163 16L164 17L163 16M168 16L169 17L168 16M54 17L55 18L54 17M59 17L60 18L59 17M165 17L166 18L165 17M170 17L171 18L170 17M57 18L58 19L57 18M167 18L168 19L167 18M51 19L52 20L51 19M173 19L174 20L173 19M54 20L55 21L54 20M170 20L171 21L170 20M48 21L49 22L48 21M52 21L53 22L52 21M172 21L173 22L172 21M176 21L177 22L176 21M47 22L48 23L47 22M51 22L52 23L51 22M90 22L90 24L92 22L90 22z"/>
<path style="fill:#7c817f; stroke:none;" d="M92.3333 22.6667L92.6667 23.3333L92.3333 22.6667z"/>
<path style="fill:#afafaf; stroke:none;" d="M173 22L174 23L173 22M177 22L178 23L177 22M86 23L86 25L88 23L86 23z"/>
<path style="fill:#7c817f; stroke:none;" d="M88.6667 23.3333L89.3333 23.6667L88.6667 23.3333z"/>
<path style="fill:#d8b25e; stroke:none;" d="M111 109L92 23C82.5263 25.6884 73.5825 28.9619 65 33.8727C62.2814 35.4282 57.292 37.7459 56.4614 41.0934C55.2077 46.1463 65.7438 55.3875 68.7531 59C82.1188 75.0451 94.7547 95.8912 111 109z"/>
<path style="fill:#afafaf; stroke:none;" d="M44 24L45 25L44 24M48 24L49 25L48 24M83.3333 24.6667L83.6667 25.3333L83.3333 24.6667z"/>
<path style="fill:#7c817f; stroke:none;" d="M84.6667 24.3333L85.3333 24.6667L84.6667 24.3333z"/>
<path style="fill:#afafaf; stroke:none;" d="M92 24L94 26L94 24L92 24M176 24L177 25L176 24M180 24L181 25L180 24M43 25L44 26L43 25M80.3333 25.6667L80.6667 26.3333L80.3333 25.6667z"/>
<path style="fill:#7c817f; stroke:none;" d="M81.6667 25.3333L82.3333 25.6667L81.6667 25.3333z"/>
<path style="fill:#afafaf; stroke:none;" d="M181 25L182 26L181 25M77 26L77 28L79 26L77 26z"/>
<path style="fill:#7c817f; stroke:none;" d="M79 26L80 27L79 26M93.3333 26.6667L93.6667 27.3333L93.3333 26.6667z"/>
<path style="fill:#afafaf; stroke:none;" d="M44 27L45 28L44 27M75.3333 27.6667L75.6667 28.3333L75.3333 27.6667z"/>
<path style="fill:#7c817f; stroke:none;" d="M76 27L77 28L76 27z"/>
<path style="fill:#afafaf; stroke:none;" d="M180 27L181 28L180 27M39 28L40 29L39 28M43 28L44 29L43 28M73.3333 28.6667L73.6667 29.3333L73.3333 28.6667z"/>
<path style="fill:#7c817f; stroke:none;" d="M74 28L75 29L74 28z"/>
<path style="fill:#afafaf; stroke:none;" d="M93 28L97 31L97 30L93 28M181 28L182 29L181 28M185 28L186 29L185 28M38 29L39 30L38 29M71.3333 29.6667L71.6667 30.3333L71.3333 29.6667z"/>
<path style="fill:#7c817f; stroke:none;" d="M72 29L73 30L72 29z"/>
<path style="fill:#afafaf; stroke:none;" d="M100 29L100 30L104 30L100 29M121 29L121 30L125 30L121 29M186 29L187 30L186 29M37 30L38 31L37 30M69.3333 30.6667L69.6667 31.3333L69.3333 30.6667z"/>
<path style="fill:#7c817f; stroke:none;" d="M70 30L71 31L70 30z"/>
<path style="fill:#afafaf; stroke:none;" d="M128.667 30.3333L129.333 30.6667L128.667 30.3333M187 30L188 31L187 30M36 31L37 32L36 31M67.3333 31.6667L67.6667 32.3333L67.3333 31.6667z"/>
<path style="fill:#7c817f; stroke:none;" d="M68 31L69 32L68 31z"/>
<path style="fill:#afafaf; stroke:none;" d="M103 31L103 32L108 32L103 31z"/>
<path style="fill:#fefefe; stroke:none;" d="M96 33C96.9669 45.1493 97.348 57.076 111 56L111 31L96 33z"/>
<path style="fill:#afafaf; stroke:none;" d="M111 31L111 56L112 56L111 31M113 31C113 38.3751 109.238 56.2394 119 57L119 56L114 56L113 31z"/>
<path style="fill:#fefefe; stroke:none;" d="M114 31L114 56L132 59L136 48L156 58L148 68L148 69L151 72L152 72L169 55C156.68 37.8726 133.449 33.458 114 31z"/>
<path style="fill:#afafaf; stroke:none;" d="M117 31L117 32L122 32L117 31M133 31L134 32L133 31M188 31L189 32L188 31M35 32L36 33L35 32M38 32L39 33L38 32M65.3333 32.6667L65.6667 33.3333L65.3333 32.6667z"/>
<path style="fill:#7c817f; stroke:none;" d="M66 32L67 33L66 32z"/>
<path style="fill:#afafaf; stroke:none;" d="M97.6667 32.3333L98.3333 32.6667L97.6667 32.3333M126.667 32.3333L127.333 32.6667L126.667 32.3333M136.667 32.3333L137.333 32.6667L136.667 32.3333M186 32L187 33L186 32M189 32L190 33L189 32M34 33L35 34L34 33M37 33L38 34L37 33M63 33L62 36L63 36L63 33z"/>
<path style="fill:#7c817f; stroke:none;" d="M64 33L65 34L64 33z"/>
<path style="fill:#afafaf; stroke:none;" d="M94 33L96 35L96 33L94 33M131.667 33.3333L132.333 33.6667L131.667 33.3333M139.667 33.3333L140.333 33.6667L139.667 33.3333M187 33L188 34L187 33M190 33L191 34L190 33M33 34L34 35L33 34M36 34L37 35L36 34z"/>
<path style="fill:#7c817f; stroke:none;" d="M63 34L64 35L63 34z"/>
<path style="fill:#afafaf; stroke:none;" d="M135 34L136 35L135 34M142 34L143 35L142 34M188 34L189 35L188 34M191 34L192 35L191 34M32 35L33 36L32 35M60 35L59 38L60 38L60 35z"/>
<path style="fill:#7c817f; stroke:none;" d="M61 35L62 36L61 35M95.3333 35.6667L95.6667 36.3333L95.3333 35.6667z"/>
<path style="fill:#afafaf; stroke:none;" d="M138 35L139 36L138 35M145 35L146 36L145 35M192 35L193 36L192 35M31 36L32 37L31 36M34 36L32 39L34 36z"/>
<path style="fill:#7c817f; stroke:none;" d="M60 36L61 37L60 36z"/>
<path style="fill:#afafaf; stroke:none;" d="M141 36L142 37L141 36M147 36L148 37L147 36M190 36L193 39L190 36M193 36L194 37L193 36M30 37L31 38L30 37z"/>
<path style="fill:#fefefe; stroke:none;" d="M4 111L29 111C29.0016 96.931 32.8754 83.2314 39.8727 71C42.3314 66.7022 51.9744 58.0396 50.6582 53C49.584 48.8875 38.6006 37.1736 34.0147 38.3457C29.3158 39.5466 25.1965 47.252 22.6713 51C10.7807 68.6486 4.00235 89.6932 4 111z"/>
<path style="fill:#7c817f; stroke:none;" d="M58 37L59 38L58 37z"/>
<path style="fill:#afafaf; stroke:none;" d="M95 37L97 40L97 37L95 37M144 37L145 38L144 37M149 37L150 38L149 37z"/>
<path style="fill:#fefefe; stroke:none;" d="M196 111L221 111C220.998 89.6932 214.219 68.6486 202.329 51C199.803 47.2519 195.684 39.5466 190.985 38.3457C186.399 37.1736 175.416 48.8875 174.342 53C173.064 57.8922 182.531 66.8024 184.988 71C192.132 83.203 195.998 96.8806 196 111z"/>
<path style="fill:#afafaf; stroke:none;" d="M194 37L195 38L194 37M29 38L30 39L29 38M56 38L53 42L56 43L56 38z"/>
<path style="fill:#7c817f; stroke:none;" d="M57 38L58 39L57 38z"/>
<path style="fill:#afafaf; stroke:none;" d="M146 38L147 39L146 38M151 38L152 39L151 38M195 38L196 39L195 38M28 39L29 40L28 39M148 39L149 40L148 39M153 39L154 40L153 39M196 39L197 40L196 39z"/>
<path style="fill:#7c817f; stroke:none;" d="M54 40L55 41L54 40M96.3333 40.6667L96.6667 41.3333L96.3333 40.6667z"/>
<path style="fill:#afafaf; stroke:none;" d="M150 40L151 41L150 40M155 40L156 41L155 40M152 41L153 42L152 41M156 41L157 42L156 41M96 42L98 44L98 42L96 42M158 42L159 43L158 42M25 43L26 44L25 43M28 43L29 44L28 43z"/>
<path style="fill:#7c817f; stroke:none;" d="M55 43L56 44L55 43z"/>
<path style="fill:#afafaf; stroke:none;" d="M155 43L156 44L155 43M196 43L197 44L196 43M199 43L200 44L199 43M24 44L25 45L24 44M27 44L28 45L27 44z"/>
<path style="fill:#7c817f; stroke:none;" d="M56 44L58 46L56 44M97.3333 44.6667L97.6667 45.3333L97.3333 44.6667z"/>
<path style="fill:#afafaf; stroke:none;" d="M161 44L162 45L161 44M197 44L198 45L197 44M200 44L201 45L200 44M56 45L57 46L56 45M158 45L159 46L158 45M162 45L163 46L162 45M57 46L59 49L57 46M97 46L99 49L99 46L97 46M22 47L23 48L22 47M161 47L162 48L161 47M202 47L203 48L202 47M21 48L22 49L21 48M24 48L25 49L24 48M135 50L138 48L135 50M162 48L163 49L162 48M166 48L167 49L166 48M200 48L201 49L200 48M203 48L204 49L203 48M57 49L58 50L57 49z"/>
<path style="fill:#7c817f; stroke:none;" d="M98.3333 49.6667L98.6667 50.3333L98.3333 49.6667M138 49L139 50L138 49z"/>
<path style="fill:#afafaf; stroke:none;" d="M139.333 49.6667L139.667 50.3333L139.333 49.6667M167 49L168 50L167 49M56 50L57 51L56 50M60 50L65 54L65 53L60 50z"/>
<path style="fill:#7c817f; stroke:none;" d="M61 50L62 51L61 50M135.333 50.6667L135.667 51.3333L135.333 50.6667z"/>
<path style="fill:#d8b25e; stroke:none;" d="M136 50L115 108L116 108L154 60C149.852 54.7144 142.581 51.1732 136 50z"/>
<path style="fill:#7c817f; stroke:none;" d="M140 50L141 51L140 50z"/>
<path style="fill:#afafaf; stroke:none;" d="M141.333 50.6667L141.667 51.3333L141.333 50.6667M168 50L169 51L168 50M19 51L20 52L19 51M22 51L23 52L22 51M58 51L56 54L58 51z"/>
<path style="fill:#fefefe; stroke:none;" d="M56 54L56 55L73 72C78.1163 66.0718 63.2361 49.3374 56 54z"/>
<path style="fill:#7c817f; stroke:none;" d="M62 51L63 52L62 51z"/>
<path style="fill:#afafaf; stroke:none;" d="M98 51L100 53L100 51L98 51M134 51L134 53L136 53L134 51z"/>
<path style="fill:#7c817f; stroke:none;" d="M142 51L143 52L142 51z"/>
<path style="fill:#afafaf; stroke:none;" d="M143 51L143 52L143 53L145 54L146 54L143 51M166 51L167 52L166 51M202 51L203 52L202 51M205 51L206 52L205 51M21 52L22 53L21 52z"/>
<path style="fill:#7c817f; stroke:none;" d="M144 52L145 53L144 52z"/>
<path style="fill:#afafaf; stroke:none;" d="M167 52L168 53L167 52M203 52L204 53L203 52z"/>
<path style="fill:#7c817f; stroke:none;" d="M99.3333 53.6667L99.6667 54.3333L99.3333 53.6667M134 53L135 54L134 53M146 53L147 54L146 53z"/>
<path style="fill:#afafaf; stroke:none;" d="M147.333 53.6667L147.667 54.3333L147.333 53.6667M168 53L169 54L168 53M17 54L18 55L17 54M20 54L21 55L20 54z"/>
<path style="fill:#7c817f; stroke:none;" d="M64 54L65 55L64 54z"/>
<path style="fill:#afafaf; stroke:none;" d="M133 54L133 56L135 56L135 54L133 54z"/>
<path style="fill:#7c817f; stroke:none;" d="M148 54L149 55L148 54z"/>
<path style="fill:#afafaf; stroke:none;" d="M149.333 54.6667L149.667 55.3333L149.333 54.6667M204 54L205 55L204 54M207 54L208 55L207 54z"/>
<path style="fill:#7c817f; stroke:none;" d="M65 55L68 58L65 55z"/>
<path style="fill:#afafaf; stroke:none;" d="M99 55L99 57L101 57L101 55L99 55z"/>
<path style="fill:#7c817f; stroke:none;" d="M150 55L152 57L150 55z"/>
<path style="fill:#afafaf; stroke:none;" d="M151 55L152 56L151 55M16 56L17 57L16 56M50 56L51 57L50 56M53 56L51 59L53 56z"/>
<path style="fill:#fefefe; stroke:none;" d="M54 56C48.2776 61.9833 42.3721 68.9389 40 77C44.996 79.08 56.4876 87.9034 61.7909 85.7593C65.7542 84.1569 69.1073 77.1504 72 74L72 73L54 56z"/>
<path style="fill:#afafaf; stroke:none;" d="M65 56L66 57L65 56M106 56L106 57L111 57L106 56z"/>
<path style="fill:#7c817f; stroke:none;" d="M133 56L134 57L133 56z"/>
<path style="fill:#afafaf; stroke:none;" d="M152 56L154 59L152 56z"/>
<path style="fill:#fefefe; stroke:none;" d="M170 56L153 73L153 74C162.648 84.5076 167.878 96.7993 169 111L194 111C191.542 91.5511 187.127 68.3205 170 56z"/>
<path style="fill:#afafaf; stroke:none;" d="M171 56L172 57L171 56M174 56L175 57L174 56M208 56L209 57L208 56M18 57L19 58L18 57M49 57L50 58L49 57M66 57L67 58L66 57M101 57L102 58L101 57M123.667 57.3333L124.333 57.6667L123.667 57.3333M132.667 57.3333L133.333 57.6667L132.667 57.3333z"/>
<path style="fill:#7c817f; stroke:none;" d="M153 57L154 58L153 57z"/>
<path style="fill:#afafaf; stroke:none;" d="M172 57L173 58L172 57M175 57L176 58L175 57M206 57L207 58L206 57M15 58L16 59L15 58M48 58L49 59L48 58M67 58L70 60L67 58M110 58L111 84L112 84C112 76.7488 114.478 63.9113 110 58M114 58L113 84L114 84L114 58M127.667 58.3333L128.333 58.6667L127.667 58.3333z"/>
<path style="fill:#7c817f; stroke:none;" d="M154.333 58.6667L154.667 59.3333L154.333 58.6667z"/>
<path style="fill:#afafaf; stroke:none;" d="M155 58L156 59L155 58M173 58L174 59L173 58M176 58L177 59L176 58M209 58L210 59L209 58M17 59L18 60L17 59M100 61L101 62L104 60L100 61z"/>
<path style="fill:#fefefe; stroke:none;" d="M111 84L111 59C108.62 59.0216 104.697 58.5303 103.067 60.7423C99.5945 65.4557 105.52 83.0491 111 84M114 59L114 84L122 85C123.978 80.5593 131.566 67.0228 128.879 62.5139C126.571 58.6408 117.871 59.032 114 59z"/>
<path style="fill:#afafaf; stroke:none;" d="M121.667 59.3333L122.333 59.6667L121.667 59.3333M130.667 59.3333L131.333 59.6667L130.667 59.3333M207 59L208 60L207 59z"/>
<path style="fill:#7c817f; stroke:none;" d="M69 60L70 61L69 60z"/>
<path style="fill:#afafaf; stroke:none;" d="M126 60L127 61L126 60z"/>
<path style="fill:#7c817f; stroke:none;" d="M153 60L152 62L153 60z"/>
<path style="fill:#afafaf; stroke:none;" d="M13 61L14 62L13 61M16 61L17 62L16 61z"/>
<path style="fill:#7c817f; stroke:none;" d="M70 61L73 64L70 61z"/>
<path style="fill:#afafaf; stroke:none;" d="M129 61L130 62L129 61M153 61L154 62L153 61M208 61L209 62L208 61M211 61L212 62L211 61M45 62L46 63L45 62M48 62L49 63L48 62M70 62L71 63L70 62z"/>
<path style="fill:#7c817f; stroke:none;" d="M101.333 62.6667L101.667 63.3333L101.333 62.6667z"/>
<path style="fill:#afafaf; stroke:none;" d="M130 62L130 64L132 64L132 62L130 62M150 64L153 63L150 64M176 62L177 63L176 62M179 62L180 63L179 62M12 63L13 64L12 63M15 63L16 64L15 63M44 63L45 64L44 63M47 63L48 64L47 63M71 63L72 64L71 63z"/>
<path style="fill:#7c817f; stroke:none;" d="M151 63L152 64L151 63z"/>
<path style="fill:#afafaf; stroke:none;" d="M177 63L178 64L177 63M180 63L181 64L180 63M209 63L210 64L209 63M212 63L213 64L212 63M72 64L75 66L72 64M101 64L103 67L103 64L101 64z"/>
<path style="fill:#7c817f; stroke:none;" d="M130 64L131 65L130 64M150 64L148 67L150 64z"/>
<path style="fill:#afafaf; stroke:none;" d="M14 65L15 66L14 65M129.667 65.3333L130.333 65.6667L129.667 65.3333M150 65L151 66L150 65M210 65L211 66L210 65M42 66L43 67L42 66M45 66L46 67L45 66z"/>
<path style="fill:#7c817f; stroke:none;" d="M74 66L75 67L74 66M129.333 66.6667L129.667 67.3333L129.333 66.6667z"/>
<path style="fill:#afafaf; stroke:none;" d="M149 66L150 67L149 66M179 66L180 67L179 66M182 66L183 67L182 66M13 67L14 68L13 67z"/>
<path style="fill:#7c817f; stroke:none;" d="M75 67L76 68L75 67M102.333 67.6667L102.667 68.3333L102.333 67.6667z"/>
<path style="fill:#afafaf; stroke:none;" d="M147.667 67.3333L148.333 67.6667L147.667 67.3333M211 67L212 68L211 67M10 68L11 69L10 68M41 68L42 69L41 68M75.6667 68.3333L76.3333 68.6667L75.6667 68.3333M128.667 68.3333L129.333 68.6667L128.667 68.3333M183 68L184 69L183 68M214 68L215 69L214 68M12 69L13 70L12 69M40 69L41 70L40 69M43 69L44 70L43 69M102 69L104 71L104 69L102 69z"/>
<path style="fill:#7c817f; stroke:none;" d="M128 69L129 70L128 69z"/>
<path style="fill:#afafaf; stroke:none;" d="M145 69L146 70L145 69M148 69L149 70L148 69M181 69L182 70L181 69M212 69L213 70L212 69M9 70L10 71L9 70M127 70L127 72L129 72L129 70L127 70M215 70L216 71L215 70M11 71L12 72L11 71M39 71L40 72L39 71M75 74L79 72L75 74z"/>
<path style="fill:#7c817f; stroke:none;" d="M103.333 71.6667L103.667 72.3333L103.333 71.6667z"/>
<path style="fill:#afafaf; stroke:none;" d="M142 74L146 72L142 74z"/>
<path style="fill:#fefefe; stroke:none;" d="M146 71L131 91C136.381 88.4907 151.552 77.0736 146 71z"/>
<path style="fill:#afafaf; stroke:none;" d="M147 71L148 72L147 71M185 71L186 72L185 71M213 71L214 72L213 71M41 72L42 73L41 72z"/>
<path style="fill:#fefefe; stroke:none;" d="M77 72C76.8923 79.2288 87.4225 87.0711 93 91L79 72L77 72z"/>
<path style="fill:#7c817f; stroke:none;" d="M79 72L82 75L79 72M127 72L128 73L127 72z"/>
<path style="fill:#afafaf; stroke:none;" d="M148 72L149 73L148 72M183 72L184 73L183 72M8 73L9 74L8 73M38 73L39 74L38 73M79 73L80 74L79 73M103 73L105 76L105 73L103 73M126.667 73.3333L127.333 73.6667L126.667 73.3333z"/>
<path style="fill:#7c817f; stroke:none;" d="M143 73L144 74L143 73z"/>
<path style="fill:#afafaf; stroke:none;" d="M149 73L150 74L149 73M186 73L187 74L186 73M216 73L217 74L216 73M10 74L11 75L10 74M40 74L41 75L40 74M80 74L81 75L80 74z"/>
<path style="fill:#7c817f; stroke:none;" d="M126.333 74.6667L126.667 75.3333L126.333 74.6667M142 74L141 76L142 74z"/>
<path style="fill:#afafaf; stroke:none;" d="M184 74L185 75L184 74M214 74L215 75L214 74M7.33333 75.6667L7.66667 76.3333L7.33333 75.6667M37 75L38 76L37 75M73 75L71 78L73 75M81 75L84 77L81 75M142 75L143 76L142 75M151 75L154 78L151 75M187 75L188 76L187 75M217.333 75.6667L217.667 76.3333L217.333 75.6667M39 76C34.6917 87.108 31.0999 97.9378 31 110L32 110C34.386 98.4276 35.0344 86.925 42 77L39 76M69 76L70 77L69 76z"/>
<path style="fill:#fefefe; stroke:none;" d="M65 89L87 99C91.7328 91.9855 83.0321 77.2068 74.0147 77.2068C69.0877 77.2068 66.1168 85.2047 65 89z"/>
<path style="fill:#7c817f; stroke:none;" d="M104.333 76.6667L104.667 77.3333L104.333 76.6667z"/>
<path style="fill:#afafaf; stroke:none;" d="M125.667 76.3333L126.333 76.6667L125.667 76.3333M138 79L142 77L138 79z"/>
<path style="fill:#fefefe; stroke:none;" d="M141 111L166 111C165.923 101.666 163.199 93.1384 158.688 85C157.183 82.2856 154.659 77.2068 150.985 77.2068C147.196 77.2068 143.403 82.5812 141.001 85C139.054 86.9598 136.106 89.2206 135.33 92C133.985 96.8226 140.737 105.264 141 111z"/>
<path style="fill:#afafaf; stroke:none;" d="M155 76L156 77L155 76M185 76L186 77L185 76M9 77L10 78L9 77M36 77L37 78L36 77M68 77L69 78L68 77z"/>
<path style="fill:#7c817f; stroke:none;" d="M83 77L84 78L83 77M125 77L126 78L125 77z"/>
<path style="fill:#afafaf; stroke:none;" d="M156 77L157 78L156 77M188 77L189 78L188 77M215 77L216 78L215 77M6.33333 78.6667L6.66667 79.3333L6.33333 78.6667z"/>
<path style="fill:#d8b25e; stroke:none;" d="M40 78C34.0219 93.4969 31.9163 108.512 34 125C57.2386 124.52 86.8522 119.006 109 112L85 99.7523L40 78z"/>
<path style="fill:#7c817f; stroke:none;" d="M41 78L41 79L45 80L45 79L41 78z"/>
<path style="fill:#afafaf; stroke:none;" d="M43 78L44 79L43 78z"/>
<path style="fill:#7c817f; stroke:none;" d="M84 78L87 81L84 78z"/>
<path style="fill:#afafaf; stroke:none;" d="M104 78L106 80L106 78L104 78M124 78L124 80L126 80L126 78L124 78z"/>
<path style="fill:#7c817f; stroke:none;" d="M139 78L140 79L139 78z"/>
<path style="fill:#afafaf; stroke:none;" d="M186 78L187 79L186 78M218.333 78.6667L218.667 79.3333L218.333 78.6667M35 79L36 80L35 79M45.3333 79.6667L45.6667 80.3333L45.3333 79.6667M84 79L85 80L84 79z"/>
<path style="fill:#7c817f; stroke:none;" d="M138 79L137 81L138 79z"/>
<path style="fill:#afafaf; stroke:none;" d="M189 79L190 80L189 79M8 80L9 81L8 80z"/>
<path style="fill:#7c817f; stroke:none;" d="M46 80L47 81L46 80z"/>
<path style="fill:#afafaf; stroke:none;" d="M47.3333 80.6667L47.6667 81.3333L47.3333 80.6667M66 80L67 81L66 80M85 80L86 81L85 80z"/>
<path style="fill:#7c817f; stroke:none;" d="M105.333 80.6667L105.667 81.3333L105.333 80.6667M124 80L125 81L124 80z"/>
<path style="fill:#afafaf; stroke:none;" d="M138 80L139 81L138 80M158 80L159 81L158 80M187 80L188 81L187 80M216 80L217 81L216 80z"/>
<path style="fill:#7c817f; stroke:none;" d="M48 81L49 82L48 81z"/>
<path style="fill:#afafaf; stroke:none;" d="M49.3333 81.6667L49.6667 82.3333L49.3333 81.6667M65 81L66 82L65 81M68 81L69 82L68 81M86 81L89 83L86 81M123.667 81.3333L124.333 81.6667L123.667 81.3333M135 83L138 81L135 83M156 81L157 82L156 81M159 81L160 82L159 81M5 82L6 83L5 82M34 82L35 83L34 82z"/>
<path style="fill:#7c817f; stroke:none;" d="M50 82L51 83L50 82z"/>
<path style="fill:#afafaf; stroke:none;" d="M51.3333 82.6667L51.6667 83.3333L51.3333 82.6667M105 82L105 84L107 84L107 82L105 82z"/>
<path style="fill:#7c817f; stroke:none;" d="M123.333 82.6667L123.667 83.3333L123.333 82.6667z"/>
<path style="fill:#afafaf; stroke:none;" d="M190 82L191 83L190 82M219 82L220 83L219 82M7.33333 83.6667L7.66667 84.3333L7.33333 83.6667z"/>
<path style="fill:#7c817f; stroke:none;" d="M37 83L38 84L37 83M52 83L53 84L52 83z"/>
<path style="fill:#afafaf; stroke:none;" d="M53.3333 83.6667L53.6667 84.3333L53.3333 83.6667M64 83L65 84L64 83z"/>
<path style="fill:#7c817f; stroke:none;" d="M88 83L89 84L88 83M135 83L136 84L135 83z"/>
<path style="fill:#afafaf; stroke:none;" d="M160 83L161 84L160 83M188 83L189 84L188 83M217.333 83.6667L217.667 84.3333L217.333 83.6667M33.3333 84.6667L33.6667 85.3333L33.3333 84.6667z"/>
<path style="fill:#7c817f; stroke:none;" d="M54 84L55 85L54 84z"/>
<path style="fill:#afafaf; stroke:none;" d="M55.3333 84.6667L55.6667 85.3333L55.3333 84.6667M66 84L67 85L66 84z"/>
<path style="fill:#7c817f; stroke:none;" d="M89 84L91 86L89 84z"/>
<path style="fill:#afafaf; stroke:none;" d="M107 84L108 85L107 84M117 84L117 85L120 85L117 84M122.667 84.3333L123.333 84.6667L122.667 84.3333z"/>
<path style="fill:#7c817f; stroke:none;" d="M134 84L133 86L134 84z"/>
<path style="fill:#afafaf; stroke:none;" d="M158 84L159 85L158 84M191.333 84.6667L191.667 85.3333L191.333 84.6667M4.33333 85.6667L4.66667 86.3333L4.33333 85.6667z"/>
<path style="fill:#7c817f; stroke:none;" d="M56 85L57 86L56 85z"/>
<path style="fill:#afafaf; stroke:none;" d="M57.3333 85.6667L57.6667 86.3333L57.3333 85.6667M89 85L90 86L89 85M121 85L122 86L121 85M134 85L135 86L134 85M220.333 85.6667L220.667 86.3333L220.333 85.6667z"/>
<path style="fill:#7c817f; stroke:none;" d="M36 86L37 87L36 86M58 86L59 87L58 86z"/>
<path style="fill:#afafaf; stroke:none;" d="M59.3333 86.6667L59.6667 87.3333L59.3333 86.6667M62 86L63 87L62 86M65 86L66 87L65 86M90 86L93 88L90 86M107 89L110 87C107.687 85.8835 106.988 86.6095 107 89z"/>
<path style="fill:#fefefe; stroke:none;" d="M110 86L110 101L111 101L110 86z"/>
<path style="fill:#afafaf; stroke:none;" d="M111 86C111 90.4816 112.333 100.833 109 100L110 106L111 106L111 86M113 86L114 109L115 109L116 105L113 86z"/>
<path style="fill:#fefefe; stroke:none;" d="M114 86L114 105L115 105L121 88L114 86z"/>
<path style="fill:#afafaf; stroke:none;" d="M115 86L115 87L118 87L115 86M131 88L134 87L131 88M159 86L160 87L159 86M162 86L163 87L162 86M189 86L190 87L189 86M6.33333 87.6667L6.66667 88.3333L6.33333 87.6667M32.3333 87.6667L32.6667 88.3333L32.3333 87.6667z"/>
<path style="fill:#7c817f; stroke:none;" d="M60 87L61 88L60 87z"/>
<path style="fill:#afafaf; stroke:none;" d="M61.3333 87.6667L61.6667 88.3333L61.3333 87.6667M120 87L121 88L120 87z"/>
<path style="fill:#7c817f; stroke:none;" d="M132 87L133 88L132 87z"/>
<path style="fill:#afafaf; stroke:none;" d="M192.333 87.6667L192.667 88.3333L192.333 87.6667M218.333 87.6667L218.667 88.3333L218.333 87.6667M63 89L63 90L66 90L63 89z"/>
<path style="fill:#7c817f; stroke:none;" d="M92 88L93 89L92 88M131 88L132 89L131 88z"/>
<path style="fill:#afafaf; stroke:none;" d="M160 88L161 89L160 88M163 88L164 89L163 88z"/>
<path style="fill:#7c817f; stroke:none;" d="M35 89L36 90L35 89M64 89L65 90L64 89M93 89L94 90L93 89M107.333 89.6667L107.667 90.3333L107.333 89.6667z"/>
<path style="fill:#afafaf; stroke:none;" d="M120.667 89.3333L121.333 89.6667L120.667 89.3333M131 89L132 90L131 89M190 89L191 90L190 89M3.33333 90.6667L3.66667 91.3333L3.33333 90.6667z"/>
<path style="fill:#7c817f; stroke:none;" d="M66 90L67 91L66 90z"/>
<path style="fill:#afafaf; stroke:none;" d="M67 90L67 91L73 93L73 92L67 90M93 90L94 91L93 90z"/>
<path style="fill:#7c817f; stroke:none;" d="M120.333 90.6667L120.667 91.3333L120.333 90.6667z"/>
<path style="fill:#afafaf; stroke:none;" d="M161 90L162 91L161 90M221.333 90.6667L221.667 91.3333L221.333 90.6667M5 91L5 94L6 94L5 91M31 91L32 92L31 91z"/>
<path style="fill:#7c817f; stroke:none;" d="M68 91L69 92L68 91z"/>
<path style="fill:#afafaf; stroke:none;" d="M107 91L109 94L109 91L107 91M164 91L165 92L164 91M193 91L194 92L193 91M219 91L219 94L220 94L219 91z"/>
<path style="fill:#7c817f; stroke:none;" d="M70 92L71 93L70 92z"/>
<path style="fill:#afafaf; stroke:none;" d="M95 92L101 98L101 97L95 92M119.667 92.3333L120.333 92.6667L119.667 92.3333M127 92L128 93L127 92M129 92L130 93L129 92M162 92L163 93L162 92M191.333 92.6667L191.667 93.3333L191.333 92.6667z"/>
<path style="fill:#7c817f; stroke:none;" d="M34.3333 93.6667L34.6667 94.3333L34.3333 93.6667M72.6667 93.3333L73.3333 93.6667L72.6667 93.3333z"/>
<path style="fill:#afafaf; stroke:none;" d="M74.3333 93.6667L74.6667 94.3333L74.3333 93.6667z"/>
<path style="fill:#fefefe; stroke:none;" d="M95 93L96 94L95 93z"/>
<path style="fill:#7c817f; stroke:none;" d="M119.333 93.6667L119.667 94.3333L119.333 93.6667M127 93L126 95L127 93z"/>
<path style="fill:#fefefe; stroke:none;" d="M128 93L125 98L130 93L128 93z"/>
<path style="fill:#afafaf; stroke:none;" d="M165.333 93.6667L165.667 94.3333L165.333 93.6667z"/>
<path style="fill:#7c817f; stroke:none;" d="M75 94L76 95L75 94z"/>
<path style="fill:#afafaf; stroke:none;" d="M76.3333 94.6667L76.6667 95.3333L76.3333 94.6667z"/>
<path style="fill:#fefefe; stroke:none;" d="M96 94L97 95L96 94z"/>
<path style="fill:#7c817f; stroke:none;" d="M108.333 94.6667L108.667 95.3333L108.333 94.6667z"/>
<path style="fill:#afafaf; stroke:none;" d="M118 94L118 96L120 96L118 94M127 94L128 95L127 94M2 95L2 98L3 98L2 95M30.3333 95.6667L30.6667 96.3333L30.3333 95.6667z"/>
<path style="fill:#7c817f; stroke:none;" d="M77 95L78 96L77 95z"/>
<path style="fill:#afafaf; stroke:none;" d="M78.3333 95.6667L78.6667 96.3333L78.3333 95.6667M89 95L90 96L89 95M92 95L91 97L92 95z"/>
<path style="fill:#fefefe; stroke:none;" d="M93 95L89 101L107 109L93 95z"/>
<path style="fill:#7c817f; stroke:none;" d="M98 95L99 96L98 95z"/>
<path style="fill:#afafaf; stroke:none;" d="M122 99L122 100L124 97L127 96L122 99z"/>
<path style="fill:#fefefe; stroke:none;" d="M131 95L117 110L136 106C136.064 108.993 135.946 110.346 139 111C137.373 104.726 136.33 99.1859 131 95z"/>
<path style="fill:#afafaf; stroke:none;" d="M132 95L133 96L132 95M135 95L136 96L135 95M163 95L164 96L163 95M194.333 95.6667L194.667 96.3333L194.333 95.6667M222 95L222 98L223 98L222 95z"/>
<path style="fill:#7c817f; stroke:none;" d="M79 96L80 97L79 96z"/>
<path style="fill:#afafaf; stroke:none;" d="M80.3333 96.6667L80.6667 97.3333L80.3333 96.6667M88 96L89 97L88 96M108 96L110 98L110 96L108 96z"/>
<path style="fill:#7c817f; stroke:none;" d="M118 96L119 97L118 96z"/>
<path style="fill:#afafaf; stroke:none;" d="M133 96L134 97L133 96M136 96L137 97L136 96M166.333 96.6667L166.667 97.3333L166.333 96.6667M4 97L4 101L5 101L4 97z"/>
<path style="fill:#7c817f; stroke:none;" d="M81 97L82 98L81 97z"/>
<path style="fill:#afafaf; stroke:none;" d="M82.3333 97.6667L82.6667 98.3333L82.3333 97.6667M117.667 97.3333L118.333 97.6667L117.667 97.3333z"/>
<path style="fill:#7c817f; stroke:none;" d="M124 97L125 98L124 97z"/>
<path style="fill:#afafaf; stroke:none;" d="M192.333 97.6667L192.667 98.3333L192.333 97.6667M220 97L220 101L221 101L220 97z"/>
<path style="fill:#7c817f; stroke:none;" d="M33.3333 98.6667L33.6667 99.3333L33.3333 98.6667M83 98L84 99L83 98z"/>
<path style="fill:#afafaf; stroke:none;" d="M84.3333 98.6667L84.6667 99.3333L84.3333 98.6667M87 98L88 99L87 98M101 98L102 99L101 98z"/>
<path style="fill:#7c817f; stroke:none;" d="M109.333 98.6667L109.667 99.3333L109.333 98.6667M117.333 98.6667L117.667 99.3333L117.333 98.6667M123 98L124 99L123 98z"/>
<path style="fill:#afafaf; stroke:none;" d="M137 98L138 99L137 98M164 98L165 99L164 98z"/>
<path style="fill:#7c817f; stroke:none;" d="M85 99L86 100L85 99z"/>
<path style="fill:#afafaf; stroke:none;" d="M86.3333 99.6667L86.6667 100.333L86.3333 99.6667M89 99L90 100L89 99M102 99L103 100L102 99M135 99L136 100L135 99M29 100L29 104L30 104L29 100M116.667 100.333L117.333 100.667L116.667 100.333M121 100L122 101L121 100M138 100L139 101L138 100M167.333 100.667L167.667 101.333L167.333 100.667M195 100L195 104L196 104L195 100M88 101L89 102L88 101z"/>
<path style="fill:#7c817f; stroke:none;" d="M89 101L90 102L89 101z"/>
<path style="fill:#afafaf; stroke:none;" d="M90.3333 101.667L90.6667 102.333L90.3333 101.667z"/>
<path style="fill:#7c817f; stroke:none;" d="M116.333 101.667L116.667 102.333L116.333 101.667z"/>
<path style="fill:#afafaf; stroke:none;" d="M120 101L121 102L120 101M136 101L137 102L136 101z"/>
<path style="fill:#7c817f; stroke:none;" d="M91 102L92 103L91 102z"/>
<path style="fill:#afafaf; stroke:none;" d="M92 102L93 103L92 102M115 102L115 104L117 104L115 102M139.333 102.667L139.667 103.333L139.333 102.667M165.333 102.667L165.667 103.333L165.333 102.667M1 103L1 122L2 122L1 103z"/>
<path style="fill:#7c817f; stroke:none;" d="M93 103L94 104L93 103z"/>
<path style="fill:#afafaf; stroke:none;" d="M94 103L95 104L94 103M105 103L106 104L105 103M193 103L193 108L194 108L193 103M223 103L223 122L224 122L223 103z"/>
<path style="fill:#7c817f; stroke:none;" d="M95 104L96 105L95 104z"/>
<path style="fill:#afafaf; stroke:none;" d="M96 104L96 105L100 106L100 105L96 104M106 104L107 105L106 104z"/>
<path style="fill:#7c817f; stroke:none;" d="M115 104L116 105L115 104z"/>
<path style="fill:#afafaf; stroke:none;" d="M137 104L138 105L137 104z"/>
<path style="fill:#7c817f; stroke:none;" d="M97 105L98 106L97 105z"/>
<path style="fill:#afafaf; stroke:none;" d="M107 105L108 106L107 105M117 105L118 106L117 105M140 105L140 108L141 108L140 105z"/>
<path style="fill:#7c817f; stroke:none;" d="M99 106L99 107L103 108L103 107L99 106z"/>
<path style="fill:#afafaf; stroke:none;" d="M101 106L102 107L101 106M116 106L117 107L116 106M132 106L133 107L132 106M135 106L135 111L136 111L135 106M168 106L168 111L169 111L168 106M103.333 107.667L103.667 108.333L103.333 107.667M128.667 107.333L129.333 107.667L128.667 107.333M138 107L138 110L139 110L138 107z"/>
<path style="fill:#7c817f; stroke:none;" d="M104 108L105 109L104 108z"/>
<path style="fill:#afafaf; stroke:none;" d="M105.333 108.667L105.667 109.333L105.333 108.667M124.667 108.333L125.333 108.667L124.667 108.333M3.33333 109.667L3.66667 110.333L3.33333 109.667z"/>
<path style="fill:#7c817f; stroke:none;" d="M106 109L107 110L106 109z"/>
<path style="fill:#afafaf; stroke:none;" d="M107.333 109.667L107.667 110.333L107.333 109.667M121.667 109.333L122.333 109.667L121.667 109.333M221.333 109.667L221.667 110.333L221.333 109.667z"/>
<path style="fill:#fefefe; stroke:none;" d="M31 110L32 111L31 110z"/>
<path style="fill:#afafaf; stroke:none;" d="M116 110L116 111L119 111L116 110M166 110L167 111L166 110M4 111L4 112L29 112L4 111M31 111L32 112L31 111M136 111L136 112L139 112L136 111M141 111L141 112L166 112L141 111M169 111L169 112L194 112L169 111M196 111L196 112L221 112L196 111M108.667 112.333L109.333 112.667L108.667 112.333M3 116L4 116C9.75617 111.639 21.9489 114 29 114C23.6178 111.742 6.36685 110.807 3 116M31 113L32 114L31 113M102 113L105 117L101 121C104.933 118.696 106.535 115.571 102 113M116 113L116 114L139 114L116 113M141 113L141 114L167 115C161.089 110.522 148.251 113 141 113M168 119L169 119L169 114L194 114C187.486 111.267 168.686 110.189 168 119M196 113L196 114C203.051 114 215.244 111.639 221 116C221.81 111.086 200.097 113 196 113z"/>
<path style="fill:#fefefe; stroke:none;" d="M4 114C4.00235 135.307 10.7807 156.351 22.6713 174C25.1965 177.748 29.3158 185.453 34.0147 186.654C38.6006 187.826 49.584 176.113 50.6582 172C51.936 167.108 42.4688 158.198 40.0116 154C32.8681 141.797 29.0016 128.119 29 114L4 114M31 114L31 117L32 117L31 114z"/>
<path style="fill:#afafaf; stroke:none;" d="M96 115L96 116L100 115L96 115z"/>
<path style="fill:#7c817f; stroke:none;" d="M100.667 114.333L101.333 114.667L100.667 114.333z"/>
<path style="fill:#fefefe; stroke:none;" d="M105.667 114.333L106.333 114.667L105.667 114.333z"/>
<path style="fill:#afafaf; stroke:none;" d="M107 114L108 115L107 114z"/>
<path style="fill:#fefefe; stroke:none;" d="M116 114L116 115L134 128L139 114L116 114M141 114L136 131L156 145C161.298 134.93 165.904 125.624 166 114L141 114M169 114C168.075 125.707 164.557 136.871 157 146L157 147C161.083 150.555 170.27 160.958 175.907 160.808C179.828 160.703 182.677 153.908 184.218 151C190.447 139.246 192.357 126.999 194 114L169 114M196 114C195.998 134.344 185.806 147.016 179 165C186.661 171.108 175.967 183.388 188.999 186.654C194.694 188.081 201.13 175.88 203.655 172C214.796 154.88 220.998 134.419 221 114L196 114z"/>
<path style="fill:#afafaf; stroke:none;" d="M91 117L94 115L91 117z"/>
<path style="fill:#7c817f; stroke:none;" d="M94.6667 115.333L95.3333 115.667L94.6667 115.333z"/>
<path style="fill:#fefefe; stroke:none;" d="M87 118L88 123L105 116L87 118z"/>
<path style="fill:#afafaf; stroke:none;" d="M138 115L138 118L139 118L138 115M85 116L85 117L88 118L85 116z"/>
<path style="fill:#7c817f; stroke:none;" d="M88 116L88 117L91 117L88 116M104 116L105 117L104 116z"/>
<path style="fill:#fefefe; stroke:none;" d="M110 116L95 131L95 132L106 138L110 116z"/>
<path style="fill:#afafaf; stroke:none;" d="M113 116L114 117L113 116z"/>
<path style="fill:#fefefe; stroke:none;" d="M114 116L118 138L128 134L114 116z"/>
<path style="fill:#afafaf; stroke:none;" d="M118 116L119 117L118 116M31 117L34 123L33 117L31 117M81 117L79 118L79 119L81 117z"/>
<path style="fill:#7c817f; stroke:none;" d="M82 117L82 118L89 125L87 117L82 117z"/>
<path style="fill:#afafaf; stroke:none;" d="M101 117L102 118L101 117z"/>
<path style="fill:#7c817f; stroke:none;" d="M102 117L103 118L102 117z"/>
<path style="fill:#62c6b3; stroke:none;" d="M112 117L101 169L122 168L112 117z"/>
<path style="fill:#7c817f; stroke:none;" d="M113 117L113 122L114 122L113 117z"/>
<path style="fill:#afafaf; stroke:none;" d="M119 117L120 118L119 117M140 117L140 120L141 120L140 117M193 117L193 122L194 122L193 117M74 120L77 118L74 120z"/>
<path style="fill:#7c817f; stroke:none;" d="M77.6667 118.333L78.3333 118.667L77.6667 118.333z"/>
<path style="fill:#fefefe; stroke:none;" d="M60 122C60.5873 128.727 65.434 145.66 73.0401 147.654C78.7945 149.163 88.9103 135.481 91 131L73 139C70.4887 130.2 79.0631 127.888 86 125L84 118L60 122z"/>
<path style="fill:#afafaf; stroke:none;" d="M84.3333 118.667L84.6667 119.333L84.3333 118.667M99 118L100 119L99 118z"/>
<path style="fill:#7c817f; stroke:none;" d="M100 118L101 119L100 118z"/>
<path style="fill:#62c6b3; stroke:none;" d="M101.667 118.333L102.333 118.667L101.667 118.333z"/>
<path style="fill:#afafaf; stroke:none;" d="M110 118L110 121L111 121L110 118M116 118L117 119L116 118M120 118L121 119L120 118M68 121L71 119L68 121z"/>
<path style="fill:#7c817f; stroke:none;" d="M71 119L71 120L74 120L71 119z"/>
<path style="fill:#afafaf; stroke:none;" d="M97 119L98 120L97 119z"/>
<path style="fill:#7c817f; stroke:none;" d="M98 119L99 120L98 119z"/>
<path style="fill:#62c6b3; stroke:none;" d="M72 133L74 138L101 120C93.2347 118.707 78.7492 129.061 72 133z"/>
<path style="fill:#afafaf; stroke:none;" d="M117 119L118 120L117 119z"/>
<path style="fill:#d8b25e; stroke:none;" d="M119 119L122 122L119 119z"/>
<path style="fill:#7c817f; stroke:none;" d="M120 119L122 122L119 120L125 125L120 119z"/>
<path style="fill:#afafaf; stroke:none;" d="M62 122L65 120L62 122z"/>
<path style="fill:#7c817f; stroke:none;" d="M65 120L65 121L68 121L65 120z"/>
<path style="fill:#afafaf; stroke:none;" d="M87 120L88 121L87 120M92 123L96 121L92 123z"/>
<path style="fill:#7c817f; stroke:none;" d="M96 120L97 121L96 120M100 120L99 122L100 120z"/>
<path style="fill:#fefefe; stroke:none;" d="M102 120L103 121L102 120z"/>
<path style="fill:#afafaf; stroke:none;" d="M114 120L114 123L115 123L114 120M118 120L119 121L118 120M123 120L124 121L123 120M137 120L138 121L137 120M29 121L29 125L30 125L29 121M57 121L58 122L57 121M85.3333 121.667L85.6667 122.333L85.3333 121.667z"/>
<path style="fill:#7c817f; stroke:none;" d="M94 121L95 122L94 121z"/>
<path style="fill:#afafaf; stroke:none;" d="M98.3333 121.667L98.6667 122.333L98.3333 121.667z"/>
<path style="fill:#fefefe; stroke:none;" d="M93 130L102 121C97.7144 122.649 92.9191 125.012 93 130z"/>
<path style="fill:#7c817f; stroke:none;" d="M110.333 121.667L110.667 122.333L110.333 121.667z"/>
<path style="fill:#afafaf; stroke:none;" d="M124 121L126 124L124 121M139.333 121.667L139.667 122.333L139.333 121.667M165.333 121.667L165.667 122.333L165.333 121.667M195 121L195 125L196 125L195 121z"/>
<path style="fill:#fefefe; stroke:none;" d="M32 122L32 126L33 126L32 122z"/>
<path style="fill:#afafaf; stroke:none;" d="M50 123L50 124L54 122L50 123z"/>
<path style="fill:#7c817f; stroke:none;" d="M54.6667 122.333L55.3333 122.667L54.6667 122.333z"/>
<path style="fill:#afafaf; stroke:none;" d="M56 122L57 125L58 125L56 122M59 122L60 123L59 122M90 122L88 123L88 124L90 122z"/>
<path style="fill:#7c817f; stroke:none;" d="M91 122L92 123L91 122M97 122L98 123L97 122M33 123L33 126L34 126L33 123z"/>
<path style="fill:#afafaf; stroke:none;" d="M45 125L48 123L45 125z"/>
<path style="fill:#7c817f; stroke:none;" d="M48.6667 123.333L49.3333 123.667L48.6667 123.333z"/>
<path style="fill:#fefefe; stroke:none;" d="M33 127C34.2847 142.729 43.311 157.824 54 169L55 169L72 152L72 151C64.3914 142.714 60.0468 133.733 57 123L33 127z"/>
<path style="fill:#afafaf; stroke:none;" d="M95 123L94 126L95 123z"/>
<path style="fill:#7c817f; stroke:none;" d="M96 123L97 124L96 123z"/>
<path style="fill:#afafaf; stroke:none;" d="M109 123L109 125L111 123L109 123z"/>
<path style="fill:#7c817f; stroke:none;" d="M114.333 123.667L114.667 124.333L114.333 123.667z"/>
<path style="fill:#afafaf; stroke:none;" d="M120 123L121 124L120 123z"/>
<path style="fill:#7c817f; stroke:none;" d="M126 123L129 126L126 123z"/>
<path style="fill:#afafaf; stroke:none;" d="M136 123L137 124L136 123M167.333 123.667L167.667 124.333L167.333 123.667M4 124L4 128L5 128L4 124M39 126L42 124L39 126z"/>
<path style="fill:#7c817f; stroke:none;" d="M42 124L42 125L45 125L42 124z"/>
<path style="fill:#afafaf; stroke:none;" d="M86.3333 124.667L86.6667 125.333L86.3333 124.667z"/>
<path style="fill:#7c817f; stroke:none;" d="M94 124L95 125L94 124z"/>
<path style="fill:#afafaf; stroke:none;" d="M121 124L122 125L121 124z"/>
<path style="fill:#d8b25e; stroke:none;" d="M125.667 124.333L126.333 124.667L125.667 124.333z"/>
<path style="fill:#afafaf; stroke:none;" d="M128 124L129 125L128 124M138 124L139 125L138 124M220 124L220 128L221 128L220 124M32 128L37 126L32 128z"/>
<path style="fill:#7c817f; stroke:none;" d="M37.6667 125.333L38.3333 125.667L37.6667 125.333z"/>
<path style="fill:#afafaf; stroke:none;" d="M84.3333 125.667L84.6667 126.333L84.3333 125.667z"/>
<path style="fill:#7c817f; stroke:none;" d="M85 125L86 126L85 125z"/>
<path style="fill:#afafaf; stroke:none;" d="M92 125L91 129L92 129L92 125z"/>
<path style="fill:#7c817f; stroke:none;" d="M93 125L94 126L93 125M109.333 125.667L109.667 126.333L109.333 125.667z"/>
<path style="fill:#afafaf; stroke:none;" d="M114 125L115 128L116 128L116 125L114 125M122.667 125.333L123.333 125.667L122.667 125.333z"/>
<path style="fill:#d8b25e; stroke:none;" d="M124 125L129 133L130 133L124 125M127 125L128 126L127 125z"/>
<path style="fill:#afafaf; stroke:none;" d="M129 125L131 128L129 125M135 125L136 126L135 125M60 126L61 127L60 126M82.3333 126.667L82.6667 127.333L82.3333 126.667z"/>
<path style="fill:#7c817f; stroke:none;" d="M83 126L84 127L83 126M91 126L92 127L91 126M123 126L124 127L123 126z"/>
<path style="fill:#d8b25e; stroke:none;" d="M128 126L129 127L128 126z"/>
<path style="fill:#afafaf; stroke:none;" d="M137 126L138 127L137 126M164 126L165 127L164 126M192.333 126.667L192.667 127.333L192.333 126.667M2 127L2 130L3 130L2 127M58.3333 127.667L58.6667 128.333L58.3333 127.667M80.3333 127.667L80.6667 128.333L80.3333 127.667z"/>
<path style="fill:#7c817f; stroke:none;" d="M81 127L82 128L81 127z"/>
<path style="fill:#afafaf; stroke:none;" d="M108 127L108 130L109 130L110 127L108 127z"/>
<path style="fill:#7c817f; stroke:none;" d="M124 127L126 129L124 127z"/>
<path style="fill:#d8b25e; stroke:none;" d="M129 127L130 128L129 127z"/>
<path style="fill:#7c817f; stroke:none;" d="M131 127L132 128L131 127z"/>
<path style="fill:#afafaf; stroke:none;" d="M166.333 127.667L166.667 128.333L166.333 127.667M222 127L222 130L223 130L222 127M30.3333 128.667L30.6667 129.333L30.3333 128.667M78.3333 128.667L78.6667 129.333L78.3333 128.667z"/>
<path style="fill:#7c817f; stroke:none;" d="M79 128L80 129L79 128M115 128L115 131L116 131L115 128z"/>
<path style="fill:#afafaf; stroke:none;" d="M124 128L125 129L124 128z"/>
<path style="fill:#d8b25e; stroke:none;" d="M130 128L133 130L130 128z"/>
<path style="fill:#afafaf; stroke:none;" d="M132 128L133 129L132 128M136 128L137 129L136 128M194.333 128.667L194.667 129.333L194.333 128.667M61 129L62 130L61 129M76.3333 129.667L76.6667 130.333L76.3333 129.667z"/>
<path style="fill:#7c817f; stroke:none;" d="M77 129L78 130L77 129z"/>
<path style="fill:#afafaf; stroke:none;" d="M86 129L85 132L86 129z"/>
<path style="fill:#7c817f; stroke:none;" d="M87 129L88 130L87 129z"/>
<path style="fill:#afafaf; stroke:none;" d="M88.6667 129.333L89.3333 129.667L88.6667 129.333M92 129L93 130L92 129M125 129L128 131L125 129M135 129L135 132L136 132L135 129M163 129L164 130L163 129M74.3333 130.667L74.6667 131.333L74.3333 130.667z"/>
<path style="fill:#7c817f; stroke:none;" d="M75 130L76 131L75 130M85 130L86 131L85 130M108.333 130.667L108.667 131.333L108.333 130.667z"/>
<path style="fill:#afafaf; stroke:none;" d="M165.333 130.667L165.667 131.333L165.333 130.667M5 131L5 134L6 134L5 131M33.3333 131.667L33.6667 132.333L33.3333 131.667M59 131L60 132L59 131M72.3333 131.667L72.6667 132.333L72.3333 131.667z"/>
<path style="fill:#7c817f; stroke:none;" d="M73 131L74 132L73 131z"/>
<path style="fill:#afafaf; stroke:none;" d="M83 131L82 134L83 131z"/>
<path style="fill:#7c817f; stroke:none;" d="M84 131L85 132L84 131z"/>
<path style="fill:#afafaf; stroke:none;" d="M115 131L116 134L117 134L117 131L115 131z"/>
<path style="fill:#7c817f; stroke:none;" d="M127 131L128 132L127 131z"/>
<path style="fill:#d8b25e; stroke:none;" d="M134 131C137.42 138.333 145.435 145.375 152 150C154.559 142.236 140.136 134.057 134 131z"/>
<path style="fill:#7c817f; stroke:none;" d="M136 131L139 134L136 131z"/>
<path style="fill:#afafaf; stroke:none;" d="M137 131L138 132L137 131M191.333 131.667L191.667 132.333L191.333 131.667M219 131L219 134L220 134L219 131M62 132L63 133L62 132z"/>
<path style="fill:#7c817f; stroke:none;" d="M71.3333 132.667L71.6667 133.333L71.3333 132.667z"/>
<path style="fill:#afafaf; stroke:none;" d="M95 132L96 133L95 132M107 132L107 134L109 132L107 132M128 132L129 133L128 132M138 132L139 133L138 132M162 132L163 133L162 132M3.33333 133.667L3.66667 134.333L3.33333 133.667M31 133L32 134L31 133M60 133L61 134L60 133M80 133L79 136L80 133z"/>
<path style="fill:#7c817f; stroke:none;" d="M81 133L82 134L81 133z"/>
<path style="fill:#afafaf; stroke:none;" d="M96 133L97 134L96 133M139.333 133.667L139.667 134.333L139.333 133.667M164 133L165 134L164 133M193 133L194 134L193 133M221.333 133.667L221.667 134.333L221.333 133.667M63 134L64 135L63 134M71.6667 134.333L72.3333 134.667L71.6667 134.333z"/>
<path style="fill:#fefefe; stroke:none;" d="M100 165L105 140C101.342 138.944 96.7081 134.951 93 135.164C88.6286 135.414 76.1396 147.359 77.3457 151.96C79.2022 159.042 93.9528 163.029 100 165z"/>
<path style="fill:#7c817f; stroke:none;" d="M107.333 134.667L107.667 135.333L107.333 134.667M116 134L116 137L117 137L116 134z"/>
<path style="fill:#d8b25e; stroke:none;" d="M131 134C134.107 140.086 142.267 154.549 150 152C145.375 145.435 138.333 137.42 131 134z"/>
<path style="fill:#7c817f; stroke:none;" d="M140 134L141 135L140 134z"/>
<path style="fill:#afafaf; stroke:none;" d="M161 134L162 135L161 134M34 135L35 136L34 135z"/>
<path style="fill:#7c817f; stroke:none;" d="M72 135L73 136L72 135z"/>
<path style="fill:#afafaf; stroke:none;" d="M77 135L76 138L77 135z"/>
<path style="fill:#7c817f; stroke:none;" d="M78 135L79 136L78 135z"/>
<path style="fill:#afafaf; stroke:none;" d="M95 135L96 136L95 135M99 135L100 136L99 135M125 135L126 136L125 135M128 136L128 137L132 136L128 136z"/>
<path style="fill:#7c817f; stroke:none;" d="M141 135L144 138L141 135z"/>
<path style="fill:#afafaf; stroke:none;" d="M142 135L143 136L142 135M190 135L191 136L190 135M6.33333 136.667L6.66667 137.333L6.33333 136.667M32.3333 136.667L32.6667 137.333L32.3333 136.667M61 136L62 137L61 136M64 136L65 137L64 136M72 136L75 139L72 136M96 136L97 137L96 136M101 136L102 137L101 136M106 136L106 138L108 136L106 136M123 136L124 137L123 136z"/>
<path style="fill:#fefefe; stroke:none;" d="M118 141L122 165L145 156L131 136L118 141z"/>
<path style="fill:#7c817f; stroke:none;" d="M131 136L134 139L131 136z"/>
<path style="fill:#afafaf; stroke:none;" d="M143 136L144 137L143 136M160 136L161 137L160 136M163 136L164 137L163 136M192.333 136.667L192.667 137.333L192.333 136.667M218.333 136.667L218.667 137.333L218.333 136.667z"/>
<path style="fill:#7c817f; stroke:none;" d="M75 137L76 138L75 137z"/>
<path style="fill:#afafaf; stroke:none;" d="M98 137L99 138L98 137M104 137L105 138L104 137M116.667 137.333L117.333 137.667L116.667 137.333M120 137L121 138L120 137M126 137L127 138L126 137M131 137L132 138L131 137M144.333 137.667L144.667 138.333L144.333 137.667M4.33333 138.667L4.66667 139.333L4.33333 138.667M35 138L36 139L35 138M62 138L63 139L62 138M65 138L66 139L65 138z"/>
<path style="fill:#7c817f; stroke:none;" d="M73 138L74 139L73 138z"/>
<path style="fill:#afafaf; stroke:none;" d="M100 138L101 139L100 138M124 138L125 139L124 138M132 138L133 139L132 138z"/>
<path style="fill:#7c817f; stroke:none;" d="M145 138L146 139L145 138z"/>
<path style="fill:#afafaf; stroke:none;" d="M159 138L160 139L159 138M162 138L163 139L162 138M189 138L190 139L189 138M220.333 138.667L220.667 139.333L220.333 138.667M33.3333 139.667L33.6667 140.333L33.3333 139.667M102.667 139.333L103.333 139.667L102.667 139.333M122 139L123 140L122 139M133 139L133 140L136 141L133 139z"/>
<path style="fill:#7c817f; stroke:none;" d="M146 139L148 141L146 139z"/>
<path style="fill:#afafaf; stroke:none;" d="M147 139L148 140L147 139M191.333 139.667L191.667 140.333L191.333 139.667M7.33333 140.667L7.66667 141.333L7.33333 140.667M66 140L67 141L66 140M105 140L105 143L107 142L107 141L105 140M118.667 140.333L119.333 140.667L118.667 140.333z"/>
<path style="fill:#7c817f; stroke:none;" d="M134 140L135 141L134 140z"/>
<path style="fill:#afafaf; stroke:none;" d="M148 140L150 143L148 140M158 140L159 141L158 140M217.333 140.667L217.667 141.333L217.333 140.667M36 141L37 142L36 141M64 141L65 142L64 141z"/>
<path style="fill:#7c817f; stroke:none;" d="M135 141L138 144L135 141z"/>
<path style="fill:#afafaf; stroke:none;" d="M160 141L161 142L160 141M188 141L189 142L188 141M5 142L6 143L5 142M34 142L35 143L34 142M117 142L118 145L119 145L119 142L117 142M135 142L136 143L135 142z"/>
<path style="fill:#7c817f; stroke:none;" d="M150 142L151 143L150 142z"/>
<path style="fill:#afafaf; stroke:none;" d="M190 142L191 143L190 142M219 142L220 143L219 142M65 143L66 144L65 143M68 143L69 144L68 143z"/>
<path style="fill:#7c817f; stroke:none;" d="M105.333 143.667L105.667 144.333L105.333 143.667z"/>
<path style="fill:#afafaf; stroke:none;" d="M136 143L137 144L136 143z"/>
<path style="fill:#7c817f; stroke:none;" d="M151 143L153 145L151 143z"/>
<path style="fill:#afafaf; stroke:none;" d="M152 143L153 144L152 143M156 143L157 144L156 143M159 143L160 144L159 143M8 144L9 145L8 144M37 144L38 145L37 144M66 144L67 145L66 144M137.667 144.333L138.333 144.667L137.667 144.333M153 144L153 146L155 146L153 144M158 144L159 145L158 144M187 144L188 145L187 144M216 144L217 145L216 144M6.33333 145.667L6.66667 146.333L6.33333 145.667M35 145L36 146L35 145M104 145L104 148L105 148L106 145L104 145z"/>
<path style="fill:#7c817f; stroke:none;" d="M118 145L118 148L119 148L118 145M138 145L139 146L138 145z"/>
<path style="fill:#afafaf; stroke:none;" d="M189 145L190 146L189 145M218.333 145.667L218.667 146.333L218.333 145.667M38 146L39 147L38 146z"/>
<path style="fill:#7c817f; stroke:none;" d="M139 146L141 148L139 146z"/>
<path style="fill:#afafaf; stroke:none;" d="M186 146L187 147L186 146M9 147L10 148L9 147M36 147L37 148L36 147M68 147L69 148L68 147M71 147L72 148L71 147M139 147L140 148L139 147M157 147L159 151L160 151L157 147M188 147L189 148L188 147M215 147L216 148L215 147M7.33333 148.667L7.66667 149.333L7.33333 148.667M39 148L40 149L39 148M69 148L70 149L69 148M72 148L73 149L72 148z"/>
<path style="fill:#7c817f; stroke:none;" d="M104.333 148.667L104.667 149.333L104.333 148.667z"/>
<path style="fill:#afafaf; stroke:none;" d="M118 148L119 151L120 151L120 148L118 148M140 148L143 150L140 148z"/>
<path style="fill:#d8b25e; stroke:none;" d="M156 148L153 151L153 152L172 169L176 163L156 148z"/>
<path style="fill:#7c817f; stroke:none;" d="M157 148L158 149L157 148z"/>
<path style="fill:#afafaf; stroke:none;" d="M185 148L186 149L185 148M217.333 148.667L217.667 149.333L217.333 148.667M37 149L38 150L37 149M73 149L74 150L73 149M187 149L188 150L187 149M10 150L11 151L10 150M40 150L41 151L40 150M103 150L103 152L105 150L103 150z"/>
<path style="fill:#7c817f; stroke:none;" d="M142 150L143 151L142 150M160 150L163 153L160 150z"/>
<path style="fill:#afafaf; stroke:none;" d="M161 150L162 151L161 150M184 150L185 151L184 150M214 150L215 151L214 150M8 151L9 152L8 151M38 151L39 152L38 151M75 151L76 152L75 151z"/>
<path style="fill:#7c817f; stroke:none;" d="M119.333 151.667L119.667 152.333L119.333 151.667M143 151L145 153L143 151z"/>
<path style="fill:#afafaf; stroke:none;" d="M162 151L163 152L162 151M186 151L187 152L186 151M216 151L217 152L216 151M41 152L42 153L41 152M76 152L77 153L76 152z"/>
<path style="fill:#7c817f; stroke:none;" d="M103.333 152.667L103.667 153.333L103.333 152.667z"/>
<path style="fill:#afafaf; stroke:none;" d="M143 152L144 153L143 152M163 152L165 155L163 152M183 152L184 153L183 152M11 153L12 154L11 153M39 153L40 154L39 153z"/>
<path style="fill:#fefefe; stroke:none;" d="M73 153L56 170L56 171C71.7404 186.054 89.9902 191.345 111 194L109.972 171.742L100.285 168.674L73 153z"/>
<path style="fill:#afafaf; stroke:none;" d="M77 153L78 154L77 153M119 153L120 157L121 157L119 153M144 153L146 155L146 153L144 153z"/>
<path style="fill:#d8b25e; stroke:none;" d="M151 153L148 156L148 157L163 176L169 172C165.58 164.667 157.565 157.625 151 153z"/>
<path style="fill:#afafaf; stroke:none;" d="M185 153L186 154L185 153M213 153L214 154L213 153M9 154L10 155L9 154M102 154L102 157L103 157L104 154L102 154z"/>
<path style="fill:#7c817f; stroke:none;" d="M165 154L168 157L165 154z"/>
<path style="fill:#afafaf; stroke:none;" d="M166 154L167 155L166 154M215 154L216 155L215 154M12 155L13 156L12 155M43 155L44 156L43 155M76 155L77 156L76 155M167 155L168 156L167 155M181 155L182 156L181 155M212 155L213 156L212 155M10 156L11 157L10 156M41 156L42 157L41 156M77 156L78 157L77 156M81 156L82 157L81 156M143 156L144 157L143 156M168 156L168 158L170 158L168 156M183 156L184 157L183 156M214 156L215 157L214 156M13 157L14 158L13 157z"/>
<path style="fill:#7c817f; stroke:none;" d="M102.333 157.667L102.667 158.333L102.333 157.667M120.333 157.667L120.667 158.333L120.333 157.667z"/>
<path style="fill:#fefefe; stroke:none;" d="M146 157C137.741 163.837 124.844 169.879 114 170L114 194C126.999 192.357 139.246 190.448 151 184.218C153.908 182.677 160.703 179.828 160.808 175.907C160.914 171.925 155.166 166.939 152.88 164.001C150.769 161.286 148.762 159.034 146 157z"/>
<path style="fill:#afafaf; stroke:none;" d="M147 157L151 160L151 159L147 157z"/>
<path style="fill:#7c817f; stroke:none;" d="M148 157L149 158L148 157z"/>
<path style="fill:#afafaf; stroke:none;" d="M211 157L212 158L211 157M42 158L43 159L42 158M45 158L46 159L45 158M80 158L81 159L80 158M84 158L85 159L84 158M140 158L141 159L140 158M144 158L145 159L144 158z"/>
<path style="fill:#7c817f; stroke:none;" d="M170 158L173 161L170 158z"/>
<path style="fill:#afafaf; stroke:none;" d="M171 158L172 159L171 158M179 158L180 159L179 158M182 158L183 159L182 158M14 159L15 160L14 159M81 159L82 160L81 159M86 159L87 160L86 159M101 159L101 161L103 159L101 159M120 159L121 162L122 162L122 159L120 159M138 159L139 160L138 159M143 159L144 160L143 159M172 159L173 160L172 159M210 159L211 160L210 159M83 160L84 161L83 160M88 160L89 161L88 160M136 160L137 161L136 160M141 160L142 161L141 160z"/>
<path style="fill:#7c817f; stroke:none;" d="M150 160L151 161L150 160z"/>
<path style="fill:#afafaf; stroke:none;" d="M173.333 160.667L173.667 161.333L173.333 160.667M12 161L13 162L12 161M15 161L16 162L15 161M44 161L45 162L44 161M47 161L48 162L47 161M90 161L91 162L90 161z"/>
<path style="fill:#7c817f; stroke:none;" d="M101.333 161.667L101.667 162.333L101.333 161.667z"/>
<path style="fill:#afafaf; stroke:none;" d="M134 161L135 162L134 161z"/>
<path style="fill:#7c817f; stroke:none;" d="M151 161L153 163L151 161M174 161L175 162L174 161z"/>
<path style="fill:#afafaf; stroke:none;" d="M177 161L178 162L177 161M180 161L181 162L180 161M209 161L210 162L209 161M212 161L213 162L212 161M45 162L46 163L45 162M48 162L49 163L48 162M86 162L87 163L86 162M92 162L93 163L92 162z"/>
<path style="fill:#7c817f; stroke:none;" d="M121 162L121 165L122 165L121 162z"/>
<path style="fill:#afafaf; stroke:none;" d="M132 162L133 163L132 162M138 162L139 163L138 162M151 162L152 163L151 162z"/>
<path style="fill:#7c817f; stroke:none;" d="M175 162L176 163L175 162z"/>
<path style="fill:#afafaf; stroke:none;" d="M176 162L177 163L176 162M179 162L180 163L179 162M13 163L14 164L13 163M16 163L17 164L16 163M88 163L89 164L88 163M95 163L96 164L95 163M100 163L100 165L102 163L100 163M129 163L130 164L129 163M136 163L137 164L136 163M152 163L155 165L152 163M208 163L209 164L208 163M211 163L212 164L211 163M91 164L92 165L91 164M98 164L99 165L98 164M126 164L127 165L126 164M133 164L134 165L133 164M178.333 164.667L178.667 165.333L178.333 164.667M17 165L18 166L17 165M93.6667 165.333L94.3333 165.667L93.6667 165.333M121.667 165.333L122.333 165.667L121.667 165.333M130.667 165.333L131.333 165.667L130.667 165.333z"/>
<path style="fill:#7c817f; stroke:none;" d="M154 165L157 168L154 165z"/>
<path style="fill:#d8b25e; stroke:none;" d="M177 165C171.75 172.781 177.007 177.383 184 171L177 165z"/>
<path style="fill:#7c817f; stroke:none;" d="M179 165L180 166L179 165z"/>
<path style="fill:#afafaf; stroke:none;" d="M207 165L208 166L207 165M15 166L16 167L15 166M48 166L49 167L48 166M51 166L52 167L51 166M96.6667 166.333L97.3333 166.667L96.6667 166.333M127.667 166.333L128.333 166.667L127.667 166.333M154 166L155 167L154 166z"/>
<path style="fill:#7c817f; stroke:none;" d="M180 166L182 168L180 166z"/>
<path style="fill:#afafaf; stroke:none;" d="M181 166L182 167L181 166M209 166L210 167L209 166M18 167L19 168L18 167M49 167L50 168L49 167M52 167L53 168L52 167M99.3333 167.667L99.6667 168.333L99.3333 167.667M123.667 167.333L124.333 167.667L123.667 167.333M155 167L156 168L155 167M182 167L184 170L182 167M206 167L207 168L206 167M16 168L17 169L16 168M50 168L51 169L50 168M53 168L54 169L53 168M121 168L119 169L119 170L121 168M156 168L159 170L156 168M208 168L209 169L208 168M100 169L100 170L104 170L100 169z"/>
<path style="fill:#7c817f; stroke:none;" d="M104 169L104 170L108 170L104 169z"/>
<path style="fill:#afafaf; stroke:none;" d="M108 169L111 171L108 169M114 169L115 170L114 169z"/>
<path style="fill:#7c817f; stroke:none;" d="M115 169L115 170L119 170L115 169M184 169L182 173L184 169z"/>
<path style="fill:#afafaf; stroke:none;" d="M17 170L18 171L17 170M20 170L21 171L20 170z"/>
<path style="fill:#7c817f; stroke:none;" d="M158 170L161 173L158 170z"/>
<path style="fill:#afafaf; stroke:none;" d="M204 170L205 171L204 170M207 170L208 171L207 170M56 171L57 172L56 171M111 171L111 194L112 194L111 171M113 171L113 194L114 194L113 171M158 171L159 172L158 171M184 171L185 172L184 171M21 172L22 173L21 172M57 172L58 173L57 172M159 172L160 173L159 172M183 172L184 173L183 172M203 172L204 173L203 172M19 173L20 174L19 173M22 173L23 174L22 173z"/>
<path style="fill:#fefefe; stroke:none;" d="M111 221L111 196C96.8806 195.998 83.203 192.132 71 184.988C66.8024 182.531 57.8922 173.064 53 174.342C48.8875 175.416 37.1737 186.399 38.3457 190.985C39.5466 195.684 47.2519 199.803 51 202.329C68.6486 214.219 89.6932 220.998 111 221z"/>
<path style="fill:#afafaf; stroke:none;" d="M58 173L59 174L58 173M160.667 173.333L161.333 173.667L160.667 173.333z"/>
<path style="fill:#d8b25e; stroke:none;" d="M165 177L170 184L171 184L177 177C172.048 173.943 169.897 173.696 165 177z"/>
<path style="fill:#afafaf; stroke:none;" d="M179 178L183 173L179 178M202 173L203 174L202 173M205 173L206 174L205 173M56 174L57 175L56 174z"/>
<path style="fill:#7c817f; stroke:none;" d="M161 174L162 175L161 174z"/>
<path style="fill:#afafaf; stroke:none;" d="M57 175L58 176L57 175z"/>
<path style="fill:#7c817f; stroke:none;" d="M162 175L163 176L162 175z"/>
<path style="fill:#afafaf; stroke:none;" d="M21 176L22 177L21 176M24 176L25 177L24 176M58 176L59 177L58 176M62 176L63 177L62 176M162 176L163 177L162 176M200 176L201 177L200 176M203 176L204 177L203 176M22 177L23 178L22 177M63 177L64 178L63 177M161 177L162 178L161 177M202 177L203 178L202 177M164.667 178.333L165.333 178.667L164.667 178.333M176 178L171 185L178 179L176 178M62 179L63 180L62 179M66 179L67 180L66 179M158 179L159 180L158 179M162 179L161 181L162 179z"/>
<path style="fill:#fefefe; stroke:none;" d="M114 196L114 221C134.419 220.998 154.88 214.796 172 203.655C175.88 201.13 188.081 194.694 186.654 188.999C183.388 175.967 171.107 186.661 165 179C147.034 185.81 134.35 195.998 114 196z"/>
<path style="fill:#7c817f; stroke:none;" d="M165 179L166 180L165 179z"/>
<path style="fill:#afafaf; stroke:none;" d="M24 180L25 181L24 180M27 180L28 181L27 180M63 180L64 181L63 180z"/>
<path style="fill:#7c817f; stroke:none;" d="M166 180L168 182L166 180z"/>
<path style="fill:#afafaf; stroke:none;" d="M197 180L198 181L197 180M200 180L201 181L200 180M25 181L26 182L25 181M28 181L29 182L28 181M69 181L70 182L69 181M155 181L156 182L155 181M166 181L167 182L166 181M196 181L197 182L196 181M199 181L200 182L199 181M66 182L67 183L66 182M158 182L159 183L158 182M167 182L170 184L167 182z"/>
<path style="fill:#7c817f; stroke:none;" d="M172 182L173 183L172 182z"/>
<path style="fill:#afafaf; stroke:none;" d="M68 183L69 184L68 183M72 183L73 184L72 183M152 183L153 184L152 183M156 183L157 184L156 183z"/>
<path style="fill:#7c817f; stroke:none;" d="M171 183L172 184L171 183z"/>
<path style="fill:#afafaf; stroke:none;" d="M74 184L75 185L74 184M150 184L151 185L150 184M155 184L156 185L155 184z"/>
<path style="fill:#7c817f; stroke:none;" d="M169.667 184.333L170.333 184.667L169.667 184.333z"/>
<path style="fill:#afafaf; stroke:none;" d="M28 185L29 186L28 185M71 185L72 186L71 185M76 185L77 186L76 185M148 185L149 186L148 185M153 185L154 186L153 185M196 185L197 186L196 185M29 186L30 187L29 186M32 186L33 187L32 186M73 186L74 187L73 186M78 186L79 187L78 186M146 186L147 187L146 186M151 186L152 187L151 186M192 186L193 187L192 186M195 186L196 187L195 186M30 187L31 188L30 187M33 187L34 188L33 187M75 187L76 188L75 187M80.6667 187.333L81.3333 187.667L80.6667 187.333M144 187L145 188L144 187M149 187L150 188L149 187M191 187L192 188L191 187M194 187L195 188L194 187M31 188L32 189L31 188M34 188L35 189L34 188M77 188L78 189L77 188M83 188L84 189L83 188M141 188L142 189L141 188M147 188L148 189L147 188M190 188L191 189L190 188M193 188L194 189L193 188M32 189L33 190L32 189M79 189L80 190L79 189M86 189L87 190L86 189M138 189L139 190L138 189M145 189L146 190L145 189M192 189L193 190L192 189M33 190L34 191L33 190M36 190L37 191L36 190M82 190L83 191L82 190M89 190L90 191L89 190M135 190L136 191L135 190M142 190L143 191L142 190M188 190L189 191L188 190M191 190L192 191L191 190M34 191L35 192L34 191M37 191L38 192L37 191M84.6667 191.333L85.3333 191.667L84.6667 191.333M92.6667 191.333L93.3333 191.667L92.6667 191.333M131.667 191.333L132.333 191.667L131.667 191.333M139.667 191.333L140.333 191.667L139.667 191.333M187 191L188 192L187 191M190 191L191 192L190 191M35 192L36 193L35 192M38 192L39 193L38 192M87.6667 192.333L88.3333 192.667L87.6667 192.333M97.6667 192.333L98.3333 192.667L97.6667 192.333M126.667 192.333L127.333 192.667L126.667 192.333M136.667 192.333L137.333 192.667L136.667 192.333M186 192L187 193L186 192M189 192L190 193L189 192M36 193L37 194L36 193M91 193L92 194L91 193M103 193L103 194L108 194L103 193M117 193L117 194L122 194L117 193M133 193L134 194L133 193M188 193L189 194L188 193M37 194L38 195L37 194M95.6667 194.333L96.3333 194.667L95.6667 194.333M128.667 194.333L129.333 194.667L128.667 194.333M187 194L188 195L187 194M38 195L39 196L38 195M100 195L100 196L104 196L100 195M121 195L121 196L125 196L121 195M186 195L187 196L186 195M39 196L40 197L39 196M43 196L44 197L43 196M111 196L111 221L112 221L111 196M113 196L113 221L114 221L113 196M181 196L182 197L181 196M185 196L186 197L185 196M44 197L45 198L44 197M180 197L181 198L180 197M43 199L44 200L43 199M181 199L182 200L181 199M44 200L45 201L44 200M48 200L49 201L48 200M176 200L177 201L176 200M180 200L181 201L180 200M47 202L48 203L47 202M51 202L52 203L51 202M173 202L174 203L173 202M177 202L178 203L177 202M48 203L49 204L48 203M52 203L53 204L52 203M172 203L173 204L172 203M176 203L177 204L176 203M54 204L55 205L54 204M170 204L171 205L170 204M51 205L52 206L51 205M173 205L174 206L173 205M57 206L58 207L57 206M167 206L168 207L167 206M54 207L55 208L54 207M59 207L60 208L59 207M165 207L166 208L165 207M170 207L171 208L170 207M56 208L57 209L56 208M61 208L62 209L61 208M163 208L164 209L163 208M168 208L169 209L168 208M58 209L59 210L58 209M63 209L64 210L63 209M161 209L162 210L161 209M166 209L167 210L166 209M65 210L66 211L65 210M159 210L160 211L159 210M61 211L62 212L61 211M67 211L68 212L67 211M157 211L158 212L157 211M163 211L164 212L163 211M63 212L64 213L63 212M69 212L70 213L69 212M155 212L156 213L155 212M161 212L162 213L161 212M71 213L72 214L71 213M153 213L154 214L153 213M68 214L69 215L68 214M74 214L75 215L74 214M150 214L151 215L150 214M156 214L157 215L156 214M70 215L71 216L70 215M77 215L78 216L77 215M147 215L148 216L147 215M154 215L155 216L154 215M73 216L74 217L73 216M80 216L81 217L80 216M144 216L145 217L144 216M151 216L152 217L151 216M75.6667 217.333L76.3333 217.667L75.6667 217.333M83.6667 217.333L84.3333 217.667L83.6667 217.333M140.667 217.333L141.333 217.667L140.667 217.333M148.667 217.333L149.333 217.667L148.667 217.333M78.6667 218.333L79.3333 218.667L78.6667 218.333M87.6667 218.333L88.3333 218.667L87.6667 218.333M136.667 218.333L137.333 218.667L136.667 218.333M145.667 218.333L146.333 218.667L145.667 218.333M82 219L83 220L82 219M91 219L91 220L94 220L91 219M131 219L131 220L134 220L131 219M142 219L143 220L142 219M85.6667 220.333L86.3333 220.667L85.6667 220.333M97 220L97 221L101 221L97 220M124 220L124 221L128 221L124 220M138.667 220.333L139.333 220.667L138.667 220.333M90.6667 221.333L91.3333 221.667L90.6667 221.333M109.667 221.333L110.333 221.667L109.667 221.333M114.667 221.333L115.333 221.667L114.667 221.333M133.667 221.333L134.333 221.667L133.667 221.333M95 222L95 223L98 223L95 222M127 222L127 223L130 223L127 222M103 223L103 224L122 224L103 223z"/>
</svg>
