<?xml version="1.0" standalone="yes"?>
<svg xmlns="http://www.w3.org/2000/svg" width="284" height="177">
<path style="fill:#ffffff; stroke:none;" d="M0 0L0 177L284 177L284 0L0 0z"/>
<path style="fill:#afc2d0; stroke:none;" d="M170 9L170 10L174 10L170 9z"/>
<path style="fill:#5383a1; stroke:none;" d="M193 68L194 68C195.81 74.1499 199.277 79.006 205 82L194 61C189.625 64.8212 189.047 69.4083 189 75C176.563 68.4938 186.871 55.4061 184.4 46C181.382 34.5134 171.214 24.4404 169 13C174.506 13.4844 178.01 16.2683 183 18.1582C198.926 24.1899 210.497 28.4549 220.289 44C225.134 51.6899 226.788 61.8486 232.637 68.8557C238.436 75.8018 249.783 76.4776 256 84L241 86C243.269 95.4662 255.186 99.6669 263 104L246 90L246 88L260 85C254.076 75.1929 242.183 74.1258 235.637 65.8951C230.873 59.9047 229.056 51.7419 225.627 45C220.163 34.2594 209.877 24.2048 199 18.9846C192.422 15.8274 182.048 11.8779 175 10.3912C172.063 9.77162 168.051 9.85295 166.785 13.1481C164.52 19.0478 172.23 25.1354 174.366 30C176.573 35.0258 181.168 42.7074 181.771 48C182.631 55.5551 178.652 62.0994 181.225 70C184.807 81.0038 192.217 77.8276 193 68z"/>
<path style="fill:#afc2d0; stroke:none;" d="M176 10L177 11L176 10M178 11L179 12L178 11M166 12L167 13L166 12M180 12L181 13L180 12M169 13L170 14L169 13M173 13L174 14L173 13M182 13L183 14L182 13M176 14L177 15L176 14M183 14L184 15L183 14M178 15L179 16L178 15z"/>
<path style="fill:#ffd3a2; stroke:none;" d="M169 16L170 17L169 16z"/>
<path style="fill:#afc2d0; stroke:none;" d="M191.667 16.3333L192.333 16.6667L191.667 16.3333M166 17L167 18L166 17M181 17L182 18L181 17M195 17L196 18L195 17z"/>
<path style="fill:#ffd3a2; stroke:none;" d="M196 17L197 18L196 17z"/>
<path style="fill:#afc2d0; stroke:none;" d="M170 18L171 19L170 18M182 18L183 19L182 18M198 18L199 19L198 18M167 19L168 20L167 19M184 19L184 20L191 20L184 19M200 19L201 20L200 19M193 20L194 21L193 20M201 20L202 21L201 20M172 21L173 22L172 21M195 21L196 22L195 21M203 21L204 22L203 21M173 22L174 23L173 22M197 22L198 23L197 22M170 23L171 24L170 23M199 23L200 24L199 23M206 23L207 24L206 23M201 24L202 25L201 24M207 24L208 25L207 24M175 25L176 26L175 25z"/>
<path style="fill:#ffd3a2; stroke:none;" d="M185 26L186 27L185 26z"/>
<path style="fill:#5383a1; stroke:none;" d="M186 26L189 32C190.241 28.7363 189.231 27.07 186 26z"/>
<path style="fill:#afc2d0; stroke:none;" d="M204 26L205 27L204 26M210 26L211 27L210 26M173 27L174 28L173 27M176 27L177 28L176 27M186 27L187 28L186 27M205 27L206 28L205 27M211 27L212 28L211 27M187 28L188 29L187 28M190 28L190 31L191 31L190 28M212 28L213 29L212 28M174.333 29.6667L174.667 30.3333L174.333 29.6667M177 29L178 30L177 29M213 29L214 30L213 29M188 30L189 31L188 30M209 30L210 31L209 30M214 30L215 31L214 30M210 31L211 32L210 31M215 31L216 32L215 31M178.333 32.6667L178.667 33.3333L178.333 32.6667M211 32L212 33L211 32M216 32L217 33L216 32M175 33L176 34L175 33M212 33L213 34L212 33M217 33L218 34L217 33M213 34L214 35L213 34M218 34L219 35L218 34M179.333 35.6667L179.667 36.3333L179.333 35.6667M176 36L177 37L176 36M177 38L178 39L177 38M180 38L181 39L180 38M216 38L217 39L216 38M221 38L222 39L221 38M217 39L218 40L217 39M181 40L182 41L181 40M223 41L224 42L223 41M179 42L180 43L179 42M182 42L183 43L182 42M219 42L220 43L219 42M183 43L184 44L183 43M180 44L181 45L180 44M184 44L185 45L184 44z"/>
<path style="fill:#ffd3a2; stroke:none;" d="M220 44L221 45L220 44z"/>
<path style="fill:#afc2d0; stroke:none;" d="M225 44L226 45L225 44M181 45L182 46L181 45M221 45L222 46L221 45M182.333 46.6667L182.667 47.3333L182.333 46.6667M185.333 46.6667L185.667 47.3333L185.333 46.6667M226 46L227 47L226 46M222 47L223 48L222 47z"/>
<path style="fill:#ffd3a2; stroke:none;" d="M181 49L182 50L181 49z"/>
<path style="fill:#afc2d0; stroke:none;" d="M227 49L228 50L227 49M181.333 50.6667L181.667 51.3333L181.333 50.6667M184 50L185 51L184 50M223 50L224 51L223 50M228 51L229 52L228 51M224 52L225 53L224 52z"/>
<path style="fill:#ffd3a2; stroke:none;" d="M180 53L181 54L180 53z"/>
<path style="fill:#afc2d0; stroke:none;" d="M183 53L184 54L183 53z"/>
<path style="fill:#ffd3a2; stroke:none;" d="M229 53L230 54L229 53z"/>
<path style="fill:#afc2d0; stroke:none;" d="M180.333 54.6667L180.667 55.3333L180.333 54.6667z"/>
<path style="fill:#ffd3a2; stroke:none;" d="M183 54L184 55L183 54z"/>
<path style="fill:#afc2d0; stroke:none;" d="M225 54L226 55L225 54M226 56L227 57L226 56M230 56L231 57L230 56M182 58L182 64L183 64L182 58M231 58L232 59L231 58z"/>
<path style="fill:#ffd3a2; stroke:none;" d="M227 59L228 60L227 59M179.333 60.6667L179.667 61.3333L179.333 60.6667z"/>
<path style="fill:#afc2d0; stroke:none;" d="M232 60L233 61L232 60M192 61L193 62L192 61M228 61L229 62L228 61M233 62L234 63L233 62M194 63L195 64L194 63M229 63L230 64L229 63M190 64L191 65L190 64M234 64L235 65L234 64M195 65L196 66L195 65M230 65L231 66L230 65M189.333 66.6667L189.667 67.3333L189.333 66.6667M235 66L236 67L235 66M180.333 67.6667L180.667 68.3333L180.333 67.6667M183.333 67.6667L183.667 68.3333L183.333 67.6667M196 67L197 68L196 67M231 67L232 68L231 67M193 68L194 69L193 68M237 68L238 69L237 68z"/>
<path style="fill:#ffd3a2; stroke:none;" d="M197 69L198 70L197 69M232 69L233 70L232 69z"/>
<path style="fill:#afc2d0; stroke:none;" d="M239 69L240 70L239 69M194 70L195 71L194 70M233 70L234 71L233 70M241 70L242 71L241 70z"/>
<path style="fill:#ffd3a2; stroke:none;" d="M242 70L243 71L242 70z"/>
<path style="fill:#afc2d0; stroke:none;" d="M181 71L182 72L181 71M184 71L185 72L184 71z"/>
<path style="fill:#ffd3a2; stroke:none;" d="M188 71L189 72L188 71z"/>
<path style="fill:#afc2d0; stroke:none;" d="M198 71L199 72L198 71z"/>
<path style="fill:#ffd3a2; stroke:none;" d="M234 71L235 72L234 71z"/>
<path style="fill:#afc2d0; stroke:none;" d="M244 71L245 72L244 71M188 72L188 75L189 75L188 72M192 72L192 75L193 75L192 72M195 72L196 73L195 72M237.667 72.3333L238.333 72.6667L237.667 72.3333M182 73L183 74L182 73M185 73L186 74L185 73M199 73L200 74L199 73M240 73L241 74L240 73M247 73L248 74L247 73M186 74L187 75L186 74z"/>
<path style="fill:#ffd3a2; stroke:none;" d="M196 74L197 75L196 74z"/>
<path style="fill:#afc2d0; stroke:none;" d="M243 74L244 75L243 74M183 75L184 76L183 75M197 75L198 76L197 75M200 75L201 76L200 75M245 75L246 76L245 75M250 75L251 76L250 75M184 76L185 77L184 76z"/>
<path style="fill:#ffd3a2; stroke:none;" d="M201 76L202 77L201 76z"/>
<path style="fill:#afc2d0; stroke:none;" d="M185 77L186 78L185 77M248 77L249 78L248 77M187 78L187 79L190 79L187 78M202 78L203 79L202 78M249 78L250 79L249 78M254 78L255 79L254 78z"/>
<path style="fill:#ffd3a2; stroke:none;" d="M203 79L204 80L203 79z"/>
<path style="fill:#afc2d0; stroke:none;" d="M251 79L252 80L251 79M255 79L256 80L255 79M252 80L253 81L252 80M203 81L204 82L203 81M254 81L255 82L254 81M204 82L209 86L204 82M255 82L250 83L250 84L255 82M258 82L259 83L258 82M259 83L260 84L259 83M245.667 84.3333L246.333 84.6667L245.667 84.3333z"/>
<path style="fill:#ffd3a2; stroke:none;" d="M207 85L208 86L207 85z"/>
<path style="fill:#afc2d0; stroke:none;" d="M242 85L243 86L242 85M258.667 85.3333L259.333 85.6667L258.667 85.3333z"/>
<path style="fill:#ffd3a2; stroke:none;" d="M209 86L210 87L209 86z"/>
<path style="fill:#afc2d0; stroke:none;" d="M240 86L241 87L240 86M252 86L252 87L256 87L252 86z"/>
<path style="fill:#ffd3a2; stroke:none;" d="M240 87L241 88L240 87z"/>
<path style="fill:#afc2d0; stroke:none;" d="M248.667 87.3333L249.333 87.6667L248.667 87.3333M241 89L242 90L241 89M246 89L247 90L246 89M242 90L243 91L242 90M247 90L248 91L247 90M250 92L251 93L250 92M245 93L246 94L245 93M252 93L253 94L252 93M246 94L247 95L246 94M255 95L256 96L255 95M249 96L250 97L249 96M256 96L257 97L256 96M251 97L252 98L251 97M257 97L258 98L257 97M253 98L254 99L253 98M258 98L259 99L258 98M255 99L256 100L255 99M259 99L260 100L259 99M257 100L258 101L257 100z"/>
<path style="fill:#ffd3a2; stroke:none;" d="M140 101L140 102L143 102L140 101z"/>
<path style="fill:#ffa519; stroke:none;" d="M130 148C127.679 161.926 156.752 158.324 160.991 147.996C169.606 127.005 138.785 130.011 138.377 115.003C138.032 102.351 155.863 112.779 159 105C147.232 98.8303 122.647 102.11 129.894 120.999C133.387 130.106 145.062 130.924 150.681 138.043C161.787 152.113 136.011 149.64 130 148z"/>
<path style="fill:#ffd3a2; stroke:none;" d="M148 101L148 102L151 102L148 101M183 101L183 102L186 102L183 101z"/>
<path style="fill:#ffa519; stroke:none;" d="M207 164L208 164L211 158L202 154C205.921 147.99 209.599 142.418 209.96 135C210.241 129.22 210.619 122.663 209.319 117C206.091 102.935 189.169 96.1671 177.004 104.653C164.474 113.393 162.165 141.807 173.468 152.468C179.859 158.495 186.966 155.696 194.576 157.062C199.049 157.866 203.411 161.393 207 164z"/>
<path style="fill:#ffd3a2; stroke:none;" d="M193 101L193 102L196 102L193 101z"/>
<path style="fill:#5383a1; stroke:none;" d="M29 102L25 156L33 156L35 113L36 113L49 156C62.0751 155.845 67.4174 124.163 70 113L71 113L73 156L82 156L78 102L67 102L54 142L44.3333 114L39.49 103.028L29 102z"/>
<path style="fill:#afc2d0; stroke:none;" d="M40 102L41 103L40 102z"/>
<path style="fill:#ffd3a2; stroke:none;" d="M137 102L138 103L137 102M153.667 102.333L154.333 102.667L153.667 102.333M180 102L181 103L180 102M197.667 102.333L198.333 102.667L197.667 102.333z"/>
<path style="fill:#ffa519; stroke:none;" d="M219 102L219 156L245 156L245 150L227 150L227 102L219 102z"/>
<path style="fill:#ffd3a2; stroke:none;" d="M227 102L227 150L228 150C228 136.474 232.209 114.414 227 102z"/>
<path style="fill:#afc2d0; stroke:none;" d="M260 102L261 103L260 102z"/>
<path style="fill:#ffd3a2; stroke:none;" d="M66 103L67 104L66 103M78 103L79 104L78 103M135 103L136 104L135 103M156 103L157 104L156 103M178 103L179 104L178 103M200 103L201 104L200 103z"/>
<path style="fill:#afc2d0; stroke:none;" d="M261 103L262 104L261 103z"/>
<path style="fill:#ffd3a2; stroke:none;" d="M41 104L42 105L41 104z"/>
<path style="fill:#afc2d0; stroke:none;" d="M66 104L67 105L66 104M78 104L78 108L79 108L78 104z"/>
<path style="fill:#ffd3a2; stroke:none;" d="M134 104L135 105L134 104M158 104L159 105L158 104M176 104L177 105L176 104z"/>
<path style="fill:#afc2d0; stroke:none;" d="M262.667 104.333L263.333 104.667L262.667 104.333M28 105L28 109L29 109L28 105M41 105L42 106L41 105z"/>
<path style="fill:#ffd3a2; stroke:none;" d="M159 105L160 106L159 105M175 105L176 106L175 105M65 106L66 107L65 106M174 106L175 107L174 106M42 107L43 108L42 107z"/>
<path style="fill:#afc2d0; stroke:none;" d="M65 107L66 108L65 107z"/>
<path style="fill:#ffd3a2; stroke:none;" d="M131 107L132 108L131 107M145 107L145 108L149 108L145 107M158 107L159 108L158 107M173 107L174 108L173 107z"/>
<path style="fill:#afc2d0; stroke:none;" d="M42 108L43 109L42 108z"/>
<path style="fill:#ffd3a2; stroke:none;" d="M130 108L131 109L130 108M153 108L154 109L153 108M172 108L173 109L172 108M184 108L185 109L184 108z"/>
<path style="fill:#ffffff; stroke:none;" d="M185.004 108.573C169.586 112.982 172.175 156.048 192.96 149.486C207.276 144.966 204.724 102.935 185.004 108.573z"/>
<path style="fill:#ffd3a2; stroke:none;" d="M192.667 108.333L193.333 108.667L192.667 108.333M64 109L65 110L64 109M140 109L141 110L140 109M156.667 109.333L157.333 109.667L156.667 109.333M206 109L207 110L206 109M43 110L44 111L43 110z"/>
<path style="fill:#afc2d0; stroke:none;" d="M64 110L65 111L64 110z"/>
<path style="fill:#ffd3a2; stroke:none;" d="M129.333 110.667L129.667 111.333L129.333 110.667M139 110L140 111L139 110M196 110L197 111L196 110z"/>
<path style="fill:#afc2d0; stroke:none;" d="M43 111L44 112L43 111z"/>
<path style="fill:#ffd3a2; stroke:none;" d="M138 111L139 112L138 111M170 111L171 112L170 111M207 111L208 112L207 111M63 112L64 113L63 112M79 112L80 113L79 112z"/>
<path style="fill:#afc2d0; stroke:none;" d="M35 113L36 114L35 113z"/>
<path style="fill:#ffd3a2; stroke:none;" d="M44 113L45 114L44 113z"/>
<path style="fill:#afc2d0; stroke:none;" d="M63 113L64 114L63 113M70 113L71 114L70 113M79 113L79 117L80 117L79 113z"/>
<path style="fill:#ffd3a2; stroke:none;" d="M169 113L170 114L169 113M178 113L179 114L178 113M198 113L199 114L198 113M208 113L209 114L208 113z"/>
<path style="fill:#afc2d0; stroke:none;" d="M27 114L27 119L28 119L27 114M44 114L45 115L44 114z"/>
<path style="fill:#ffd3a2; stroke:none;" d="M70 114L71 115L70 114z"/>
<path style="fill:#afc2d0; stroke:none;" d="M36.3333 115.667L36.6667 116.333L36.3333 115.667z"/>
<path style="fill:#ffd3a2; stroke:none;" d="M62 115L63 116L62 115z"/>
<path style="fill:#afc2d0; stroke:none;" d="M69 115L70 116L69 115z"/>
<path style="fill:#ffd3a2; stroke:none;" d="M168.333 115.667L168.667 116.333L168.333 115.667M177.333 115.667L177.667 116.333L177.333 115.667M199 115L200 116L199 115z"/>
<path style="fill:#afc2d0; stroke:none;" d="M62 116L63 117L62 116M87 118L95 117L87 118z"/>
<path style="fill:#5383a1; stroke:none;" d="M95 116L88 117C90.0003 130.545 111.161 164.772 86 165L86 170C111.45 174.708 119.578 134.758 122 116L114 116L106 150L105 150C104.16 139.714 100.51 124.756 95 116z"/>
<path style="fill:#afc2d0; stroke:none;" d="M113 116L113 119L114 119L113 116M115 116L115 117L121 117L115 116z"/>
<path style="fill:#ffd3a2; stroke:none;" d="M209.333 116.667L209.667 117.333L209.333 116.667z"/>
<path style="fill:#afc2d0; stroke:none;" d="M45 117L46 118L45 117M96.3333 117.667L96.6667 118.333L96.3333 117.667z"/>
<path style="fill:#ffd3a2; stroke:none;" d="M138 117L139 118L138 117M61 118L62 119L61 118z"/>
<path style="fill:#afc2d0; stroke:none;" d="M68 118L69 119L68 118z"/>
<path style="fill:#ffd3a2; stroke:none;" d="M87 118L88 119L87 118M176 118L176 121L177 121L176 118M200.333 118.667L200.667 119.333L200.333 118.667z"/>
<path style="fill:#afc2d0; stroke:none;" d="M37 119L38 120L37 119M61 119L62 120L61 119M121.333 119.667L121.667 120.333L121.333 119.667z"/>
<path style="fill:#ffd3a2; stroke:none;" d="M139 119L140 120L139 119M167.333 119.667L167.667 120.333L167.333 119.667z"/>
<path style="fill:#afc2d0; stroke:none;" d="M34 120L34 128L35 128L34 120M46 120L47 121L46 120M88.3333 120.667L88.6667 121.333L88.3333 120.667z"/>
<path style="fill:#ffd3a2; stroke:none;" d="M129 120L130 121L129 120M140 120L141 121L140 120M60 121L61 122L60 121z"/>
<path style="fill:#afc2d0; stroke:none;" d="M67 121L68 122L67 121M71 121L71 126L72 126L71 121M97 121L98 122L97 121z"/>
<path style="fill:#ffd3a2; stroke:none;" d="M141 121L142 122L141 121M210 121L210 136L211 136L210 121z"/>
<path style="fill:#afc2d0; stroke:none;" d="M38 122L39 123L38 122M60 122L61 123L60 122z"/>
<path style="fill:#ffd3a2; stroke:none;" d="M67 122L68 123L67 122M80 122L81 123L80 122M112 122L113 123L112 122z"/>
<path style="fill:#afc2d0; stroke:none;" d="M47 123L48 124L47 123M80 123L80 128L81 128L80 123M89.3333 123.667L89.6667 124.333L89.3333 123.667M112.333 123.667L112.667 124.333L112.333 123.667z"/>
<path style="fill:#ffd3a2; stroke:none;" d="M144 123L145 124L144 123M26 124L27 125L26 124M59 124L60 125L59 124z"/>
<path style="fill:#afc2d0; stroke:none;" d="M66.3333 124.667L66.6667 125.333L66.3333 124.667M98 124L99 125L98 124M120.333 124.667L120.667 125.333L120.333 124.667z"/>
<path style="fill:#ffd3a2; stroke:none;" d="M131 124L132 125L131 124M146 124L147 125L146 124M201 124L201 135L202 135L201 124z"/>
<path style="fill:#afc2d0; stroke:none;" d="M26 125L26 131L27 131L26 125M39 125L40 126L39 125M59 125L60 126L59 125z"/>
<path style="fill:#ffd3a2; stroke:none;" d="M132 125L133 126L132 125M148 125L149 126L148 125M166 125L166 136L167 136L166 125z"/>
<path style="fill:#afc2d0; stroke:none;" d="M48 126L49 127L48 126M90.3333 126.667L90.6667 127.333L90.3333 126.667z"/>
<path style="fill:#ffd3a2; stroke:none;" d="M133 126L134 127L133 126M150 126L151 127L150 126M58 127L59 128L58 127z"/>
<path style="fill:#afc2d0; stroke:none;" d="M65.3333 127.667L65.6667 128.333L65.3333 127.667M99.3333 127.667L99.6667 128.333L99.3333 127.667z"/>
<path style="fill:#ffd3a2; stroke:none;" d="M175 127L175 130L176 130L175 127M34 128L35 129L34 128z"/>
<path style="fill:#afc2d0; stroke:none;" d="M40 128L41 129L40 128M58 128L59 129L58 128M111.333 128.667L111.667 129.333L111.333 128.667M119.333 128.667L119.667 129.333L119.333 128.667z"/>
<path style="fill:#ffd3a2; stroke:none;" d="M136 128L137 129L136 128M153 128L154 129L153 128M40 129L41 130L40 129z"/>
<path style="fill:#afc2d0; stroke:none;" d="M49 129L50 130L49 129z"/>
<path style="fill:#ffd3a2; stroke:none;" d="M138 129L139 130L138 129M155 129L156 130L155 129M57 130L58 131L57 130z"/>
<path style="fill:#afc2d0; stroke:none;" d="M64.3333 130.667L64.6667 131.333L64.3333 130.667M91 130L92 131L91 130M100.333 130.667L100.667 131.333L100.333 130.667M41.3333 131.667L41.6667 132.333L41.3333 131.667M57 131L58 132L57 131z"/>
<path style="fill:#ffd3a2; stroke:none;" d="M141 131L142 132L141 131z"/>
<path style="fill:#afc2d0; stroke:none;" d="M50 132L51 133L50 132M118.333 132.667L118.667 133.333L118.333 132.667z"/>
<path style="fill:#ffd3a2; stroke:none;" d="M143 132L144 133L143 132z"/>
<path style="fill:#afc2d0; stroke:none;" d="M92 133L93 134L92 133z"/>
<path style="fill:#ffd3a2; stroke:none;" d="M101 133L102 134L101 133z"/>
<path style="fill:#afc2d0; stroke:none;" d="M110.333 133.667L110.667 134.333L110.333 133.667z"/>
<path style="fill:#ffd3a2; stroke:none;" d="M145 133L146 134L145 133z"/>
<path style="fill:#afc2d0; stroke:none;" d="M42.3333 134.667L42.6667 135.333L42.3333 134.667M56 134L57 135L56 134M63 134L64 135L63 134M72 134L72 142L73 142L72 134M101 134L102 135L101 134z"/>
<path style="fill:#ffd3a2; stroke:none;" d="M147 134L148 135L147 134z"/>
<path style="fill:#afc2d0; stroke:none;" d="M51 135L52 136L51 135z"/>
<path style="fill:#ffd3a2; stroke:none;" d="M81 135L82 136L81 135M148 135L149 136L148 135M161 135L162 136L161 135z"/>
<path style="fill:#afc2d0; stroke:none;" d="M81 136L81 143L82 143L81 136M93 136L94 137L93 136M117.333 136.667L117.667 137.333L117.333 136.667M43.3333 137.667L43.6667 138.333L43.3333 137.667M55 137L56 138L55 137M62 137L63 138L62 137M102 137L103 138L102 137M109.333 137.667L109.667 138.333L109.333 137.667z"/>
<path style="fill:#ffd3a2; stroke:none;" d="M176 137L176 140L177 140L176 137z"/>
<path style="fill:#afc2d0; stroke:none;" d="M52 138L53 139L52 138z"/>
<path style="fill:#ffd3a2; stroke:none;" d="M162 138L162 145L163 145L162 138M25 139L26 140L25 139z"/>
<path style="fill:#afc2d0; stroke:none;" d="M94 139L95 140L94 139M116.333 139.667L116.667 140.333L116.333 139.667z"/>
<path style="fill:#ffd3a2; stroke:none;" d="M152 139L153 140L152 139M200.333 139.667L200.667 140.333L200.333 139.667M209.333 139.667L209.667 140.333L209.333 139.667z"/>
<path style="fill:#afc2d0; stroke:none;" d="M25 140L25 150L26 150L25 140M54 140L55 141L54 140M61 140L62 141L61 140M103.333 140.667L103.667 141.333L103.333 140.667z"/>
<path style="fill:#ffd3a2; stroke:none;" d="M108 140L109 141L108 140M167.333 140.667L167.667 141.333L167.333 140.667z"/>
<path style="fill:#afc2d0; stroke:none;" d="M33 141L33 156L34 156L33 141M44 141L45 142L44 141M53 141L54 142L53 141M108 141L109 142L108 141z"/>
<path style="fill:#ffd3a2; stroke:none;" d="M72 142L73 143L72 142z"/>
<path style="fill:#afc2d0; stroke:none;" d="M95 142L96 143L95 142M115.333 142.667L115.667 143.333L115.333 142.667z"/>
<path style="fill:#ffd3a2; stroke:none;" d="M177 142L178 143L177 142M199.333 142.667L199.667 143.333L199.333 142.667M208.333 142.667L208.667 143.333L208.333 142.667z"/>
<path style="fill:#afc2d0; stroke:none;" d="M60 143L61 144L60 143z"/>
<path style="fill:#ffd3a2; stroke:none;" d="M104 143L105 144L104 143z"/>
<path style="fill:#afc2d0; stroke:none;" d="M45 144L46 145L45 144M104.333 144.667L104.667 145.333L104.333 144.667M107 144L108 145L107 144z"/>
<path style="fill:#ffd3a2; stroke:none;" d="M168 144L169 145L168 144M178 144L179 145L178 144z"/>
<path style="fill:#afc2d0; stroke:none;" d="M96 145L97 146L96 145M114.333 145.667L114.667 146.333L114.333 145.667z"/>
<path style="fill:#ffd3a2; stroke:none;" d="M152 145L153 146L152 145M198 145L199 146L198 145M207 145L208 146L207 145z"/>
<path style="fill:#afc2d0; stroke:none;" d="M59 146L60 147L59 146z"/>
<path style="fill:#ffd3a2; stroke:none;" d="M179 146L180 147L179 146M197 146L198 147L197 146z"/>
<path style="fill:#afc2d0; stroke:none;" d="M46 147L47 148L46 147z"/>
<path style="fill:#ffd3a2; stroke:none;" d="M59 147L60 148L59 147z"/>
<path style="fill:#afc2d0; stroke:none;" d="M106 147L107 148L106 147z"/>
<path style="fill:#ffd3a2; stroke:none;" d="M151 147L152 148L151 147M161 147L162 148L161 147M169 147L170 148L169 147M180 147L181 148L180 147M206 147L207 148L206 147z"/>
<path style="fill:#afc2d0; stroke:none;" d="M97.3333 148.667L97.6667 149.333L97.3333 148.667M113 148L114 149L113 148z"/>
<path style="fill:#ffd3a2; stroke:none;" d="M132 148L133 149L132 148M150 148L151 149L150 148M181 148L182 149L181 148M195 148L196 149L195 148z"/>
<path style="fill:#afc2d0; stroke:none;" d="M58.3333 149.667L58.6667 150.333L58.3333 149.667M105 149L106 150L105 149z"/>
<path style="fill:#ffd3a2; stroke:none;" d="M129 149L130 150L129 149M134.667 149.333L135.333 149.667L134.667 149.333M148 149L149 150L148 149M160 149L161 150L160 149M183 149L184 150L183 149M194 149L195 150L194 149z"/>
<path style="fill:#afc2d0; stroke:none;" d="M47 150L48 151L47 150M112 150L113 151L112 150z"/>
<path style="fill:#ffd3a2; stroke:none;" d="M137 150L137 151L140 151L137 150M145.667 150.333L146.333 150.667L145.667 150.333M171 150L172 151L171 150M185 150L185 151L192 151L185 150M204 150L205 151L204 150z"/>
<path style="fill:#ffa519; stroke:none;" d="M249 150L249 151L251 156L252 156L254 151L249 150z"/>
<path style="fill:#ffd3a2; stroke:none;" d="M254 150L255 151L254 150z"/>
<path style="fill:#ffa519; stroke:none;" d="M256 150L256 156L257 156L257 152L258 152L261 156L256 150z"/>
<path style="fill:#ffd3a2; stroke:none;" d="M261 150L262 151L261 150z"/>
<path style="fill:#ffa519; stroke:none;" d="M262 150L261 153L262 150z"/>
<path style="fill:#ffd3a2; stroke:none;" d="M263 150L259 153L264 157L263 150M47 151L48 152L47 151z"/>
<path style="fill:#afc2d0; stroke:none;" d="M98.3333 151.667L98.6667 152.333L98.3333 151.667z"/>
<path style="fill:#ffd3a2; stroke:none;" d="M128.333 151.667L128.667 152.333L128.333 151.667M172 151L173 152L172 151M203 151L204 152L203 151M252 151L251 157L252 151M258 151L259 152L258 151z"/>
<path style="fill:#afc2d0; stroke:none;" d="M57.3333 152.667L57.6667 153.333L57.3333 152.667z"/>
<path style="fill:#ffd3a2; stroke:none;" d="M202.333 152.667L202.667 153.333L202.333 152.667M257 152L256 157L257 152z"/>
<path style="fill:#afc2d0; stroke:none;" d="M48.3333 153.667L48.6667 154.333L48.3333 153.667M111 153L112 154L111 153z"/>
<path style="fill:#ffd3a2; stroke:none;" d="M174 153L175 154L174 153M82.3333 154.667L82.6667 155.333L82.3333 154.667M131 154L132 155L131 154M155 154L156 155L155 154M175 154L176 155L175 154M204 154L205 155L204 154z"/>
<path style="fill:#afc2d0; stroke:none;" d="M56 155L49 156L49 157L57 156L56 155M110 155L111 156L110 155z"/>
<path style="fill:#ffd3a2; stroke:none;" d="M134 155L135 156L134 155M153 155L154 156L153 155M177 155L178 156L177 155M206 155L207 156L206 155z"/>
<path style="fill:#afc2d0; stroke:none;" d="M25 156L25 157L33 157L25 156z"/>
<path style="fill:#ffd3a2; stroke:none;" d="M56 156L57 157L56 156z"/>
<path style="fill:#afc2d0; stroke:none;" d="M73 156L73 157L82 157L73 156M99.3333 156.667L99.6667 157.333L99.3333 156.667z"/>
<path style="fill:#ffd3a2; stroke:none;" d="M136.667 156.333L137.333 156.667L136.667 156.333M150.667 156.333L151.333 156.667L150.667 156.333M180 156L181 157L180 156M194 156L195 157L194 156M208 156L209 157L208 156M219 156L219 157L245 157L219 156M259.667 156.333L260.333 156.667L259.667 156.333M141 157L141 158L147 158L141 157M184 157L184 158L192 158L184 157M196 157L197 158L196 157M210 157L211 158L210 157z"/>
<path style="fill:#afc2d0; stroke:none;" d="M108 158L109 159L108 158z"/>
<path style="fill:#ffd3a2; stroke:none;" d="M198 158L199 159L198 158M211 158L212 159L211 158M200 159L201 160L200 159z"/>
<path style="fill:#afc2d0; stroke:none;" d="M98 160L99 161L98 160M107 160L108 161L107 160z"/>
<path style="fill:#ffd3a2; stroke:none;" d="M210 160L211 161L210 160M97 161L98 162L97 161z"/>
<path style="fill:#afc2d0; stroke:none;" d="M106 161L107 162L106 161z"/>
<path style="fill:#ffd3a2; stroke:none;" d="M203 161L204 162L203 161M205 162L206 163L205 162z"/>
<path style="fill:#afc2d0; stroke:none;" d="M95 163L96 164L95 163z"/>
<path style="fill:#ffd3a2; stroke:none;" d="M208 163L209 164L208 163z"/>
<path style="fill:#afc2d0; stroke:none;" d="M93 164L94 165L93 164z"/>
<path style="fill:#ffd3a2; stroke:none;" d="M104 164L105 165L104 164z"/>
<path style="fill:#afc2d0; stroke:none;" d="M103 165L104 166L103 165M102 166L103 167L102 166M99 168L100 169L99 168M88 170L89 171L88 170M95 170L96 171L95 170z"/>
</svg>
