<?xml version="1.0" standalone="yes"?>
<svg xmlns="http://www.w3.org/2000/svg" width="194" height="259">
<path style="fill:#fefefe; stroke:none;" d="M0 0L0 259L194 259L194 0L0 0z"/>
<path style="fill:#fedd8f; stroke:none;" d="M161 182L161 181L139 181L139 28L161 28C157.077 26.354 140.826 24.8005 138.603 29.3179C134.702 37.247 138 54.1667 138 63L138 145L138 170C138 172.91 137.088 177.948 139.028 180.397C142.173 184.368 156.282 182 161 182z"/>
<path style="fill:#120654; stroke:none;" d="M139 28L139 181L161 181L161 28L139 28z"/>
<path style="fill:#fedd8f; stroke:none;" d="M68 86L69 86L69 40L91 40C87.1129 38.3689 71.9446 36.9206 69.0278 40.6034C66.8249 43.3847 68 49.6719 68 53L68 86z"/>
<path style="fill:#120654; stroke:none;" d="M69 40L69 86L91 86L91 40L69 40z"/>
<path style="fill:#fedd8f; stroke:none;" d="M33 77L33 78L55 78L55 231L33 231C36.9226 232.646 53.1738 234.199 55.3966 229.682C59.2982 221.753 56 204.833 56 196L56 114L56 89C56 86.0897 56.9117 81.0522 54.9722 78.6034C51.8269 74.6321 37.7176 77 33 77M103 124L104 124L104 78L126 78C122.113 76.3689 106.945 74.9206 104.028 78.6034C101.825 81.3847 103 87.6719 103 91L103 124z"/>
<path style="fill:#120654; stroke:none;" d="M33 78L33 231L55 231L55 78L33 78M104 78L104 124L126 124L126 78L104 78z"/>
<path style="fill:#fedd8f; stroke:none;" d="M69 99L69 100L91 100L69 99z"/>
<path style="fill:#ffca01; stroke:none;" d="M69 100L69 121L91 121L91 100L69 100z"/>
<path style="fill:#fedd8f; stroke:none;" d="M68 181L69 181L69 135L91 135C87.1129 133.369 71.9446 131.921 69.0278 135.603C66.8249 138.385 68 144.672 68 148L68 181z"/>
<path style="fill:#120654; stroke:none;" d="M69 135L69 181L91 181L91 135L69 135z"/>
<path style="fill:#fedd8f; stroke:none;" d="M126 160L126 159L104 159L104 138L126 138C121.921 136.288 108.284 135.112 104.603 138.028C101.61 140.399 101.61 156.601 104.603 158.972C108.741 162.249 120.868 160 126 160z"/>
<path style="fill:#e70488; stroke:none;" d="M104 138L104 159L126 159L126 138L104 138z"/>
<path style="fill:#fedd8f; stroke:none;" d="M103 219L104 219L104 173L126 173C122.113 171.369 106.945 169.921 104.028 173.603C101.825 176.385 103 182.672 103 186L103 219z"/>
<path style="fill:#120654; stroke:none;" d="M104 173L104 219L126 219L126 173L104 173z"/>
</svg>
