<?xml version="1.0" standalone="yes"?>
<svg xmlns="http://www.w3.org/2000/svg" width="225" height="225">
<path style="fill:#ffffff; stroke:none;" d="M0 0L0 225L225 225L225 0L0 0z"/>
<path style="fill:#eab4a9; stroke:none;" d="M110 37L110 38L114 38L110 37z"/>
<path style="fill:#f88561; stroke:none;" d="M90 42L90 44L78 48L75 50L58 66L58 67L101 67L116.397 68.6034L118 81L118 112L193 113C192.996 75.9549 166.581 42.9041 129 38.2863C114.987 36.5643 103.538 40.8819 90 42z"/>
<path style="fill:#eab4a9; stroke:none;" d="M118 37L118 38L126 38L118 37M103.667 38.3333L104.333 38.6667L103.667 38.3333z"/>
<path style="fill:#ca4826; stroke:none;" d="M107 38L107 39L110 39L107 38z"/>
<path style="fill:#eab4a9; stroke:none;" d="M130 38L130 39L133 39L130 38M99 39L100 40L99 39z"/>
<path style="fill:#ca4826; stroke:none;" d="M101.667 39.3333L102.333 39.6667L101.667 39.3333z"/>
<path style="fill:#eab4a9; stroke:none;" d="M136 39L137 40L136 39M95 40L96 41L95 40z"/>
<path style="fill:#ca4826; stroke:none;" d="M97.6667 40.3333L98.3333 40.6667L97.6667 40.3333z"/>
<path style="fill:#eab4a9; stroke:none;" d="M140 40L141 41L140 40M92 41L93 42L92 41z"/>
<path style="fill:#ca4826; stroke:none;" d="M94 41L95 42L94 41z"/>
<path style="fill:#eab4a9; stroke:none;" d="M143 41L144 42L143 41z"/>
<path style="fill:#ca4826; stroke:none;" d="M91 42L92 43L91 42z"/>
<path style="fill:#eab4a9; stroke:none;" d="M145 42L146 43L145 42M87 43L88 44L87 43z"/>
<path style="fill:#ca4826; stroke:none;" d="M89 43L90 44L89 43z"/>
<path style="fill:#eab4a9; stroke:none;" d="M148 43L149 44L148 43M85 44L86 45L85 44M150 44L151 45L150 44M83 45L84 46L83 45z"/>
<path style="fill:#ca4826; stroke:none;" d="M84 45L85 46L84 45z"/>
<path style="fill:#eab4a9; stroke:none;" d="M152 45L153 46L152 45M81 46L82 47L81 46z"/>
<path style="fill:#ca4826; stroke:none;" d="M82 46L83 47L82 46z"/>
<path style="fill:#eab4a9; stroke:none;" d="M154 46L155 47L154 46M156 47L157 48L156 47z"/>
<path style="fill:#ca4826; stroke:none;" d="M79 48L80 49L79 48z"/>
<path style="fill:#eab4a9; stroke:none;" d="M76 49L77 50L76 49z"/>
<path style="fill:#ca4826; stroke:none;" d="M77 49L78 50L77 49z"/>
<path style="fill:#eab4a9; stroke:none;" d="M159 49L160 50L159 49z"/>
<path style="fill:#ca4826; stroke:none;" d="M76 50L77 51L76 50M74 51L75 52L74 51z"/>
<path style="fill:#eab4a9; stroke:none;" d="M162 51L163 52L162 51M72 52L73 53L72 52z"/>
<path style="fill:#ca4826; stroke:none;" d="M73 52L74 53L73 52z"/>
<path style="fill:#eab4a9; stroke:none;" d="M166 54L167 55L166 54z"/>
<path style="fill:#ca4826; stroke:none;" d="M69 55L70 56L69 55z"/>
<path style="fill:#eab4a9; stroke:none;" d="M167 55L168 56L167 55M67 56L61 63L67 56z"/>
<path style="fill:#ca4826; stroke:none;" d="M68 56L69 57L68 56z"/>
<path style="fill:#eab4a9; stroke:none;" d="M168 56L169 57L168 56z"/>
<path style="fill:#ca4826; stroke:none;" d="M67 57L68 58L67 57z"/>
<path style="fill:#eab4a9; stroke:none;" d="M169 57L170 58L169 57z"/>
<path style="fill:#ca4826; stroke:none;" d="M66 58L67 59L66 58M65 59L66 60L65 59M64 60L65 61L64 60M63 61L64 62L63 61z"/>
<path style="fill:#eab4a9; stroke:none;" d="M173 61L174 62L173 61z"/>
<path style="fill:#ca4826; stroke:none;" d="M62 62L63 63L62 62z"/>
<path style="fill:#eab4a9; stroke:none;" d="M174 62L175 63L174 62z"/>
<path style="fill:#ca4826; stroke:none;" d="M61 63L62 64L61 63z"/>
<path style="fill:#eab4a9; stroke:none;" d="M175 63L176 64L175 63z"/>
<path style="fill:#ca4826; stroke:none;" d="M60 64L61 65L60 64z"/>
<path style="fill:#eab4a9; stroke:none;" d="M57 67L58 68L57 67z"/>
<path style="fill:#ca4826; stroke:none;" d="M110 72L110 71L118 75C117.876 64.5755 109.186 67 101 67C84.1302 67 68.7899 66.733 52.9105 70.6867C47.0595 72.1435 39.2399 68.9171 34.3179 73.5139C28.024 79.3918 32 102.756 32 111L32 139C32 142.689 31.1927 147.649 33.6034 150.772C37.3009 155.561 45.7152 154 51 154L96 154C101.066 154 108.796 155.245 112.397 150.721C115.653 146.63 114 137.926 114 133L114 89C114 83.2255 115.672 75.3135 110 72z"/>
<path style="fill:#eab4a9; stroke:none;" d="M178 67L179 68L178 67M179 68L180 69L179 68M55 70L56 71L55 70M36 71L37 72L36 71z"/>
<path style="fill:#f88561; stroke:none;" d="M37 71L38 72L37 71z"/>
<path style="fill:#83341f; stroke:none;" d="M110 71L110 72C115.265 76.6465 114 83.5132 114 90L114 134C114 139.908 115.698 148.389 109.941 152.142C105.31 155.161 98.2536 154 93 154L56 154L65 165L63 162L103 162C106.476 162 114.532 163.478 116.972 160.397C120.124 156.418 118 144.897 118 140L118 89C118 81.2259 119.454 72.9143 110 71z"/>
<path style="fill:#eab4a9; stroke:none;" d="M181 71L182 72L181 71z"/>
<path style="fill:#f88561; stroke:none;" d="M34 72L35 73L34 72M33 73L34 74L33 73z"/>
<path style="fill:#eab4a9; stroke:none;" d="M182 73L183 74L182 73M32 74L33 75L32 74M184 76L185 77L184 76M31 77L31 148L32 148L32 99L31 77M185 78L186 79L185 78M186 80L187 81L186 80M187 83L188 84L187 83M188 85L189 86L188 85M189 88L190 89L189 88z"/>
<path style="fill:#f88561; stroke:none;" d="M55 89L56 90L55 89z"/>
<path style="fill:#eab4a9; stroke:none;" d="M55 135L56 135L56 90L77 90C73.2017 88.4062 58.8931 86.9857 56.0278 90.6034C53.8249 93.3847 55 99.6719 55 103L55 135z"/>
<path style="fill:#f88561; stroke:none;" d="M77.6667 89.3333L78.3333 89.6667L77.6667 89.3333z"/>
<path style="fill:#ffffff; stroke:none;" d="M56 90L56 135L64 135L64 119C70.6869 119 78.0742 119.874 83.9568 116.005C91.573 110.997 92.4608 98.1484 84.956 92.6528C77.8247 87.4306 64.4122 90 56 90z"/>
<path style="fill:#f88561; stroke:none;" d="M81 90L82 91L81 90z"/>
<path style="fill:#eab4a9; stroke:none;" d="M83 91L84 92L83 91M190 91L191 92L190 91z"/>
<path style="fill:#f88561; stroke:none;" d="M85 92L86 93L85 92z"/>
<path style="fill:#eab4a9; stroke:none;" d="M86 93L87 94L86 93M87 94L88 95L87 94z"/>
<path style="fill:#f88561; stroke:none;" d="M88 95L89 96L88 95z"/>
<path style="fill:#eab4a9; stroke:none;" d="M191.333 95.6667L191.667 96.3333L191.333 95.6667M64 112L65 112L65 97L74 97C62.5657 92.2038 64 104.539 64 112z"/>
<path style="fill:#ca4826; stroke:none;" d="M65 97L65 112C70.8148 112 90.6282 106.04 77.7716 98.179C74.327 96.0728 68.8698 97 65 97z"/>
<path style="fill:#eab4a9; stroke:none;" d="M77 97L78 98L77 97M89 97L90 98L89 97z"/>
<path style="fill:#f88561; stroke:none;" d="M90 99L91 100L90 99z"/>
<path style="fill:#eab4a9; stroke:none;" d="M80 100L81 101L80 100M90 100L90 107L91 107L90 100M192 100L192 103L193 103L192 100z"/>
<path style="fill:#f88561; stroke:none;" d="M80 107L81 108L80 107M90 107L91 108L90 107z"/>
<path style="fill:#eab4a9; stroke:none;" d="M79 109L80 110L79 109M89 109L90 110L89 109M78 110L79 111L78 110z"/>
<path style="fill:#f88561; stroke:none;" d="M89 110L90 111L89 110z"/>
<path style="fill:#eab4a9; stroke:none;" d="M76 111L77 112L76 111M88 111L89 112L88 111z"/>
<path style="fill:#ca4826; stroke:none;" d="M118 112L118 147L116.397 160.397L102 162L63 162C72.7599 178.883 96.4034 186.993 115 187C157.393 187.016 192.971 157.224 193 113L118 112z"/>
<path style="fill:#f88561; stroke:none;" d="M87 113L88 114L87 113z"/>
<path style="fill:#eab4a9; stroke:none;" d="M193 113L193 117L194 117L193 113z"/>
<path style="fill:#f88561; stroke:none;" d="M86 114L87 115L86 114M85 115L86 116L85 115z"/>
<path style="fill:#eab4a9; stroke:none;" d="M83 116L84 117L83 116M81 117L82 118L81 117M78 118L79 119L78 118z"/>
<path style="fill:#f88561; stroke:none;" d="M79 118L80 119L79 118z"/>
<path style="fill:#eab4a9; stroke:none;" d="M64 119L64 135L65 135L64 119z"/>
<path style="fill:#f88561; stroke:none;" d="M192.333 122.667L192.667 123.333L192.333 122.667z"/>
<path style="fill:#eab4a9; stroke:none;" d="M192.333 124.667L192.667 125.333L192.333 124.667z"/>
<path style="fill:#f88561; stroke:none;" d="M191 128L192 129L191 128z"/>
<path style="fill:#eab4a9; stroke:none;" d="M191.333 129.667L191.667 130.333L191.333 129.667M190 133L191 134L190 133z"/>
<path style="fill:#f88561; stroke:none;" d="M55 135L55 136L65 136L55 135M189 136L190 137L189 136z"/>
<path style="fill:#eab4a9; stroke:none;" d="M189 137L190 138L189 137M188 139L189 140L188 139z"/>
<path style="fill:#f88561; stroke:none;" d="M187 141L188 142L187 141z"/>
<path style="fill:#eab4a9; stroke:none;" d="M187 142L188 143L187 142M186 144L187 145L186 144M185 146L186 147L185 146M184 148L185 149L184 148M32 150L33 151L32 150M183 150L184 151L183 150z"/>
<path style="fill:#f88561; stroke:none;" d="M33 151L34 152L33 151M182 151L183 152L182 151M34 152L35 153L34 152M36 153L37 154L36 153z"/>
<path style="fill:#eab4a9; stroke:none;" d="M181 153L182 154L181 153z"/>
<path style="fill:#f88561; stroke:none;" d="M55 154L56 155L55 154z"/>
<path style="fill:#eab4a9; stroke:none;" d="M179 156L180 157L179 156M57 157L58 158L57 157z"/>
<path style="fill:#f88561; stroke:none;" d="M178 157L179 158L178 157M58 158L59 159L58 158z"/>
<path style="fill:#eab4a9; stroke:none;" d="M176 160L177 161L176 160M60 161L61 162L60 161M175 161L176 162L175 161M61 162L62 163L61 162z"/>
<path style="fill:#f88561; stroke:none;" d="M174 162L175 163L174 162z"/>
<path style="fill:#eab4a9; stroke:none;" d="M62 163L63 164L62 163z"/>
<path style="fill:#f88561; stroke:none;" d="M173 163L174 164L173 163M63 164L64 165L63 164z"/>
<path style="fill:#83341f; stroke:none;" d="M112 164L113 165L112 164z"/>
<path style="fill:#f88561; stroke:none;" d="M64 165L65 166L64 165M65 166L66 167L65 166z"/>
<path style="fill:#eab4a9; stroke:none;" d="M66 167L67 168L66 167z"/>
<path style="fill:#f88561; stroke:none;" d="M169 167L170 168L169 167z"/>
<path style="fill:#eab4a9; stroke:none;" d="M67 168L68 169L67 168z"/>
<path style="fill:#f88561; stroke:none;" d="M168 168L169 169L168 168z"/>
<path style="fill:#eab4a9; stroke:none;" d="M68 169L69 170L68 169z"/>
<path style="fill:#f88561; stroke:none;" d="M167 169L168 170L167 169z"/>
<path style="fill:#eab4a9; stroke:none;" d="M166 170L167 171L166 170M165 171L166 172L165 171z"/>
<path style="fill:#f88561; stroke:none;" d="M72 172L73 173L72 172z"/>
<path style="fill:#eab4a9; stroke:none;" d="M73 173L74 174L73 173M162 173L163 174L162 173z"/>
<path style="fill:#f88561; stroke:none;" d="M75 174L76 175L75 174z"/>
<path style="fill:#eab4a9; stroke:none;" d="M161 174L162 175L161 174M76 175L77 176L76 175z"/>
<path style="fill:#f88561; stroke:none;" d="M159 175L160 176L159 175M78 176L79 177L78 176z"/>
<path style="fill:#eab4a9; stroke:none;" d="M79 177L80 178L79 177M156 177L157 178L156 177M81 178L82 179L81 178z"/>
<path style="fill:#f88561; stroke:none;" d="M154 178L155 179L154 178z"/>
<path style="fill:#eab4a9; stroke:none;" d="M83 179L84 180L83 179z"/>
<path style="fill:#f88561; stroke:none;" d="M152 179L153 180L152 179z"/>
<path style="fill:#eab4a9; stroke:none;" d="M85 180L86 181L85 180z"/>
<path style="fill:#f88561; stroke:none;" d="M150 180L151 181L150 180z"/>
<path style="fill:#eab4a9; stroke:none;" d="M87 181L88 182L87 181M148 181L149 182L148 181M89 182L90 183L89 182z"/>
<path style="fill:#f88561; stroke:none;" d="M90 182L91 183L90 182M145 182L146 183L145 182z"/>
<path style="fill:#eab4a9; stroke:none;" d="M146 182L147 183L146 182M92 183L93 184L92 183z"/>
<path style="fill:#f88561; stroke:none;" d="M93 183L94 184L93 183z"/>
<path style="fill:#eab4a9; stroke:none;" d="M143 183L144 184L143 183M95 184L96 185L95 184z"/>
<path style="fill:#f88561; stroke:none;" d="M96 184L97 185L96 184z"/>
<path style="fill:#eab4a9; stroke:none;" d="M140 184L141 185L140 184M98.6667 185.333L99.3333 185.667L98.6667 185.333z"/>
<path style="fill:#f88561; stroke:none;" d="M100 185L101 186L100 185M136 185L137 186L136 185z"/>
<path style="fill:#eab4a9; stroke:none;" d="M137 185L138 186L137 185M103.667 186.333L104.333 186.667L103.667 186.333z"/>
<path style="fill:#f88561; stroke:none;" d="M105 186L106 187L105 186M131 186L132 187L131 186z"/>
<path style="fill:#eab4a9; stroke:none;" d="M132.667 186.333L133.333 186.667L132.667 186.333M109 187L109 188L113 188L109 187z"/>
<path style="fill:#f88561; stroke:none;" d="M113 187L113 188L123 188L113 187z"/>
<path style="fill:#eab4a9; stroke:none;" d="M123 187L123 188L127 188L123 187z"/>
</svg>
