<?xml version="1.0" standalone="yes"?>
<svg xmlns="http://www.w3.org/2000/svg" width="225" height="225">
<path style="fill:#fbfcfd; stroke:none;" d="M0 0L0 101L1 101C1.40368 52.2355 52.2356 1.40372 101 1L70 0L0 0z"/>
<path style="fill:#b2d2d1; stroke:none;" d="M101 0L101 1L104 1L101 0z"/>
<path style="fill:#7fb1bd; stroke:none;" d="M104 0L104 1L107 1L104 0z"/>
<path style="fill:#5f7fa3; stroke:none;" d="M107 0L107 1L118 1L107 0z"/>
<path style="fill:#7fb1bd; stroke:none;" d="M118 0L118 1L121 1L118 0z"/>
<path style="fill:#b2d2d1; stroke:none;" d="M121 0L121 1L124 1L121 0z"/>
<path style="fill:#fbfcfd; stroke:none;" d="M124 0L124 1C172.765 1.40372 223.596 52.2355 224 101L225 101L225 0L124 0z"/>
<path style="fill:#b2d2d1; stroke:none;" d="M93 1L93 2L96 2L93 1z"/>
<path style="fill:#7fb1bd; stroke:none;" d="M96 1L97 2L96 1z"/>
<path style="fill:#5f7fa3; stroke:none;" d="M97 1L97 2L100 2L97 1z"/>
<path style="fill:#434778; stroke:none;" d="M100 1.42516C80.6504 4.05908 63.2159 10.5116 47 21.5193C35.8896 29.0613 26.107 39.7058 18.9529 51C-29.6245 127.69 30.4802 234.899 124 223.715C141.578 221.612 157.98 216.147 173 206.68C253.983 155.639 232.585 30.0274 142 4.57948C128.827 0.878845 113.597 -0.42572 100 1.42516z"/>
<path style="fill:#5f7fa3; stroke:none;" d="M125 1L125 2L128 2L125 1z"/>
<path style="fill:#7fb1bd; stroke:none;" d="M128 1L129 2L128 1z"/>
<path style="fill:#b2d2d1; stroke:none;" d="M129 1L129 2L132 2L129 1M89 2L90 3L89 2z"/>
<path style="fill:#7fb1bd; stroke:none;" d="M90 2L91 3L90 2z"/>
<path style="fill:#5f7fa3; stroke:none;" d="M91.6667 2.33333L92.3333 2.66667L91.6667 2.33333M132.667 2.33333L133.333 2.66667L132.667 2.33333z"/>
<path style="fill:#7fb1bd; stroke:none;" d="M134 2L135 3L134 2z"/>
<path style="fill:#b2d2d1; stroke:none;" d="M135 2L136 3L135 2M84 3L85 4L84 3z"/>
<path style="fill:#7fb1bd; stroke:none;" d="M85 3L86 4L85 3z"/>
<path style="fill:#5f7fa3; stroke:none;" d="M86 3L87 4L86 3M138 3L139 4L138 3z"/>
<path style="fill:#7fb1bd; stroke:none;" d="M139 3L140 4L139 3z"/>
<path style="fill:#b2d2d1; stroke:none;" d="M140 3L141 4L140 3M80.6667 4.33333L81.3333 4.66667L80.6667 4.33333z"/>
<path style="fill:#7fb1bd; stroke:none;" d="M82 4L83 5L82 4z"/>
<path style="fill:#5f7fa3; stroke:none;" d="M83 4L84 5L83 4M98 4L98 5L101 5L98 4z"/>
<path style="fill:#7fb1bd; stroke:none;" d="M101.667 4.33333L102.333 4.66667L101.667 4.33333z"/>
<path style="fill:#b2d2d1; stroke:none;" d="M103 4L103 5L122 5L103 4z"/>
<path style="fill:#7fb1bd; stroke:none;" d="M122.667 4.33333L123.333 4.66667L122.667 4.33333z"/>
<path style="fill:#5f7fa3; stroke:none;" d="M124 4L124 5L127 5L124 4M141 4L142 5L141 4z"/>
<path style="fill:#7fb1bd; stroke:none;" d="M142 4L143 5L142 4z"/>
<path style="fill:#b2d2d1; stroke:none;" d="M143.667 4.33333L144.333 4.66667L143.667 4.33333z"/>
<path style="fill:#7fb1bd; stroke:none;" d="M78 5L79 6L78 5z"/>
<path style="fill:#5f7fa3; stroke:none;" d="M79 5L80 6L79 5M93 5L94 6L93 5z"/>
<path style="fill:#7fb1bd; stroke:none;" d="M94.6667 5.33333L95.3333 5.66667L94.6667 5.33333z"/>
<path style="fill:#b2d2d1; stroke:none;" d="M96.6667 5.33333L97.3333 5.66667L96.6667 5.33333z"/>
<path style="fill:#fbfcfd; stroke:none;" d="M98 5.42516C82.836 7.48932 67.9669 12.4508 55 20.6952C42.6313 28.5593 31.6552 38.9009 23.3472 51C-28.5908 126.638 35.2335 230.57 126 219.715C141.099 217.909 156.032 212.939 169 204.935C181.443 197.255 192.545 186.973 200.964 175C254.075 99.4644 189.829 -7.0748 98 5.42516z"/>
<path style="fill:#b2d2d1; stroke:none;" d="M127.667 5.33333L128.333 5.66667L127.667 5.33333z"/>
<path style="fill:#7fb1bd; stroke:none;" d="M129.667 5.33333L130.333 5.66667L129.667 5.33333z"/>
<path style="fill:#5f7fa3; stroke:none;" d="M131 5L132 6L131 5M145 5L146 6L145 5z"/>
<path style="fill:#7fb1bd; stroke:none;" d="M146 5L147 6L146 5M75 6L76 7L75 6z"/>
<path style="fill:#5f7fa3; stroke:none;" d="M76 6L77 7L76 6M87.6667 6.33333L88.3333 6.66667L87.6667 6.33333z"/>
<path style="fill:#7fb1bd; stroke:none;" d="M89 6L90 7L89 6z"/>
<path style="fill:#b2d2d1; stroke:none;" d="M90 6L91 7L90 6M134 6L135 7L134 6z"/>
<path style="fill:#7fb1bd; stroke:none;" d="M135 6L136 7L135 6z"/>
<path style="fill:#5f7fa3; stroke:none;" d="M136.667 6.33333L137.333 6.66667L136.667 6.33333M148 6L149 7L148 6z"/>
<path style="fill:#7fb1bd; stroke:none;" d="M149 6L150 7L149 6z"/>
<path style="fill:#b2d2d1; stroke:none;" d="M72 7L73 8L72 7z"/>
<path style="fill:#5f7fa3; stroke:none;" d="M73 7L74 8L73 7M84 7L85 8L84 7z"/>
<path style="fill:#7fb1bd; stroke:none;" d="M85 7L86 8L85 7z"/>
<path style="fill:#b2d2d1; stroke:none;" d="M86 7L87 8L86 7M138 7L139 8L138 7z"/>
<path style="fill:#7fb1bd; stroke:none;" d="M139 7L140 8L139 7z"/>
<path style="fill:#5f7fa3; stroke:none;" d="M140 7L141 8L140 7M151 7L152 8L151 7z"/>
<path style="fill:#b2d2d1; stroke:none;" d="M152 7L153 8L152 7M69 8L70 9L69 8z"/>
<path style="fill:#7fb1bd; stroke:none;" d="M70 8L71 9L70 8z"/>
<path style="fill:#5f7fa3; stroke:none;" d="M71 8L72 9L71 8z"/>
<path style="fill:#7fb1bd; stroke:none;" d="M81 8L82 9L81 8z"/>
<path style="fill:#b2d2d1; stroke:none;" d="M82 8L83 9L82 8M142 8L143 9L142 8z"/>
<path style="fill:#7fb1bd; stroke:none;" d="M143 8L144 9L143 8z"/>
<path style="fill:#5f7fa3; stroke:none;" d="M153 8L154 9L153 8z"/>
<path style="fill:#7fb1bd; stroke:none;" d="M154 8L155 9L154 8z"/>
<path style="fill:#b2d2d1; stroke:none;" d="M155 8L156 9L155 8M67 9L68 10L67 9z"/>
<path style="fill:#5f7fa3; stroke:none;" d="M68 9L69 10L68 9M77 9L78 10L77 9z"/>
<path style="fill:#7fb1bd; stroke:none;" d="M78 9L79 10L78 9z"/>
<path style="fill:#b2d2d1; stroke:none;" d="M79 9L80 10L79 9M145 9L146 10L145 9z"/>
<path style="fill:#7fb1bd; stroke:none;" d="M146 9L147 10L146 9z"/>
<path style="fill:#5f7fa3; stroke:none;" d="M147 9L148 10L147 9M156 9L157 10L156 9z"/>
<path style="fill:#b2d2d1; stroke:none;" d="M157 9L158 10L157 9M65 10L66 11L65 10z"/>
<path style="fill:#5f7fa3; stroke:none;" d="M66 10L67 11L66 10M74 10L75 11L74 10z"/>
<path style="fill:#7fb1bd; stroke:none;" d="M75 10L76 11L75 10z"/>
<path style="fill:#b2d2d1; stroke:none;" d="M76 10L77 11L76 10M128 16L128 17L126 20L124 20L123 19C123.738 17.1206 123.904 8.30171 120.033 12.6582C118.111 14.8211 118.158 21.1946 118 24C108.597 26.857 119.612 36.6733 120 25L125 22C129.998 26.275 135.206 22.5658 131 17C135.385 8.35431 123.573 9.88234 128 16M148 10L149 11L148 10z"/>
<path style="fill:#7fb1bd; stroke:none;" d="M149 10L150 11L149 10z"/>
<path style="fill:#5f7fa3; stroke:none;" d="M150 10L151 11L150 10M158 10L159 11L158 10z"/>
<path style="fill:#b2d2d1; stroke:none;" d="M159 10L160 11L159 10z"/>
<path style="fill:#7fb1bd; stroke:none;" d="M63 11L64 12L63 11z"/>
<path style="fill:#5f7fa3; stroke:none;" d="M64 11L65 12L64 11M72 11L73 12L72 11z"/>
<path style="fill:#b2d2d1; stroke:none;" d="M73 11L74 12L73 11M105 11L104 15L108 15L107 11L105 11M151 11L152 12L151 11z"/>
<path style="fill:#5f7fa3; stroke:none;" d="M152 11L153 12L152 11M160 11L161 12L160 11z"/>
<path style="fill:#7fb1bd; stroke:none;" d="M161 11L162 12L161 11M61 12L62 13L61 12z"/>
<path style="fill:#5f7fa3; stroke:none;" d="M69 12L70 13L69 12z"/>
<path style="fill:#7fb1bd; stroke:none;" d="M70 12L71 13L70 12z"/>
<path style="fill:#b2d2d1; stroke:none;" d="M112 12C111.296 20.0944 119.695 14.3598 112 12z"/>
<path style="fill:#7fb1bd; stroke:none;" d="M154 12L155 13L154 12z"/>
<path style="fill:#5f7fa3; stroke:none;" d="M155 12L156 13L155 12z"/>
<path style="fill:#7fb1bd; stroke:none;" d="M163 12L164 13L163 12z"/>
<path style="fill:#b2d2d1; stroke:none;" d="M59 13L60 14L59 13z"/>
<path style="fill:#5f7fa3; stroke:none;" d="M60 13L61 14L60 13M67 13L68 14L67 13z"/>
<path style="fill:#b2d2d1; stroke:none;" d="M68 13L69 14L68 13M156 13L157 14L156 13z"/>
<path style="fill:#5f7fa3; stroke:none;" d="M157 13L158 14L157 13M164 13L165 14L164 13z"/>
<path style="fill:#b2d2d1; stroke:none;" d="M165 13L166 14L165 13M57 14L58 15L57 14z"/>
<path style="fill:#5f7fa3; stroke:none;" d="M58 14L59 15L58 14M65 14L66 15L65 14z"/>
<path style="fill:#b2d2d1; stroke:none;" d="M66 14L67 15L66 14M158 14L159 15L158 14z"/>
<path style="fill:#5f7fa3; stroke:none;" d="M159 14L160 15L159 14M166 14L167 15L166 14z"/>
<path style="fill:#b2d2d1; stroke:none;" d="M167 14L168 15L167 14M55 15L56 16L55 15z"/>
<path style="fill:#5f7fa3; stroke:none;" d="M56 15L57 16L56 15M63 15L64 16L63 15z"/>
<path style="fill:#b2d2d1; stroke:none;" d="M64 15L65 16L64 15M77.5787 16.0818C75.2404 17.8412 77.8389 21.7624 80.233 19.9182C82.5032 18.1695 80.0039 14.2571 77.5787 16.0818M145.564 16.1713C143.573 17.4706 145.241 21.2615 147.436 19.8287C149.427 18.5293 147.759 14.7386 145.564 16.1713M160 15L161 16L160 15z"/>
<path style="fill:#5f7fa3; stroke:none;" d="M161 15L162 16L161 15M168 15L169 16L168 15z"/>
<path style="fill:#b2d2d1; stroke:none;" d="M169 15L170 16L169 15z"/>
<path style="fill:#7fb1bd; stroke:none;" d="M54 16L55 17L54 16z"/>
<path style="fill:#5f7fa3; stroke:none;" d="M61 16L62 17L61 16z"/>
<path style="fill:#b2d2d1; stroke:none;" d="M62 16L63 17L62 16M88.3179 17.0857C84.7215 19.218 88.126 24.3804 91.5378 21.9537C94.6187 19.7624 91.5503 15.1692 88.3179 17.0857M162 16L163 17L162 16z"/>
<path style="fill:#5f7fa3; stroke:none;" d="M163 16L164 17L163 16z"/>
<path style="fill:#7fb1bd; stroke:none;" d="M170 16L171 17L170 16z"/>
<path style="fill:#b2d2d1; stroke:none;" d="M52 17L53 18L52 17z"/>
<path style="fill:#5f7fa3; stroke:none;" d="M53 17L54 18L53 17z"/>
<path style="fill:#b2d2d1; stroke:none;" d="M60 17L61 18L60 17M96 18L96 19L100 20L99 17L96 18M136 17L135 21L139 21L138 17L136 17M164 17L165 18L164 17z"/>
<path style="fill:#5f7fa3; stroke:none;" d="M171 17L172 18L171 17z"/>
<path style="fill:#b2d2d1; stroke:none;" d="M172 17L173 18L172 17z"/>
<path style="fill:#5f7fa3; stroke:none;" d="M51 18L52 19L51 18M57 18L58 19L57 18z"/>
<path style="fill:#7fb1bd; stroke:none;" d="M58 18L59 19L58 18z"/>
<path style="fill:#b2d2d1; stroke:none;" d="M74 23L74 18C69.0084 18.832 69.0084 22.168 74 23z"/>
<path style="fill:#7fb1bd; stroke:none;" d="M166 18L167 19L166 18z"/>
<path style="fill:#5f7fa3; stroke:none;" d="M167 18L168 19L167 18M173 18L174 19L173 18z"/>
<path style="fill:#b2d2d1; stroke:none;" d="M49 19L50 20L49 19z"/>
<path style="fill:#5f7fa3; stroke:none;" d="M50 19L51 20L50 19M56 19L57 20L56 19M168 19L169 20L168 19M174 19L175 20L174 19z"/>
<path style="fill:#b2d2d1; stroke:none;" d="M175 19L176 20L175 19z"/>
<path style="fill:#5f7fa3; stroke:none;" d="M48 20L49 21L48 20M54 20L55 21L54 20z"/>
<path style="fill:#b2d2d1; stroke:none;" d="M55 20L56 21L55 20M155 27C157.519 38.5446 168.101 23.9235 157 25C153.233 16.4944 146.647 25.6068 155 27M169 20L170 21L169 20z"/>
<path style="fill:#5f7fa3; stroke:none;" d="M170 20L171 21L170 20M176 20L177 21L176 20z"/>
<path style="fill:#b2d2d1; stroke:none;" d="M46 21L47 22L46 21z"/>
<path style="fill:#7fb1bd; stroke:none;" d="M53 21L54 22L53 21M171 21L172 22L171 21z"/>
<path style="fill:#b2d2d1; stroke:none;" d="M178 21L179 22L178 21z"/>
<path style="fill:#7fb1bd; stroke:none;" d="M45 22L46 23L45 22z"/>
<path style="fill:#5f7fa3; stroke:none;" d="M51 22L52 23L51 22z"/>
<path style="fill:#b2d2d1; stroke:none;" d="M52 22L53 23L52 22M105.603 23.1713C103.4 24.5052 105.323 28.1694 107.682 26.8287C110.109 25.45 107.916 21.7703 105.603 23.1713M172 22L173 23L172 22z"/>
<path style="fill:#5f7fa3; stroke:none;" d="M173 22L174 23L173 22z"/>
<path style="fill:#7fb1bd; stroke:none;" d="M179 22L180 23L179 22z"/>
<path style="fill:#5f7fa3; stroke:none;" d="M44 23L45 24L44 23z"/>
<path style="fill:#7fb1bd; stroke:none;" d="M50 23L51 24L50 23z"/>
<path style="fill:#b2d2d1; stroke:none;" d="M141 23C141.746 32.5711 150.324 23.7442 141 23z"/>
<path style="fill:#7fb1bd; stroke:none;" d="M174 23L175 24L174 23z"/>
<path style="fill:#5f7fa3; stroke:none;" d="M180 23L181 24L180 23z"/>
<path style="fill:#b2d2d1; stroke:none;" d="M42 24L43 25L42 24z"/>
<path style="fill:#5f7fa3; stroke:none;" d="M48 24L49 25L48 24z"/>
<path style="fill:#b2d2d1; stroke:none;" d="M49 24L50 25L49 24M95 24L96 29L99 24L95 24M175 24L176 25L175 24z"/>
<path style="fill:#5f7fa3; stroke:none;" d="M176 24L177 25L176 24z"/>
<path style="fill:#b2d2d1; stroke:none;" d="M182 24L183 25L182 24M41 25L42 26L41 25z"/>
<path style="fill:#5f7fa3; stroke:none;" d="M47 25L48 26L47 25z"/>
<path style="fill:#b2d2d1; stroke:none;" d="M78.3326 26.0857C74.8573 28.1404 78.4338 32.8262 81.6674 30.9143C85.1428 28.8596 81.5662 24.1738 78.3326 26.0857M166 25L166 30L169 29L168 25L166 25z"/>
<path style="fill:#5f7fa3; stroke:none;" d="M177 25L178 26L177 25z"/>
<path style="fill:#b2d2d1; stroke:none;" d="M183 25L184 26L183 25z"/>
<path style="fill:#7fb1bd; stroke:none;" d="M40 26L41 27L40 26M46 26L47 27L46 26z"/>
<path style="fill:#b2d2d1; stroke:none;" d="M135.564 27.1713C133.573 28.4706 135.241 32.2614 137.436 30.8287C139.427 29.5293 137.759 25.7386 135.564 27.1713z"/>
<path style="fill:#7fb1bd; stroke:none;" d="M178 26L179 27L178 26M184 26L185 27L184 26z"/>
<path style="fill:#5f7fa3; stroke:none;" d="M39 27L40 28L39 27z"/>
<path style="fill:#b2d2d1; stroke:none;" d="M45 27L46 28L45 27M62.2778 28.341C59.7283 29.3095 61.1285 33.1233 63.7222 32.2492C66.3146 31.3756 64.7688 27.3948 62.2778 28.341M179 27L180 28L179 27z"/>
<path style="fill:#5f7fa3; stroke:none;" d="M185 27L186 28L185 27M38 28L39 29L38 28M43 28L44 29L43 28z"/>
<path style="fill:#b2d2d1; stroke:none;" d="M44 28L45 29L44 28M69.3426 29.0818C66.1131 31.0618 69.6197 35.1408 72.3927 32.9576C74.9642 30.933 71.9898 27.4588 69.3426 29.0818M123 28L124 32L125 32L126 28L123 28M180 28L181 29L180 28z"/>
<path style="fill:#5f7fa3; stroke:none;" d="M181 28L182 29L181 28M186 28L187 29L186 28M37 29L38 30L37 29M42 29L43 30L42 29z"/>
<path style="fill:#b2d2d1; stroke:none;" d="M149.329 30.0857C145.693 32.2057 149.063 37.7174 152.693 35.7122C156.477 33.6217 152.976 27.9588 149.329 30.0857z"/>
<path style="fill:#5f7fa3; stroke:none;" d="M182 29L183 30L182 29M187 29L188 30L187 29z"/>
<path style="fill:#b2d2d1; stroke:none;" d="M35 30L34 32L35 30z"/>
<path style="fill:#7fb1bd; stroke:none;" d="M41 30L42 31L41 30z"/>
<path style="fill:#b2d2d1; stroke:none;" d="M51 30L51 35L54 34L53 30L51 30M86 30L85 31L85 33L86 34L88 34L89 33L89 31L88 30L86 30M169 36C178.093 35.2737 169.726 26.907 169 36z"/>
<path style="fill:#7fb1bd; stroke:none;" d="M183 30L184 31L183 30z"/>
<path style="fill:#b2d2d1; stroke:none;" d="M189 30L191 32L189 30z"/>
<path style="fill:#5f7fa3; stroke:none;" d="M35 31L36 32L35 31z"/>
<path style="fill:#7fb1bd; stroke:none;" d="M40 31L41 32L40 31M184 31L185 32L184 31z"/>
<path style="fill:#5f7fa3; stroke:none;" d="M189 31L190 32L189 31z"/>
<path style="fill:#b2d2d1; stroke:none;" d="M33 32L34 33L33 32M39 32L40 33L39 32M143 39C144.047 36.7432 144.018 30.109 139.617 33.2377C137.11 35.0191 137.998 45.348 141.213 46.2484C146.659 47.7739 145.151 41.139 143 39M185 32L186 33L185 32M191 32L192 33L191 32M32 33L33 34L32 33M38 33L39 34L38 33M76.6003 34.0463C73.1997 36.5614 76.8022 42.3445 80.5556 39.9282C84.4336 37.4317 80.259 31.3403 76.6003 34.0463M96.6034 34.0818C94.1317 35.8717 96.9181 39.713 99.3966 37.9182C101.868 36.1283 99.082 32.287 96.6034 34.0818M99 46C103.789 46.6219 105.622 44.789 105 40C107.871 38.8983 111.696 32.7426 106.038 33.466C104.592 33.6509 92.6494 45.5933 92.466 47.0386C91.7599 52.6054 97.9839 49.3381 99 46M186 33L187 34L186 33M192 33L193 34L192 33M31 34L30 36L31 34z"/>
<path style="fill:#5f7fa3; stroke:none;" d="M36 34L37 35L36 34z"/>
<path style="fill:#b2d2d1; stroke:none;" d="M37 34L38 35L37 34M62 39L61 47C51.2802 52.41 68.7083 58.3487 63 47C65.6799 45.9248 71.4101 45.3093 72.9136 42.6767C75.3609 38.3914 69.4515 36.2745 67 40C64.3082 39.0163 61.6017 34.6343 59.0054 34.6343C54.511 34.6343 57.6928 39.5641 62 39M159 34C158.506 37.1372 158.964 37.9996 162 39L159 34M187 34L189 36L187 34z"/>
<path style="fill:#5f7fa3; stroke:none;" d="M188 34L189 35L188 34z"/>
<path style="fill:#b2d2d1; stroke:none;" d="M193 34L195 36L193 34z"/>
<path style="fill:#5f7fa3; stroke:none;" d="M31 35L32 36L31 35z"/>
<path style="fill:#b2d2d1; stroke:none;" d="M36 35L37 36L36 35z"/>
<path style="fill:#5f7fa3; stroke:none;" d="M193 35L194 36L193 35M34 36L35 37L34 36z"/>
<path style="fill:#b2d2d1; stroke:none;" d="M35 36L36 37L35 36M189 36L191 38L189 36z"/>
<path style="fill:#5f7fa3; stroke:none;" d="M190 36L191 37L190 36M29 37L30 38L29 37z"/>
<path style="fill:#b2d2d1; stroke:none;" d="M34 37L35 38L34 37M51.564 38.1605C49.5359 39.433 51.2713 42.8943 53.436 41.5972C55.4861 40.3687 53.69 36.8265 51.564 38.1605M88 41C96.2673 43.7966 91.1783 33.1086 88 41M120 37L120 42C123.844 40.7225 123.844 38.2775 120 37M129.603 38.0818C127.132 39.8717 129.918 43.713 132.397 41.9182C134.868 40.1283 132.082 36.2869 129.603 38.0818M167.093 38.1751C163.757 38.6531 164.674 43.2879 167.907 42.8249C171.243 42.3469 170.326 37.7121 167.093 38.1751M180.213 37.8904C176.28 39.06 177.878 45.3535 181.895 44.2484C185.995 43.1204 184.369 36.6546 180.213 37.8904z"/>
<path style="fill:#5f7fa3; stroke:none;" d="M195 37L196 38L195 37M28 38L29 39L28 38z"/>
<path style="fill:#b2d2d1; stroke:none;" d="M33 38L34 39L33 38M112 39L112 40L116 38L112 39M191 38L192 39L191 38z"/>
<path style="fill:#5f7fa3; stroke:none;" d="M196 38L197 39L196 38M27 39L28 40L27 39z"/>
<path style="fill:#b2d2d1; stroke:none;" d="M32 39L33 40L32 39M192 39L193 40L192 39z"/>
<path style="fill:#5f7fa3; stroke:none;" d="M197 39L198 40L197 39z"/>
<path style="fill:#7fb1bd; stroke:none;" d="M26 40L27 41L26 40M31 40L32 41L31 40z"/>
<path style="fill:#b2d2d1; stroke:none;" d="M42 41L47 44C45.9996 40.9641 45.1372 40.5057 42 41z"/>
<path style="fill:#7fb1bd; stroke:none;" d="M193 40L194 41L193 40M198 40L199 41L198 40z"/>
<path style="fill:#b2d2d1; stroke:none;" d="M25 41L26 42L25 41z"/>
<path style="fill:#7fb1bd; stroke:none;" d="M30 41L31 42L30 41z"/>
<path style="fill:#b2d2d1; stroke:none;" d="M154 41L153 46L158 42L154 41z"/>
<path style="fill:#7fb1bd; stroke:none;" d="M194 41L195 42L194 41z"/>
<path style="fill:#b2d2d1; stroke:none;" d="M199 41L200 42L199 41M24 42L25 43L24 42z"/>
<path style="fill:#5f7fa3; stroke:none;" d="M29 42L30 43L29 42z"/>
<path style="fill:#b2d2d1; stroke:none;" d="M170 47C157.729 39.933 166.179 58.0389 169 48C182.872 53.7184 173.447 35.6753 170 47z"/>
<path style="fill:#5f7fa3; stroke:none;" d="M195 42L196 43L195 42z"/>
<path style="fill:#b2d2d1; stroke:none;" d="M200 42L201 43L200 42z"/>
<path style="fill:#5f7fa3; stroke:none;" d="M28 43L29 44L28 43z"/>
<path style="fill:#b2d2d1; stroke:none;" d="M79 43L78 48L83 47L79 43z"/>
<path style="fill:#5f7fa3; stroke:none;" d="M196 43L197 44L196 43M23 44L24 45L23 44z"/>
<path style="fill:#b2d2d1; stroke:none;" d="M28 44L29 45L28 44M86.3418 45.1713C83.4864 46.6305 85.8196 50.5698 88.591 49.3387C91.5582 48.0208 89.1263 43.7483 86.3418 45.1713M186 45L191 49C190.407 45.5975 189.442 44.8615 186 45M196 44L197 45L196 44z"/>
<path style="fill:#5f7fa3; stroke:none;" d="M201 44L202 45L201 44z"/>
<path style="fill:#7fb1bd; stroke:none;" d="M22 45L23 46L22 45z"/>
<path style="fill:#b2d2d1; stroke:none;" d="M27 45L28 46L27 45M197 45L198 46L197 45z"/>
<path style="fill:#7fb1bd; stroke:none;" d="M202 45L203 46L202 45z"/>
<path style="fill:#b2d2d1; stroke:none;" d="M21 46L22 47L21 46z"/>
<path style="fill:#7fb1bd; stroke:none;" d="M26 46L27 47L26 46z"/>
<path style="fill:#b2d2d1; stroke:none;" d="M119.356 47.1713C116.425 48.7286 119.8 52.7736 122.204 50.9182C124.437 49.1943 121.641 45.9575 119.356 47.1713M131 51L132 51L140 51C138.475 46.8524 135.793 45.1784 132 48C123.354 43.6149 124.882 55.4272 131 51M146 46L146 50L150 50L150 46L146 46z"/>
<path style="fill:#7fb1bd; stroke:none;" d="M198 46L199 47L198 46z"/>
<path style="fill:#b2d2d1; stroke:none;" d="M203 46L204 47L203 46z"/>
<path style="fill:#5f7fa3; stroke:none;" d="M25 47L26 48L25 47z"/>
<path style="fill:#b2d2d1; stroke:none;" d="M49.3179 48.1752C46.318 49.708 48.6882 54.3546 51.6821 52.8248C54.682 51.292 52.3118 46.6454 49.3179 48.1752M110 47L113 52C113.494 48.8628 113.036 48.0004 110 47z"/>
<path style="fill:#5f7fa3; stroke:none;" d="M199 47L200 48L199 47M20 48L21 49L20 48M24 48L25 49L24 48z"/>
<path style="fill:#b2d2d1; stroke:none;" d="M180 48L180 52L184 52L180 48z"/>
<path style="fill:#5f7fa3; stroke:none;" d="M200 48L201 49L200 48M204 48L205 49L204 48z"/>
<path style="fill:#b2d2d1; stroke:none;" d="M19 49L20 50L19 49M24 49L25 50L24 49M71 53L76 54C75.2952 49.9748 73.0944 49.3555 71 53M103 49L104 53L105 53L106 49L103 49M200 49L201 50L200 49M205 49L206 50L205 49z"/>
<path style="fill:#5f7fa3; stroke:none;" d="M19 50L20 51L19 50z"/>
<path style="fill:#7fb1bd; stroke:none;" d="M23 50L24 51L23 50z"/>
<path style="fill:#b2d2d1; stroke:none;" d="M34 54L40 54C38.0247 50.5281 35.9753 50.5281 34 54z"/>
<path style="fill:#7fb1bd; stroke:none;" d="M201 50L202 51L201 50z"/>
<path style="fill:#5f7fa3; stroke:none;" d="M205 50L206 51L205 50M18 51L19 52L18 51M22 51L23 52L22 51z"/>
<path style="fill:#b2d2d1; stroke:none;" d="M80.5887 52.0826C77.8952 53.9706 80.4904 58.67 83.4113 56.713C86.1345 54.8883 83.4621 50.0685 80.5887 52.0826z"/>
<path style="fill:#5f7fa3; stroke:none;" d="M202 51L203 52L202 51M206 51L207 52L206 51z"/>
<path style="fill:#b2d2d1; stroke:none;" d="M17 52L18 53L17 52M22 52L23 53L22 52M94.3071 53.0471C90.6919 55.3981 93.8861 61.0908 97.6829 58.9136C101.59 56.6732 98.3474 50.4196 94.3071 53.0471M190 57L196 62C197.417 56.7438 194.922 54.6145 190 57C188.468 47.8495 180.681 59.1224 190 57M202 52L203 53L202 52M207 52L208 53L207 52z"/>
<path style="fill:#5f7fa3; stroke:none;" d="M17 53L18 54L17 53z"/>
<path style="fill:#7fb1bd; stroke:none;" d="M21 53L22 54L21 53z"/>
<path style="fill:#b2d2d1; stroke:none;" d="M140 53L140 54L158 54L140 53z"/>
<path style="fill:#7fb1bd; stroke:none;" d="M203 53L204 54L203 53z"/>
<path style="fill:#5f7fa3; stroke:none;" d="M207 53L208 54L207 53z"/>
<path style="fill:#7fb1bd; stroke:none;" d="M16 54L17 55L16 54z"/>
<path style="fill:#5f7fa3; stroke:none;" d="M20 54L21 55L20 54z"/>
<path style="fill:#b2d2d1; stroke:none;" d="M107 60C114.434 57.0061 105.098 51.6548 107 60M132 54L132 55L135 55L132 54z"/>
<path style="fill:#7fb1bd; stroke:none;" d="M8 124C35.7516 114.55 59.4372 98.6991 90 100.039C112.503 101.026 133.984 112.503 154 121.691C173.172 130.492 193.254 137.977 214 142C216.292 130.891 218.692 119.418 217.91 108C217.175 97.2524 216.206 80.1461 209.157 71.3935C204.03 65.0267 189.557 61.8522 182 59.3333C140.871 45.6237 106.252 62.6816 69 79.1397C55.4664 85.1189 41.3663 90.0804 27 93.6258C22.4432 94.7503 12.0197 94.6938 9.01312 98.564C4.47621 104.404 7.15686 117.329 8 124z"/>
<path style="fill:#b2d2d1; stroke:none;" d="M163.667 54.3333L164.333 54.6667L163.667 54.3333z"/>
<path style="fill:#5f7fa3; stroke:none;" d="M204 54L205 55L204 54z"/>
<path style="fill:#7fb1bd; stroke:none;" d="M208 54L209 55L208 54z"/>
<path style="fill:#b2d2d1; stroke:none;" d="M15 55L16 56L15 55M20 55L21 56L20 55M128.667 55.3333L129.333 55.6667L128.667 55.3333M168.667 55.3333L169.333 55.6667L168.667 55.3333M204 55L205 56L204 55M209 55L210 56L209 55z"/>
<path style="fill:#5f7fa3; stroke:none;" d="M15 56L16 57L15 56M19 56L20 57L19 56z"/>
<path style="fill:#b2d2d1; stroke:none;" d="M42 63L39 65L38 65C34.483 62.4549 29.8329 66.2561 33.6042 68.8735C38.8487 72.5134 49.1621 69.1442 43 62L46 61C50.3203 72.7405 58.2106 54.5007 46 60C43.9924 53.9425 37.9843 57.0289 42 63M124.667 56.3333L125.333 56.6667L124.667 56.3333M172.667 56.3333L173.333 56.6667L172.667 56.3333z"/>
<path style="fill:#5f7fa3; stroke:none;" d="M205 56L206 57L205 56M209 56L210 57L209 56z"/>
<path style="fill:#b2d2d1; stroke:none;" d="M14 57L15 58L14 57z"/>
<path style="fill:#5f7fa3; stroke:none;" d="M18 57L19 58L18 57z"/>
<path style="fill:#b2d2d1; stroke:none;" d="M56 57L56 61L57 61L58 57L56 57M75 57C65.907 57.7263 74.2737 66.093 75 57M86.4444 58.0857C82.9166 60.2124 86.0524 65.8755 89.6929 63.8634C93.4133 61.8072 90.0943 55.8855 86.4444 58.0857M120.667 57.3333L121.333 57.6667L120.667 57.3333M176.667 57.3333L177.333 57.6667L176.667 57.3333z"/>
<path style="fill:#5f7fa3; stroke:none;" d="M206 57L207 58L206 57z"/>
<path style="fill:#b2d2d1; stroke:none;" d="M210 57L211 58L210 57z"/>
<path style="fill:#5f7fa3; stroke:none;" d="M14 58L15 59L14 58z"/>
<path style="fill:#7fb1bd; stroke:none;" d="M18 58L19 59L18 58z"/>
<path style="fill:#b2d2d1; stroke:none;" d="M117.667 58.3333L118.333 58.6667L117.667 58.3333M179.667 58.3333L180.333 58.6667L179.667 58.3333z"/>
<path style="fill:#7fb1bd; stroke:none;" d="M206 58L207 59L206 58z"/>
<path style="fill:#5f7fa3; stroke:none;" d="M210 58L211 59L210 58z"/>
<path style="fill:#b2d2d1; stroke:none;" d="M13 59L14 60L13 59M28 64L29 59C24.9748 59.7048 24.3555 61.9057 28 64M114.667 59.3333L115.333 59.6667L114.667 59.3333M182.667 59.3333L183.333 59.6667L182.667 59.3333M211 59L212 60L211 59z"/>
<path style="fill:#5f7fa3; stroke:none;" d="M13 60L14 61L13 60z"/>
<path style="fill:#b2d2d1; stroke:none;" d="M17 60L18 61L17 60M111 60L112 61L111 60M185.667 60.3333L186.333 60.6667L185.667 60.3333M207 60L208 61L207 60z"/>
<path style="fill:#5f7fa3; stroke:none;" d="M211 60L212 61L211 60z"/>
<path style="fill:#7fb1bd; stroke:none;" d="M12 61L13 62L12 61z"/>
<path style="fill:#5f7fa3; stroke:none;" d="M16 61L17 62L16 61z"/>
<path style="fill:#b2d2d1; stroke:none;" d="M62.8063 62.0671C60.9734 63.6113 63.3526 66.4839 65.1937 64.9329C67.0266 63.3887 64.6474 60.5161 62.8063 62.0671M109 61L110 62L109 61M188 61L189 62L188 61z"/>
<path style="fill:#5f7fa3; stroke:none;" d="M208 61L209 62L208 61z"/>
<path style="fill:#7fb1bd; stroke:none;" d="M212 61L213 62L212 61z"/>
<path style="fill:#b2d2d1; stroke:none;" d="M16 62L17 63L16 62M106 62L107 63L106 62M190.667 62.3333L191.333 62.6667L190.667 62.3333M208 62L209 63L208 62z"/>
<path style="fill:#7fb1bd; stroke:none;" d="M11 63L12 64L11 63z"/>
<path style="fill:#5f7fa3; stroke:none;" d="M15 63L16 64L15 63z"/>
<path style="fill:#b2d2d1; stroke:none;" d="M104 63L105 64L104 63M193 63L194 64L193 63z"/>
<path style="fill:#5f7fa3; stroke:none;" d="M209 63L210 64L209 63z"/>
<path style="fill:#7fb1bd; stroke:none;" d="M213 63L214 64L213 63z"/>
<path style="fill:#5f7fa3; stroke:none;" d="M11 64L12 65L11 64z"/>
<path style="fill:#b2d2d1; stroke:none;" d="M15 64L16 65L15 64M77.3326 65.0463C73.6313 67.4692 78.0979 72.3508 81.2539 69.9537C84.5874 67.4218 80.733 62.8203 77.3326 65.0463M101 64L102 65L101 64M195.667 64.3333L196.333 64.6667L195.667 64.3333M209 64L210 65L209 64z"/>
<path style="fill:#5f7fa3; stroke:none;" d="M213 64L214 65L213 64z"/>
<path style="fill:#b2d2d1; stroke:none;" d="M10 65L11 66L10 65z"/>
<path style="fill:#5f7fa3; stroke:none;" d="M14 65L15 66L14 65z"/>
<path style="fill:#b2d2d1; stroke:none;" d="M99 65L100 66L99 65M198 65L199 66L198 65z"/>
<path style="fill:#5f7fa3; stroke:none;" d="M210 65L211 66L210 65z"/>
<path style="fill:#b2d2d1; stroke:none;" d="M214 65L215 66L214 65z"/>
<path style="fill:#5f7fa3; stroke:none;" d="M10 66L11 67L10 66z"/>
<path style="fill:#b2d2d1; stroke:none;" d="M14 66L15 67L14 66M54 70L58 71C58.6891 66.5319 55.4309 65.6947 54 70M96.6667 66.3333L97.3333 66.6667L96.6667 66.3333M200 66L201 67L200 66M210 66L211 67L210 66z"/>
<path style="fill:#5f7fa3; stroke:none;" d="M214 66L215 67L214 66z"/>
<path style="fill:#b2d2d1; stroke:none;" d="M9 67L10 68L9 67z"/>
<path style="fill:#5f7fa3; stroke:none;" d="M13 67L14 68L13 67z"/>
<path style="fill:#b2d2d1; stroke:none;" d="M25 72L25 67C20.0084 67.832 20.0084 71.168 25 72M94.6667 67.3333L95.3333 67.6667L94.6667 67.3333M202.667 67.3333L203.333 67.6667L202.667 67.3333z"/>
<path style="fill:#5f7fa3; stroke:none;" d="M211 67L212 68L211 67z"/>
<path style="fill:#b2d2d1; stroke:none;" d="M215 67L216 68L215 67z"/>
<path style="fill:#5f7fa3; stroke:none;" d="M9 68L10 69L9 68z"/>
<path style="fill:#b2d2d1; stroke:none;" d="M13 68L14 69L13 68M69.3032 69.1752C65.9633 70.8172 68.2473 75.7421 71.6968 74.338C75.1146 72.9467 72.5686 67.5698 69.3032 69.1752M92 68L93 69L92 68M205 68L206 69L205 68M211 68L212 69L211 68z"/>
<path style="fill:#5f7fa3; stroke:none;" d="M215 68L216 69L215 68z"/>
<path style="fill:#b2d2d1; stroke:none;" d="M8 69L9 70L8 69z"/>
<path style="fill:#5f7fa3; stroke:none;" d="M12 69L13 70L12 69z"/>
<path style="fill:#b2d2d1; stroke:none;" d="M47 69L48 73L50 73L51 69L47 69M90 69L91 70L90 69M207 69L208 70L207 69z"/>
<path style="fill:#5f7fa3; stroke:none;" d="M212 69L213 70L212 69z"/>
<path style="fill:#b2d2d1; stroke:none;" d="M216 69L217 70L216 69z"/>
<path style="fill:#7fb1bd; stroke:none;" d="M8 70L9 71L8 70M12 70L13 71L12 70z"/>
<path style="fill:#b2d2d1; stroke:none;" d="M88 70L89 71L88 70M209 70L210 71L209 70z"/>
<path style="fill:#7fb1bd; stroke:none;" d="M212 70L213 71L212 70M216 70L217 71L216 70z"/>
<path style="fill:#5f7fa3; stroke:none;" d="M8 71L9 72L8 71z"/>
<path style="fill:#b2d2d1; stroke:none;" d="M34 75C16.7062 75.5679 40.8779 87.2326 41.2485 74.9105C41.4075 69.6207 35.1892 71.4202 34 75M60 77C50.2007 74.7696 58.3253 86.6429 60 77C70.5065 78.5354 59.5811 65.8476 60 77M85.6667 71.3333L86.3333 71.6667L85.6667 71.3333z"/>
<path style="fill:#5f7fa3; stroke:none;" d="M216 71L217 72L216 71z"/>
<path style="fill:#b2d2d1; stroke:none;" d="M7 72L8 73L7 72z"/>
<path style="fill:#5f7fa3; stroke:none;" d="M11 72L12 73L11 72z"/>
<path style="fill:#b2d2d1; stroke:none;" d="M83 72L84 73L83 72z"/>
<path style="fill:#5f7fa3; stroke:none;" d="M213 72L214 73L213 72z"/>
<path style="fill:#b2d2d1; stroke:none;" d="M217 72L218 73L217 72z"/>
<path style="fill:#5f7fa3; stroke:none;" d="M7 73L8 74L7 73z"/>
<path style="fill:#b2d2d1; stroke:none;" d="M11 73L12 74L11 73M81 73L82 74L81 73M210 73L211 74L210 73M213 73L214 74L213 73z"/>
<path style="fill:#5f7fa3; stroke:none;" d="M217 73L218 74L217 73M10 74L11 75L10 74z"/>
<path style="fill:#b2d2d1; stroke:none;" d="M21.1844 75.1759C18.0716 75.6563 18.8752 80.5833 21.9599 80.0795C25.1721 79.5548 24.42 74.6766 21.1844 75.1759M79 74L80 75L79 74z"/>
<path style="fill:#5f7fa3; stroke:none;" d="M214 74L215 75L214 74z"/>
<path style="fill:#7fb1bd; stroke:none;" d="M6 75L7 76L6 75M10 75L11 76L10 75z"/>
<path style="fill:#b2d2d1; stroke:none;" d="M77 75L78 76L77 75M211.333 75.6667L211.667 76.3333L211.333 75.6667z"/>
<path style="fill:#7fb1bd; stroke:none;" d="M214 75L215 76L214 75M218 75L219 76L218 75z"/>
<path style="fill:#5f7fa3; stroke:none;" d="M6 76L7 77L6 76z"/>
<path style="fill:#b2d2d1; stroke:none;" d="M10 76L11 77L10 76M74 76L75 77L74 76M214 76L215 77L214 76z"/>
<path style="fill:#5f7fa3; stroke:none;" d="M218 76L219 77L218 76M9 77L10 78L9 77z"/>
<path style="fill:#b2d2d1; stroke:none;" d="M72 77L73 78L72 77z"/>
<path style="fill:#5f7fa3; stroke:none;" d="M215 77L216 78L215 77z"/>
<path style="fill:#7fb1bd; stroke:none;" d="M5 78L6 79L5 78M9 78L10 79L9 78z"/>
<path style="fill:#b2d2d1; stroke:none;" d="M43.8457 79.0664C42.263 80.5272 44.6972 82.783 46.1914 81.3071C47.6983 79.8186 45.311 77.7138 43.8457 79.0664M70 78L71 79L70 78M212 78L213 79L212 78z"/>
<path style="fill:#7fb1bd; stroke:none;" d="M215 78L216 79L215 78M219 78L220 79L219 78z"/>
<path style="fill:#5f7fa3; stroke:none;" d="M5 79L6 80L5 79z"/>
<path style="fill:#b2d2d1; stroke:none;" d="M9 79L10 80L9 79M67.6667 79.3333L68.3333 79.6667L67.6667 79.3333M215 79L216 80L215 79z"/>
<path style="fill:#5f7fa3; stroke:none;" d="M219 79L220 80L219 79z"/>
<path style="fill:#b2d2d1; stroke:none;" d="M4.33333 80.6667L4.66667 81.3333L4.33333 80.6667M65 80L66 81L65 80M220.333 80.6667L220.667 81.3333L220.333 80.6667z"/>
<path style="fill:#7fb1bd; stroke:none;" d="M8 81L9 82L8 81z"/>
<path style="fill:#b2d2d1; stroke:none;" d="M63 81L64 82L63 81M213.333 81.6667L213.667 82.3333L213.333 81.6667z"/>
<path style="fill:#7fb1bd; stroke:none;" d="M216 81L217 82L216 81M4 82L5 83L4 82z"/>
<path style="fill:#b2d2d1; stroke:none;" d="M8 82L9 83L8 82M36 82L35 86L38 87L38 82L36 82M60.6667 82.3333L61.3333 82.6667L60.6667 82.3333M216 82L217 83L216 82z"/>
<path style="fill:#7fb1bd; stroke:none;" d="M220 82L221 83L220 82z"/>
<path style="fill:#5f7fa3; stroke:none;" d="M4 83L5 84L4 83z"/>
<path style="fill:#b2d2d1; stroke:none;" d="M58 83L59 84L58 83z"/>
<path style="fill:#5f7fa3; stroke:none;" d="M220 83L221 84L220 83z"/>
<path style="fill:#b2d2d1; stroke:none;" d="M3 84L4 85L3 84z"/>
<path style="fill:#5f7fa3; stroke:none;" d="M7 84L8 85L7 84z"/>
<path style="fill:#b2d2d1; stroke:none;" d="M55 84L56 85L55 84M214.333 84.6667L214.667 85.3333L214.333 84.6667z"/>
<path style="fill:#5f7fa3; stroke:none;" d="M217 84L218 85L217 84z"/>
<path style="fill:#b2d2d1; stroke:none;" d="M221 84L222 85L221 84z"/>
<path style="fill:#7fb1bd; stroke:none;" d="M3 85L4 86L3 85M7 85L8 86L7 85z"/>
<path style="fill:#b2d2d1; stroke:none;" d="M28 86L28 87L32 85L28 86M52.6667 85.3333L53.3333 85.6667L52.6667 85.3333z"/>
<path style="fill:#7fb1bd; stroke:none;" d="M217 85L218 86L217 85M221 85L222 86L221 85z"/>
<path style="fill:#5f7fa3; stroke:none;" d="M3 86L4 87L3 86z"/>
<path style="fill:#b2d2d1; stroke:none;" d="M7 86L8 87L7 86M12.6073 87.0463C9.77486 89.3335 13.6257 93.7478 16.3573 91.2037C18.9769 88.7638 15.3038 84.8688 12.6073 87.0463M50 86L51 87L50 86M217 86L218 87L217 86z"/>
<path style="fill:#5f7fa3; stroke:none;" d="M221 86L222 87L221 86M6.33333 87.6667L6.66667 88.3333L6.33333 87.6667z"/>
<path style="fill:#b2d2d1; stroke:none;" d="M47 87L48 88L47 87z"/>
<path style="fill:#5f7fa3; stroke:none;" d="M218.333 87.6667L218.667 88.3333L218.333 87.6667z"/>
<path style="fill:#b2d2d1; stroke:none;" d="M44 88L45 89L44 88M215.333 88.6667L215.667 89.3333L215.333 88.6667M2 89L3 90L2 89z"/>
<path style="fill:#7fb1bd; stroke:none;" d="M6 89L7 90L6 89z"/>
<path style="fill:#b2d2d1; stroke:none;" d="M41 89L42 90L41 89z"/>
<path style="fill:#7fb1bd; stroke:none;" d="M218 89L219 90L218 89z"/>
<path style="fill:#b2d2d1; stroke:none;" d="M222 89L223 90L222 89z"/>
<path style="fill:#7fb1bd; stroke:none;" d="M2 90L3 91L2 90z"/>
<path style="fill:#b2d2d1; stroke:none;" d="M6 90L7 91L6 90M37.6667 90.3333L38.3333 90.6667L37.6667 90.3333M218 90L219 91L218 90z"/>
<path style="fill:#7fb1bd; stroke:none;" d="M222 90L223 91L222 90z"/>
<path style="fill:#5f7fa3; stroke:none;" d="M2.33333 91.6667L2.66667 92.3333L2.33333 91.6667z"/>
<path style="fill:#b2d2d1; stroke:none;" d="M34.6667 91.3333L35.3333 91.6667L34.6667 91.3333z"/>
<path style="fill:#5f7fa3; stroke:none;" d="M222.333 91.6667L222.667 92.3333L222.333 91.6667z"/>
<path style="fill:#b2d2d1; stroke:none;" d="M30.6667 92.3333L31.3333 92.6667L30.6667 92.3333M1 93L1 96L2 96L1 93z"/>
<path style="fill:#5f7fa3; stroke:none;" d="M5 93L6 94L5 93z"/>
<path style="fill:#b2d2d1; stroke:none;" d="M26.6667 93.3333L27.3333 93.6667L26.6667 93.3333M216 93L216 96L217 96L216 93z"/>
<path style="fill:#5f7fa3; stroke:none;" d="M219 93L220 94L219 93z"/>
<path style="fill:#b2d2d1; stroke:none;" d="M223 93L223 96L224 96L223 93z"/>
<path style="fill:#7fb1bd; stroke:none;" d="M5.33333 94.6667L5.66667 95.3333L5.33333 94.6667z"/>
<path style="fill:#b2d2d1; stroke:none;" d="M21 94L21 95L24 95L21 94z"/>
<path style="fill:#7fb1bd; stroke:none;" d="M219.333 94.6667L219.667 95.3333L219.333 94.6667z"/>
<path style="fill:#b2d2d1; stroke:none;" d="M17.6667 95.3333L18.3333 95.6667L17.6667 95.3333z"/>
<path style="fill:#7fb1bd; stroke:none;" d="M1 96L2 97L1 96z"/>
<path style="fill:#b2d2d1; stroke:none;" d="M5.33333 96.6667L5.66667 97.3333L5.33333 96.6667M11.6667 96.3333L12.3333 96.6667L11.6667 96.3333M219.333 96.6667L219.667 97.3333L219.333 96.6667z"/>
<path style="fill:#7fb1bd; stroke:none;" d="M223 96L224 97L223 96z"/>
<path style="fill:#5f7fa3; stroke:none;" d="M1 97L1 100L2 100L1 97z"/>
<path style="fill:#b2d2d1; stroke:none;" d="M8 97L9 98L8 97z"/>
<path style="fill:#5f7fa3; stroke:none;" d="M223 97L223 100L224 100L223 97M4 98L4 101L5 101L4 98M220 98L220 101L221 101L220 98z"/>
<path style="fill:#b2d2d1; stroke:none;" d="M7 99L7 104L8 104L7 99M217 99L217 105L218 105L217 99M74 100L74 101L80 101L74 100z"/>
<path style="fill:#fbfcfd; stroke:none;" d="M13 122L13 123C23.257 121.172 33.3273 114.51 43 110.604C58.6022 104.304 75.1517 100.929 92 102.09C122.114 104.163 145.383 126.073 174 131C167.205 125.857 157.706 123.409 150 119.745C124.93 107.824 98.2288 97.0192 70 101.439C49.7452 104.61 31.7157 114.322 13 122z"/>
<path style="fill:#b2d2d1; stroke:none;" d="M88 100L88 101L95 101L88 100M0 101L0 104L1 104L0 101z"/>
<path style="fill:#7fb1bd; stroke:none;" d="M4.33333 101.667L4.66667 102.333L4.33333 101.667z"/>
<path style="fill:#b2d2d1; stroke:none;" d="M68.6667 101.333L69.3333 101.667L68.6667 101.333M98 101L98 102L101 102L98 101z"/>
<path style="fill:#7fb1bd; stroke:none;" d="M220.333 101.667L220.667 102.333L220.333 101.667z"/>
<path style="fill:#b2d2d1; stroke:none;" d="M224 101L224 105L225 105L224 101M63.6667 102.333L64.3333 102.667L63.6667 102.333M72 102L72 103L75 103L72 102z"/>
<path style="fill:#7fb1bd; stroke:none;" d="M75.6667 102.333L76.3333 102.667L75.6667 102.333z"/>
<path style="fill:#5f7fa3; stroke:none;" d="M8 126L17 158L18 158L18 148L42 148C42 143.905 40.6632 136.861 43.0278 133.318C46.3209 128.383 61.675 131 67 131L67 128L93 128C93 131.357 91.8213 137.611 94.0278 140.397C97.331 144.567 112.998 142 118 142L118 160L142 160L142 173L166 173C166.989 185.696 185.591 173.657 191 182C201.881 173.141 208.599 157.011 213 144C169.449 135.549 130.835 103.096 86 102.015C57.3794 101.325 34.0032 117.146 8 126z"/>
<path style="fill:#7fb1bd; stroke:none;" d="M91 102L91 103L94 103L91 102z"/>
<path style="fill:#b2d2d1; stroke:none;" d="M94.6667 102.333L95.3333 102.667L94.6667 102.333M104.667 102.333L105.333 102.667L104.667 102.333M4 103L4 122L5 122L4 103M59.6667 103.333L60.3333 103.667L59.6667 103.333M66.6667 103.333L67.3333 103.667L66.6667 103.333z"/>
<path style="fill:#7fb1bd; stroke:none;" d="M68.6667 103.333L69.3333 103.667L68.6667 103.333M98.6667 103.333L99.3333 103.667L98.6667 103.333z"/>
<path style="fill:#b2d2d1; stroke:none;" d="M100.667 103.333L101.333 103.667L100.667 103.333M108.667 103.333L109.333 103.667L108.667 103.333M220 103L220 122L221 122L220 103z"/>
<path style="fill:#7fb1bd; stroke:none;" d="M0 104L0 107L1 107L0 104z"/>
<path style="fill:#b2d2d1; stroke:none;" d="M55.6667 104.333L56.3333 104.667L55.6667 104.333M62 104L63 105L62 104z"/>
<path style="fill:#7fb1bd; stroke:none;" d="M63.6667 104.333L64.3333 104.667L63.6667 104.333M104 104L105 105L104 104z"/>
<path style="fill:#b2d2d1; stroke:none;" d="M105.667 104.333L106.333 104.667L105.667 104.333M111.667 104.333L112.333 104.667L111.667 104.333M52.6667 105.333L53.3333 105.667L52.6667 105.333M58 105L59 106L58 105z"/>
<path style="fill:#7fb1bd; stroke:none;" d="M59 105L60 106L59 105M108 105L109 106L108 105z"/>
<path style="fill:#b2d2d1; stroke:none;" d="M109.667 105.333L110.333 105.667L109.667 105.333M115 105L116 106L115 105z"/>
<path style="fill:#7fb1bd; stroke:none;" d="M224.333 105.667L224.667 106.333L224.333 105.667z"/>
<path style="fill:#b2d2d1; stroke:none;" d="M49.6667 106.333L50.3333 106.667L49.6667 106.333M54.6667 106.333L55.3333 106.667L54.6667 106.333z"/>
<path style="fill:#7fb1bd; stroke:none;" d="M56 106L57 107L56 106M111.667 106.333L112.333 106.667L111.667 106.333z"/>
<path style="fill:#b2d2d1; stroke:none;" d="M113 106L114 107L113 106M118 106L119 107L118 106z"/>
<path style="fill:#5f7fa3; stroke:none;" d="M0 107L0 118L1 118L0 107z"/>
<path style="fill:#b2d2d1; stroke:none;" d="M47 107L48 108L47 107M51 107L52 108L51 107z"/>
<path style="fill:#7fb1bd; stroke:none;" d="M52.6667 107.333L53.3333 107.667L52.6667 107.333M115 107L116 108L115 107z"/>
<path style="fill:#b2d2d1; stroke:none;" d="M116 107L117 108L116 107M121 107L122 108L121 107z"/>
<path style="fill:#5f7fa3; stroke:none;" d="M224 107L224 118L225 118L224 107z"/>
<path style="fill:#b2d2d1; stroke:none;" d="M44 108L45 109L44 108M48 108L49 109L48 108z"/>
<path style="fill:#7fb1bd; stroke:none;" d="M49 108L50 109L49 108M118 108L119 109L118 108z"/>
<path style="fill:#b2d2d1; stroke:none;" d="M119 108L120 109L119 108M123.667 108.333L124.333 108.667L123.667 108.333M41 109L42 110L41 109M45.6667 109.333L46.3333 109.667L45.6667 109.333z"/>
<path style="fill:#7fb1bd; stroke:none;" d="M47 109L48 110L47 109M121 109L122 110L121 109z"/>
<path style="fill:#b2d2d1; stroke:none;" d="M122 109L123 110L122 109M126 109L127 110L126 109M39 110L40 111L39 110M43 110L44 111L43 110z"/>
<path style="fill:#7fb1bd; stroke:none;" d="M44 110L45 111L44 110M123 110L124 111L123 110z"/>
<path style="fill:#b2d2d1; stroke:none;" d="M124 110L125 111L124 110M36 111L37 112L36 111M40 111L41 112L40 111z"/>
<path style="fill:#7fb1bd; stroke:none;" d="M41 111L42 112L41 111M126 111L127 112L126 111z"/>
<path style="fill:#b2d2d1; stroke:none;" d="M127 111L128 112L127 111M131 111L132 112L131 111M34 112L35 113L34 112M38 112L39 113L38 112z"/>
<path style="fill:#7fb1bd; stroke:none;" d="M39 112L40 113L39 112z"/>
<path style="fill:#b2d2d1; stroke:none;" d="M129 112L130 113L129 112M133.667 112.333L134.333 112.667L133.667 112.333M32 113L33 114L32 113z"/>
<path style="fill:#7fb1bd; stroke:none;" d="M36 113L37 114L36 113M131 113L132 114L131 113z"/>
<path style="fill:#b2d2d1; stroke:none;" d="M132 113L133 114L132 113M136 113L137 114L136 113M29 114L30 115L29 114M33 114L34 115L33 114z"/>
<path style="fill:#7fb1bd; stroke:none;" d="M34 114L35 115L34 114z"/>
<path style="fill:#b2d2d1; stroke:none;" d="M134 114L135 115L134 114M138 114L139 115L138 114M27 115L28 116L27 115M31 115L32 116L31 115z"/>
<path style="fill:#7fb1bd; stroke:none;" d="M32 115L33 116L32 115z"/>
<path style="fill:#b2d2d1; stroke:none;" d="M136 115L137 116L136 115M140 115L141 116L140 115M25 116L26 117L25 116M29 116L30 117L29 116z"/>
<path style="fill:#7fb1bd; stroke:none;" d="M138 116L139 117L138 116z"/>
<path style="fill:#b2d2d1; stroke:none;" d="M142 116L143 117L142 116M23 117L24 118L23 117z"/>
<path style="fill:#7fb1bd; stroke:none;" d="M27 117L28 118L27 117z"/>
<path style="fill:#b2d2d1; stroke:none;" d="M141 117L142 118L141 117M145 117L146 118L145 117z"/>
<path style="fill:#7fb1bd; stroke:none;" d="M0 118L0 121L1 121L0 118z"/>
<path style="fill:#b2d2d1; stroke:none;" d="M20.6667 118.333L21.3333 118.667L20.6667 118.333M24 118L25 119L24 118z"/>
<path style="fill:#7fb1bd; stroke:none;" d="M25 118L26 119L25 118M142 118L143 119L142 118z"/>
<path style="fill:#b2d2d1; stroke:none;" d="M143 118L144 119L143 118M147 118L148 119L147 118z"/>
<path style="fill:#7fb1bd; stroke:none;" d="M224.333 118.667L224.667 119.333L224.333 118.667z"/>
<path style="fill:#b2d2d1; stroke:none;" d="M18 119L19 120L18 119M22 119L23 120L22 119z"/>
<path style="fill:#7fb1bd; stroke:none;" d="M23 119L24 120L23 119z"/>
<path style="fill:#b2d2d1; stroke:none;" d="M145 119L146 120L145 119M149 119L150 120L149 119M7 120L7 124L8 124L7 120M16 120L17 121L16 120M20 120L21 121L20 120z"/>
<path style="fill:#7fb1bd; stroke:none;" d="M147 120L148 121L147 120z"/>
<path style="fill:#b2d2d1; stroke:none;" d="M151 120L152 121L151 120M217 120L217 126L218 126L217 120M224 120L224 124L225 124L224 120M0 121L0 124L1 124L0 121M14 121L15 122L14 121z"/>
<path style="fill:#7fb1bd; stroke:none;" d="M18 121L19 122L18 121M149 121L150 122L149 121z"/>
<path style="fill:#b2d2d1; stroke:none;" d="M150 121L151 122L150 121M153 121L154 122L153 121z"/>
<path style="fill:#7fb1bd; stroke:none;" d="M4.33333 122.667L4.66667 123.333L4.33333 122.667z"/>
<path style="fill:#b2d2d1; stroke:none;" d="M12 122L13 123L12 122z"/>
<path style="fill:#7fb1bd; stroke:none;" d="M16 122L17 123L16 122M151 122L152 123L151 122z"/>
<path style="fill:#b2d2d1; stroke:none;" d="M152 122L153 123L152 122z"/>
<path style="fill:#7fb1bd; stroke:none;" d="M220.333 122.667L220.667 123.333L220.333 122.667z"/>
<path style="fill:#b2d2d1; stroke:none;" d="M9 123L10 124L9 123M13 123L14 124L13 123z"/>
<path style="fill:#7fb1bd; stroke:none;" d="M14 123L15 124L14 123z"/>
<path style="fill:#b2d2d1; stroke:none;" d="M154 123L155 124L154 123M158 123L159 124L158 123z"/>
<path style="fill:#fbfcfd; stroke:none;" d="M0 124L0 225L101 225L101 224C61.7112 223.675 25.6301 191.81 9.78164 158C4.6707 147.097 4.51839 134.668 0 124z"/>
<path style="fill:#5f7fa3; stroke:none;" d="M4 124L4 127L5 127L4 124z"/>
<path style="fill:#b2d2d1; stroke:none;" d="M11 124L12 125L11 124z"/>
<path style="fill:#7fb1bd; stroke:none;" d="M12 124L13 125L12 124z"/>
<path style="fill:#b2d2d1; stroke:none;" d="M156 124L157 125L156 124M160 124L161 125L160 124z"/>
<path style="fill:#5f7fa3; stroke:none;" d="M220 124L220 127L221 127L220 124z"/>
<path style="fill:#fbfcfd; stroke:none;" d="M224 124C223.596 172.765 172.764 223.596 124 224L124 225L225 225L225 155L224 124z"/>
<path style="fill:#5f7fa3; stroke:none;" d="M1 125L1 128L2 128L1 125z"/>
<path style="fill:#b2d2d1; stroke:none;" d="M9 125L10 126L9 125z"/>
<path style="fill:#7fb1bd; stroke:none;" d="M158 125L159 126L158 125z"/>
<path style="fill:#b2d2d1; stroke:none;" d="M162 125L163 126L162 125z"/>
<path style="fill:#5f7fa3; stroke:none;" d="M223 125L223 128L224 128L223 125z"/>
<path style="fill:#7fb1bd; stroke:none;" d="M160 126L161 127L160 126z"/>
<path style="fill:#b2d2d1; stroke:none;" d="M161 126L162 127L161 126M165 126L166 127L165 126M5.33333 127.667L5.66667 128.333L5.33333 127.667z"/>
<path style="fill:#7fb1bd; stroke:none;" d="M8 127L8 130L9 130L8 127M162 127L163 128L162 127z"/>
<path style="fill:#b2d2d1; stroke:none;" d="M163 127L164 128L163 127M167 127L168 128L167 127M219.333 127.667L219.667 128.333L219.333 127.667z"/>
<path style="fill:#7fb1bd; stroke:none;" d="M1 128L2 129L1 128z"/>
<path style="fill:#b2d2d1; stroke:none;" d="M67 128L67 129L93 129L67 128M165 128L166 129L165 128M169 128L170 129L169 128z"/>
<path style="fill:#7fb1bd; stroke:none;" d="M223 128L224 129L223 128z"/>
<path style="fill:#b2d2d1; stroke:none;" d="M1 129L1 132L2 132L1 129z"/>
<path style="fill:#7fb1bd; stroke:none;" d="M5.33333 129.667L5.66667 130.333L5.33333 129.667M167 129L168 130L167 129z"/>
<path style="fill:#b2d2d1; stroke:none;" d="M168 129L169 130L168 129M172 129L173 130L172 129M216 129L216 132L217 132L216 129z"/>
<path style="fill:#7fb1bd; stroke:none;" d="M219.333 129.667L219.667 130.333L219.333 129.667z"/>
<path style="fill:#b2d2d1; stroke:none;" d="M223 129L223 132L224 132L223 129M8 130L9 131L8 130z"/>
<path style="fill:#5f7fa3; stroke:none;" d="M69 130L69 131L91 131L69 130z"/>
<path style="fill:#b2d2d1; stroke:none;" d="M91 130L91 216L92 216L92 157L91 130z"/>
<path style="fill:#7fb1bd; stroke:none;" d="M169 130L170 131L169 130z"/>
<path style="fill:#b2d2d1; stroke:none;" d="M170 130L171 131L170 130M174.667 130.333L175.333 130.667L174.667 130.333z"/>
<path style="fill:#5f7fa3; stroke:none;" d="M5 131L6 132L5 131z"/>
<path style="fill:#b2d2d1; stroke:none;" d="M43 131L43 132L67 132L43 131z"/>
<path style="fill:#434778; stroke:none;" d="M69 131L69 186C69 191.571 66.8607 202.814 70.0278 207.581C73.385 212.635 85.4279 214.25 91 215L91 131L69 131z"/>
<path style="fill:#7fb1bd; stroke:none;" d="M172 131L173 132L172 131z"/>
<path style="fill:#b2d2d1; stroke:none;" d="M173 131L174 132L173 131M177 131L178 132L177 131z"/>
<path style="fill:#5f7fa3; stroke:none;" d="M219 131L220 132L219 131M2.33333 132.667L2.66667 133.333L2.33333 132.667z"/>
<path style="fill:#7fb1bd; stroke:none;" d="M42 132L42 148L43 148L42 132z"/>
<path style="fill:#b2d2d1; stroke:none;" d="M68 132L69 133L68 132M175 132L176 133L175 132M180 132L181 133L180 132z"/>
<path style="fill:#5f7fa3; stroke:none;" d="M222.333 132.667L222.667 133.333L222.333 132.667z"/>
<path style="fill:#b2d2d1; stroke:none;" d="M44 133L45 134L44 133z"/>
<path style="fill:#5f7fa3; stroke:none;" d="M45 133L45 134L67 134L45 133z"/>
<path style="fill:#7fb1bd; stroke:none;" d="M177 133L178 134L177 133z"/>
<path style="fill:#b2d2d1; stroke:none;" d="M178 133L179 134L178 133M182.667 133.333L183.333 133.667L182.667 133.333z"/>
<path style="fill:#7fb1bd; stroke:none;" d="M2 134L3 135L2 134z"/>
<path style="fill:#b2d2d1; stroke:none;" d="M6 134L7 135L6 134z"/>
<path style="fill:#7fb1bd; stroke:none;" d="M9 134L10 135L9 134M44 134L44 193L45 193L45 153L44 134z"/>
<path style="fill:#434778; stroke:none;" d="M45 134L45 175C45 180.176 43.5036 188.232 46.0278 192.91C49.5144 199.371 60.3674 204.586 67 207L67 134L45 134z"/>
<path style="fill:#b2d2d1; stroke:none;" d="M180 134L181 135L180 134M185 134L186 135L185 134M218 134L219 135L218 134z"/>
<path style="fill:#7fb1bd; stroke:none;" d="M222 134L223 135L222 134z"/>
<path style="fill:#b2d2d1; stroke:none;" d="M2 135L3 136L2 135z"/>
<path style="fill:#7fb1bd; stroke:none;" d="M6 135L7 136L6 135z"/>
<path style="fill:#b2d2d1; stroke:none;" d="M9 135L10 136L9 135M183 135L184 136L183 135M188 135L189 136L188 135M215.333 135.667L215.667 136.333L215.333 135.667z"/>
<path style="fill:#7fb1bd; stroke:none;" d="M218 135L219 136L218 135z"/>
<path style="fill:#b2d2d1; stroke:none;" d="M222 135L223 136L222 135z"/>
<path style="fill:#5f7fa3; stroke:none;" d="M6.33333 136.667L6.66667 137.333L6.33333 136.667z"/>
<path style="fill:#7fb1bd; stroke:none;" d="M185 136L186 137L185 136z"/>
<path style="fill:#b2d2d1; stroke:none;" d="M186 136L187 137L186 136M191.667 136.333L192.333 136.667L191.667 136.333z"/>
<path style="fill:#5f7fa3; stroke:none;" d="M218.333 136.667L218.667 137.333L218.333 136.667z"/>
<path style="fill:#7fb1bd; stroke:none;" d="M188 137L189 138L188 137z"/>
<path style="fill:#b2d2d1; stroke:none;" d="M189 137L190 138L189 137M194.667 137.333L195.333 137.667L194.667 137.333z"/>
<path style="fill:#5f7fa3; stroke:none;" d="M3 138L4 139L3 138z"/>
<path style="fill:#b2d2d1; stroke:none;" d="M7 138L8 139L7 138z"/>
<path style="fill:#7fb1bd; stroke:none;" d="M10 138L11 139L10 138z"/>
<path style="fill:#b2d2d1; stroke:none;" d="M192 138L193 139L192 138M198.667 138.333L199.333 138.667L198.667 138.333M217 138L218 139L217 138z"/>
<path style="fill:#5f7fa3; stroke:none;" d="M221 138L222 139L221 138z"/>
<path style="fill:#7fb1bd; stroke:none;" d="M3 139L4 140L3 139M7 139L8 140L7 139z"/>
<path style="fill:#b2d2d1; stroke:none;" d="M10.3333 139.667L10.6667 140.333L10.3333 139.667z"/>
<path style="fill:#7fb1bd; stroke:none;" d="M195 139L196 140L195 139z"/>
<path style="fill:#b2d2d1; stroke:none;" d="M196 139L197 140L196 139M201.667 139.333L202.333 139.667L201.667 139.333M214.333 139.667L214.667 140.333L214.333 139.667z"/>
<path style="fill:#7fb1bd; stroke:none;" d="M217 139L218 140L217 139M221 139L222 140L221 139z"/>
<path style="fill:#b2d2d1; stroke:none;" d="M3 140L4 141L3 140z"/>
<path style="fill:#5f7fa3; stroke:none;" d="M7 140L8 141L7 140z"/>
<path style="fill:#7fb1bd; stroke:none;" d="M198 140L199 141L198 140z"/>
<path style="fill:#b2d2d1; stroke:none;" d="M199 140L200 141L199 140M205.667 140.333L206.333 140.667L205.667 140.333z"/>
<path style="fill:#5f7fa3; stroke:none;" d="M217 140L218 141L217 140z"/>
<path style="fill:#b2d2d1; stroke:none;" d="M221 140L222 141L221 140z"/>
<path style="fill:#5f7fa3; stroke:none;" d="M4 141L5 142L4 141z"/>
<path style="fill:#7fb1bd; stroke:none;" d="M11.3333 141.667L11.6667 142.333L11.3333 141.667M93 141L94 142L93 141M202 141L203 142L202 141z"/>
<path style="fill:#b2d2d1; stroke:none;" d="M203 141L204 142L203 141M210.667 141.333L211.333 141.667L210.667 141.333z"/>
<path style="fill:#5f7fa3; stroke:none;" d="M220 141L221 142L220 141z"/>
<path style="fill:#7fb1bd; stroke:none;" d="M4 142L5 143L4 142z"/>
<path style="fill:#b2d2d1; stroke:none;" d="M8 142L9 143L8 142z"/>
<path style="fill:#7fb1bd; stroke:none;" d="M117 142C117 146.363 115.21 155.839 118.028 159.397C121.331 163.567 136.998 161 142 161L142 160L118 160L117 142M205.667 142.333L206.333 142.667L205.667 142.333z"/>
<path style="fill:#b2d2d1; stroke:none;" d="M207.667 142.333L208.333 142.667L207.667 142.333M216 142L217 143L216 142z"/>
<path style="fill:#7fb1bd; stroke:none;" d="M220 142L221 143L220 142z"/>
<path style="fill:#b2d2d1; stroke:none;" d="M4.33333 143.667L4.66667 144.333L4.33333 143.667z"/>
<path style="fill:#7fb1bd; stroke:none;" d="M8 143L9 144L8 143z"/>
<path style="fill:#b2d2d1; stroke:none;" d="M11 143L12 144L11 143M93 143L93 144L115 144L93 143z"/>
<path style="fill:#7fb1bd; stroke:none;" d="M210 143L211 144L210 143z"/>
<path style="fill:#b2d2d1; stroke:none;" d="M211.667 143.333L212.333 143.667L211.667 143.333z"/>
<path style="fill:#7fb1bd; stroke:none;" d="M216 143L217 144L216 143z"/>
<path style="fill:#b2d2d1; stroke:none;" d="M220.333 143.667L220.667 144.333L220.333 143.667z"/>
<path style="fill:#434778; stroke:none;" d="M93 144L93 216L115 217L115 144L93 144z"/>
<path style="fill:#5f7fa3; stroke:none;" d="M115 144L116 145L115 144M5 145L6 146L5 145z"/>
<path style="fill:#b2d2d1; stroke:none;" d="M9 145L10 146L9 145z"/>
<path style="fill:#7fb1bd; stroke:none;" d="M12 145L13 146L12 145M115 145L115 218L116 218L116 168L115 145M212 145L213 146L212 145z"/>
<path style="fill:#b2d2d1; stroke:none;" d="M215 145L216 146L215 145z"/>
<path style="fill:#5f7fa3; stroke:none;" d="M219 145L220 146L219 145z"/>
<path style="fill:#7fb1bd; stroke:none;" d="M5 146L6 147L5 146M9 146L10 147L9 146z"/>
<path style="fill:#b2d2d1; stroke:none;" d="M12 146L13 147L12 146M212 146L213 147L212 146z"/>
<path style="fill:#7fb1bd; stroke:none;" d="M215 146L216 147L215 146M219 146L220 147L219 146z"/>
<path style="fill:#5f7fa3; stroke:none;" d="M9 147L10 148L9 147M215 147L216 148L215 147M6 148L7 149L6 148z"/>
<path style="fill:#b2d2d1; stroke:none;" d="M10 148L11 149L10 148z"/>
<path style="fill:#7fb1bd; stroke:none;" d="M13 148L14 149L13 148M18 148L19 149L18 148z"/>
<path style="fill:#b2d2d1; stroke:none;" d="M19 148L19 149L43 149L19 148z"/>
<path style="fill:#7fb1bd; stroke:none;" d="M211 148L212 149L211 148z"/>
<path style="fill:#b2d2d1; stroke:none;" d="M214 148L215 149L214 148z"/>
<path style="fill:#5f7fa3; stroke:none;" d="M218 148L219 149L218 148z"/>
<path style="fill:#7fb1bd; stroke:none;" d="M6 149L7 150L6 149M10 149L11 150L10 149z"/>
<path style="fill:#b2d2d1; stroke:none;" d="M13 149L14 150L13 149M18 149L18 160L19 160L18 149M211 149L212 150L211 149z"/>
<path style="fill:#7fb1bd; stroke:none;" d="M214 149L215 150L214 149M218 149L219 150L218 149z"/>
<path style="fill:#5f7fa3; stroke:none;" d="M10 150L11 151L10 150z"/>
<path style="fill:#7fb1bd; stroke:none;" d="M14 150L15 151L14 150M20 150L21 151L20 150z"/>
<path style="fill:#434778; stroke:none;" d="M21 150C21 166.69 27.8658 180.037 42 190L42 150L21 150z"/>
<path style="fill:#5f7fa3; stroke:none;" d="M42 150L42 191L43 191C43 179.304 46.5108 160.75 42 150z"/>
<path style="fill:#7fb1bd; stroke:none;" d="M210 150L211 151L210 150z"/>
<path style="fill:#5f7fa3; stroke:none;" d="M214 150L215 151L214 150M7 151L8 152L7 151z"/>
<path style="fill:#b2d2d1; stroke:none;" d="M11 151L12 152L11 151M14 151L15 152L14 151z"/>
<path style="fill:#5f7fa3; stroke:none;" d="M20 151L20 163L21 163L20 151z"/>
<path style="fill:#b2d2d1; stroke:none;" d="M210 151L211 152L210 151M213 151L214 152L213 151z"/>
<path style="fill:#5f7fa3; stroke:none;" d="M217 151L218 152L217 151z"/>
<path style="fill:#b2d2d1; stroke:none;" d="M7 152L8 153L7 152z"/>
<path style="fill:#5f7fa3; stroke:none;" d="M11 152L12 153L11 152M213 152L214 153L213 152z"/>
<path style="fill:#b2d2d1; stroke:none;" d="M217 152L218 153L217 152z"/>
<path style="fill:#5f7fa3; stroke:none;" d="M8 153L9 154L8 153z"/>
<path style="fill:#b2d2d1; stroke:none;" d="M12 153L13 154L12 153z"/>
<path style="fill:#7fb1bd; stroke:none;" d="M15 153L16 154L15 153M209 153L210 154L209 153z"/>
<path style="fill:#5f7fa3; stroke:none;" d="M216 153L217 154L216 153z"/>
<path style="fill:#7fb1bd; stroke:none;" d="M8 154L9 155L8 154M12 154L13 155L12 154z"/>
<path style="fill:#b2d2d1; stroke:none;" d="M15 154L16 155L15 154M209 154L210 155L209 154z"/>
<path style="fill:#7fb1bd; stroke:none;" d="M212 154L213 155L212 154M216 154L217 155L216 154z"/>
<path style="fill:#b2d2d1; stroke:none;" d="M8 155L9 156L8 155z"/>
<path style="fill:#5f7fa3; stroke:none;" d="M12 155L13 156L12 155z"/>
<path style="fill:#7fb1bd; stroke:none;" d="M16 155L17 156L16 155M208 155L209 156L208 155z"/>
<path style="fill:#5f7fa3; stroke:none;" d="M212 155L213 156L212 155z"/>
<path style="fill:#b2d2d1; stroke:none;" d="M216 155L217 156L216 155z"/>
<path style="fill:#5f7fa3; stroke:none;" d="M9 156L10 157L9 156z"/>
<path style="fill:#b2d2d1; stroke:none;" d="M13 156L14 157L13 156M16 156L17 157L16 156M208 156L209 157L208 156M211 156L212 157L211 156z"/>
<path style="fill:#5f7fa3; stroke:none;" d="M215 156L216 157L215 156z"/>
<path style="fill:#b2d2d1; stroke:none;" d="M9 157L10 158L9 157z"/>
<path style="fill:#5f7fa3; stroke:none;" d="M13 157L14 158L13 157z"/>
<path style="fill:#7fb1bd; stroke:none;" d="M207 157L208 158L207 157z"/>
<path style="fill:#5f7fa3; stroke:none;" d="M211 157L212 158L211 157z"/>
<path style="fill:#b2d2d1; stroke:none;" d="M215 157L216 158L215 157z"/>
<path style="fill:#5f7fa3; stroke:none;" d="M10 158L11 159L10 158z"/>
<path style="fill:#b2d2d1; stroke:none;" d="M14 158L15 159L14 158z"/>
<path style="fill:#7fb1bd; stroke:none;" d="M18 158L19 159L18 158z"/>
<path style="fill:#b2d2d1; stroke:none;" d="M207 158L208 159L207 158M210 158L211 159L210 158z"/>
<path style="fill:#5f7fa3; stroke:none;" d="M214 158L215 159L214 158z"/>
<path style="fill:#b2d2d1; stroke:none;" d="M10 159L11 160L10 159z"/>
<path style="fill:#5f7fa3; stroke:none;" d="M14 159L15 160L14 159M210 159L211 160L210 159z"/>
<path style="fill:#b2d2d1; stroke:none;" d="M214 159L215 160L214 159z"/>
<path style="fill:#5f7fa3; stroke:none;" d="M11 160L12 161L11 160z"/>
<path style="fill:#b2d2d1; stroke:none;" d="M15 160L16 161L15 160M117 160L118 161L117 160M206 160L207 161L206 160M209 160L210 161L209 160z"/>
<path style="fill:#5f7fa3; stroke:none;" d="M213 160L214 161L213 160z"/>
<path style="fill:#7fb1bd; stroke:none;" d="M11 161L12 162L11 161z"/>
<path style="fill:#5f7fa3; stroke:none;" d="M15 161L16 162L15 161z"/>
<path style="fill:#b2d2d1; stroke:none;" d="M141 161L141 173L142 173L141 161z"/>
<path style="fill:#7fb1bd; stroke:none;" d="M205 161L206 162L205 161z"/>
<path style="fill:#5f7fa3; stroke:none;" d="M209 161L210 162L209 161z"/>
<path style="fill:#7fb1bd; stroke:none;" d="M213 161L214 162L213 161z"/>
<path style="fill:#b2d2d1; stroke:none;" d="M16 162L17 163L16 162M117 162L118 163L117 162z"/>
<path style="fill:#7fb1bd; stroke:none;" d="M117 218L118 218L118 163L139 163C135.202 161.406 120.893 159.986 118.028 163.603C115.577 166.698 117 174.269 117 178L117 218z"/>
<path style="fill:#b2d2d1; stroke:none;" d="M139 162L140 163L139 162M205 162L206 163L205 162M208 162L209 163L208 162z"/>
<path style="fill:#7fb1bd; stroke:none;" d="M12 163L13 164L12 163z"/>
<path style="fill:#5f7fa3; stroke:none;" d="M16 163L17 164L16 163z"/>
<path style="fill:#7fb1bd; stroke:none;" d="M20 163L21 164L20 163z"/>
<path style="fill:#434778; stroke:none;" d="M118 163L118 217C122.922 216.986 134.626 217.572 137.972 213.272C140.404 210.148 139 202.746 139 199C139 187.412 137.308 174.307 140 163L118 163z"/>
<path style="fill:#7fb1bd; stroke:none;" d="M204 163L205 164L204 163z"/>
<path style="fill:#5f7fa3; stroke:none;" d="M208 163L209 164L208 163z"/>
<path style="fill:#7fb1bd; stroke:none;" d="M212 163L213 164L212 163z"/>
<path style="fill:#5f7fa3; stroke:none;" d="M13 164L14 165L13 164z"/>
<path style="fill:#b2d2d1; stroke:none;" d="M17 164L18 165L17 164M20 164L21 165L20 164z"/>
<path style="fill:#5f7fa3; stroke:none;" d="M139 164L139 199L137 214L137 215C141.037 212.383 140 207.394 140 203C140 191.842 143.308 174.266 139 164z"/>
<path style="fill:#b2d2d1; stroke:none;" d="M204 164L205 165L204 164M207 164L208 165L207 164z"/>
<path style="fill:#5f7fa3; stroke:none;" d="M211 164L212 165L211 164z"/>
<path style="fill:#b2d2d1; stroke:none;" d="M13 165L14 166L13 165z"/>
<path style="fill:#5f7fa3; stroke:none;" d="M21 165L22 166L21 165z"/>
<path style="fill:#7fb1bd; stroke:none;" d="M203 165L204 166L203 165z"/>
<path style="fill:#b2d2d1; stroke:none;" d="M211 165L212 166L211 165z"/>
<path style="fill:#5f7fa3; stroke:none;" d="M14 166L15 167L14 166z"/>
<path style="fill:#7fb1bd; stroke:none;" d="M18 166L19 167L18 166z"/>
<path style="fill:#b2d2d1; stroke:none;" d="M21 166L22 167L21 166z"/>
<path style="fill:#7fb1bd; stroke:none;" d="M206 166L207 167L206 166z"/>
<path style="fill:#5f7fa3; stroke:none;" d="M210 166L211 167L210 166z"/>
<path style="fill:#b2d2d1; stroke:none;" d="M14 167L15 168L14 167z"/>
<path style="fill:#5f7fa3; stroke:none;" d="M18 167L19 168L18 167z"/>
<path style="fill:#7fb1bd; stroke:none;" d="M22 167L23 168L22 167z"/>
<path style="fill:#b2d2d1; stroke:none;" d="M202 167L203 168L202 167z"/>
<path style="fill:#5f7fa3; stroke:none;" d="M206 167L207 168L206 167z"/>
<path style="fill:#b2d2d1; stroke:none;" d="M210 167L211 168L210 167z"/>
<path style="fill:#5f7fa3; stroke:none;" d="M15 168L16 169L15 168M19 168L20 169L19 168M23 168L24 169L23 168z"/>
<path style="fill:#7fb1bd; stroke:none;" d="M201 168L202 169L201 168z"/>
<path style="fill:#5f7fa3; stroke:none;" d="M205 168L206 169L205 168M209 168L210 169L209 168z"/>
<path style="fill:#b2d2d1; stroke:none;" d="M15 169L16 170L15 169M20 169L21 170L20 169M23 169L24 170L23 169M201 169L202 170L201 169M204 169L205 170L204 169M209 169L210 170L209 169z"/>
<path style="fill:#7fb1bd; stroke:none;" d="M16 170L17 171L16 170z"/>
<path style="fill:#5f7fa3; stroke:none;" d="M20 170L21 171L20 170M24 170L25 171L24 170z"/>
<path style="fill:#7fb1bd; stroke:none;" d="M200 170L201 171L200 170z"/>
<path style="fill:#5f7fa3; stroke:none;" d="M204 170L205 171L204 170z"/>
<path style="fill:#7fb1bd; stroke:none;" d="M208 170L209 171L208 170z"/>
<path style="fill:#5f7fa3; stroke:none;" d="M17 171L18 172L17 171z"/>
<path style="fill:#7fb1bd; stroke:none;" d="M21 171L22 172L21 171z"/>
<path style="fill:#5f7fa3; stroke:none;" d="M25 171L26 172L25 171z"/>
<path style="fill:#7fb1bd; stroke:none;" d="M199 171L200 172L199 171M203 171L204 172L203 171z"/>
<path style="fill:#5f7fa3; stroke:none;" d="M207 171L208 172L207 171z"/>
<path style="fill:#b2d2d1; stroke:none;" d="M17 172L18 173L17 172M22 172L23 173L22 172M25 172L26 173L25 172M199 172L200 173L199 172M202 172L203 173L202 172M207 172L208 173L207 172z"/>
<path style="fill:#5f7fa3; stroke:none;" d="M18 173L19 174L18 173M22 173L23 174L22 173z"/>
<path style="fill:#7fb1bd; stroke:none;" d="M26 173L27 174L26 173z"/>
<path style="fill:#b2d2d1; stroke:none;" d="M142 173L142 174L165 174L142 173z"/>
<path style="fill:#7fb1bd; stroke:none;" d="M165 173L166 174L165 173z"/>
<path style="fill:#b2d2d1; stroke:none;" d="M198 173L199 174L198 173z"/>
<path style="fill:#5f7fa3; stroke:none;" d="M202 173L203 174L202 173M206 173L207 174L206 173M19 174L20 175L19 174M23 174L24 175L23 174M27 174L29 176L27 174z"/>
<path style="fill:#7fb1bd; stroke:none;" d="M197 174L198 175L197 174M201 174L202 175L201 174z"/>
<path style="fill:#5f7fa3; stroke:none;" d="M205 174L206 175L205 174z"/>
<path style="fill:#b2d2d1; stroke:none;" d="M19 175L20 176L19 175M24 175L25 176L24 175M27 175L28 176L27 175M141 175L141 214L142 214C142 202.828 145.311 185.274 141 175z"/>
<path style="fill:#5f7fa3; stroke:none;" d="M142 175L142 176L164 176L142 175z"/>
<path style="fill:#b2d2d1; stroke:none;" d="M164 175L164 204L165 204L164 175M200 175L201 176L200 175M205 175L206 176L205 175z"/>
<path style="fill:#5f7fa3; stroke:none;" d="M20 176L21 177L20 176M24 176L25 177L24 176z"/>
<path style="fill:#b2d2d1; stroke:none;" d="M28 176L29 177L28 176z"/>
<path style="fill:#434778; stroke:none;" d="M142 176L142 213C147.832 211.996 159.661 209.014 162.972 203.66C166.766 197.525 164 183.117 164 176L142 176z"/>
<path style="fill:#b2d2d1; stroke:none;" d="M196 176L197 177L196 176z"/>
<path style="fill:#5f7fa3; stroke:none;" d="M200 176L201 177L200 176M204 176L205 177L204 176M25 177L26 178L25 177z"/>
<path style="fill:#7fb1bd; stroke:none;" d="M29 177L30 178L29 177z"/>
<path style="fill:#b2d2d1; stroke:none;" d="M195 177L196 178L195 177z"/>
<path style="fill:#5f7fa3; stroke:none;" d="M199 177L200 178L199 177z"/>
<path style="fill:#b2d2d1; stroke:none;" d="M21 178L22 179L21 178z"/>
<path style="fill:#7fb1bd; stroke:none;" d="M26 178L27 179L26 178z"/>
<path style="fill:#5f7fa3; stroke:none;" d="M30 178L31 179L30 178z"/>
<path style="fill:#7fb1bd; stroke:none;" d="M166 178L167 179L166 178M194 178L195 179L194 178M198 178L199 179L198 178z"/>
<path style="fill:#b2d2d1; stroke:none;" d="M203 178L204 179L203 178z"/>
<path style="fill:#7fb1bd; stroke:none;" d="M22 179L23 180L22 179z"/>
<path style="fill:#b2d2d1; stroke:none;" d="M27 179L28 180L27 179z"/>
<path style="fill:#5f7fa3; stroke:none;" d="M31 179L33 181L31 179z"/>
<path style="fill:#7fb1bd; stroke:none;" d="M190 179L190 183L191 183L190 179z"/>
<path style="fill:#b2d2d1; stroke:none;" d="M197 179L198 180L197 179z"/>
<path style="fill:#7fb1bd; stroke:none;" d="M202 179L203 180L202 179z"/>
<path style="fill:#5f7fa3; stroke:none;" d="M23 180L24 181L23 180z"/>
<path style="fill:#b2d2d1; stroke:none;" d="M28 180L29 181L28 180M31 180L32 181L31 180M166 180L166 181L189 181L166 180M196 180L197 181L196 180z"/>
<path style="fill:#5f7fa3; stroke:none;" d="M201 180L202 181L201 180M28 181L29 182L28 181z"/>
<path style="fill:#b2d2d1; stroke:none;" d="M32 181L33 182L32 181z"/>
<path style="fill:#5f7fa3; stroke:none;" d="M166 181L166 203L167 203L166 181z"/>
<path style="fill:#434778; stroke:none;" d="M167 181L167 202C175.047 198.176 187.276 190.61 188 181L167 181z"/>
<path style="fill:#7fb1bd; stroke:none;" d="M188 181L188 186L189 186L188 181z"/>
<path style="fill:#b2d2d1; stroke:none;" d="M192 181L193 182L192 181z"/>
<path style="fill:#5f7fa3; stroke:none;" d="M196 181L197 182L196 181z"/>
<path style="fill:#b2d2d1; stroke:none;" d="M24 182L25 183L24 182z"/>
<path style="fill:#5f7fa3; stroke:none;" d="M29 182L30 183L29 182z"/>
<path style="fill:#7fb1bd; stroke:none;" d="M33 182L34 183L33 182z"/>
<path style="fill:#b2d2d1; stroke:none;" d="M191 182L192 183L191 182z"/>
<path style="fill:#5f7fa3; stroke:none;" d="M195 182L196 183L195 182z"/>
<path style="fill:#b2d2d1; stroke:none;" d="M200 182L201 183L200 182M25 183L26 184L25 183z"/>
<path style="fill:#7fb1bd; stroke:none;" d="M30 183L31 184L30 183z"/>
<path style="fill:#b2d2d1; stroke:none;" d="M34 183L35 184L34 183z"/>
<path style="fill:#7fb1bd; stroke:none;" d="M194 183L195 184L194 183z"/>
<path style="fill:#b2d2d1; stroke:none;" d="M199 183L200 184L199 183z"/>
<path style="fill:#7fb1bd; stroke:none;" d="M26 184L27 185L26 184M31 184L32 185L31 184M35 184L36 185L35 184M193 184L194 185L193 184M198 184L199 185L198 184z"/>
<path style="fill:#5f7fa3; stroke:none;" d="M27 185L28 186L27 185z"/>
<path style="fill:#b2d2d1; stroke:none;" d="M32 185L33 186L32 185z"/>
<path style="fill:#5f7fa3; stroke:none;" d="M36 185L37 186L36 185z"/>
<path style="fill:#b2d2d1; stroke:none;" d="M192 185L193 186L192 185z"/>
<path style="fill:#5f7fa3; stroke:none;" d="M197 185L198 186L197 185M28 186L29 187L28 186z"/>
<path style="fill:#b2d2d1; stroke:none;" d="M33 186L34 187L33 186z"/>
<path style="fill:#7fb1bd; stroke:none;" d="M37 186L38 187L37 186M187 186L188 187L187 186z"/>
<path style="fill:#b2d2d1; stroke:none;" d="M191 186L192 187L191 186z"/>
<path style="fill:#5f7fa3; stroke:none;" d="M196 186L197 187L196 186M29 187L30 188L29 187z"/>
<path style="fill:#b2d2d1; stroke:none;" d="M34 187L35 188L34 187z"/>
<path style="fill:#7fb1bd; stroke:none;" d="M38 187L39 188L38 187M186 187L187 188L186 187z"/>
<path style="fill:#b2d2d1; stroke:none;" d="M190 187L191 188L190 187z"/>
<path style="fill:#5f7fa3; stroke:none;" d="M195 187L196 188L195 187z"/>
<path style="fill:#b2d2d1; stroke:none;" d="M35 188L36 189L35 188z"/>
<path style="fill:#5f7fa3; stroke:none;" d="M39 188L40 189L39 188M185 188L186 189L185 188z"/>
<path style="fill:#b2d2d1; stroke:none;" d="M189 188L190 189L189 188M30 189L32 191L30 189z"/>
<path style="fill:#5f7fa3; stroke:none;" d="M31 189L32 190L31 189z"/>
<path style="fill:#b2d2d1; stroke:none;" d="M36 189L37 190L36 189z"/>
<path style="fill:#7fb1bd; stroke:none;" d="M40 189L41 190L40 189M184 189L185 190L184 189z"/>
<path style="fill:#b2d2d1; stroke:none;" d="M188 189L189 190L188 189z"/>
<path style="fill:#5f7fa3; stroke:none;" d="M193 189L194 190L193 189z"/>
<path style="fill:#b2d2d1; stroke:none;" d="M194 189L195 190L194 189M37 190L38 191L37 190z"/>
<path style="fill:#7fb1bd; stroke:none;" d="M41 190L42 191L41 190z"/>
<path style="fill:#b2d2d1; stroke:none;" d="M183 190L184 191L183 190M187 190L188 191L187 190M193 190L194 191L193 190M32 191L33 192L32 191M38 191L39 192L38 191M42 191L43 192L42 191z"/>
<path style="fill:#7fb1bd; stroke:none;" d="M182 191L183 192L182 191z"/>
<path style="fill:#b2d2d1; stroke:none;" d="M186 191L187 192L186 191M192 191L193 192L192 191M33 192L34 193L33 192M39 192L40 193L39 192z"/>
<path style="fill:#5f7fa3; stroke:none;" d="M180 192L179 194L180 192z"/>
<path style="fill:#b2d2d1; stroke:none;" d="M181 192L182 193L181 192M185 192L186 193L185 192M191 192L192 193L191 192M34 193L36 195L34 193z"/>
<path style="fill:#5f7fa3; stroke:none;" d="M35 193L36 194L35 193z"/>
<path style="fill:#7fb1bd; stroke:none;" d="M40 193L41 194L40 193z"/>
<path style="fill:#5f7fa3; stroke:none;" d="M45 193L46 194L45 193z"/>
<path style="fill:#b2d2d1; stroke:none;" d="M180 193L181 194L180 193z"/>
<path style="fill:#7fb1bd; stroke:none;" d="M184 193L185 194L184 193z"/>
<path style="fill:#5f7fa3; stroke:none;" d="M189 193L190 194L189 193z"/>
<path style="fill:#b2d2d1; stroke:none;" d="M190 193L191 194L190 193z"/>
<path style="fill:#7fb1bd; stroke:none;" d="M41 194L42 195L41 194z"/>
<path style="fill:#5f7fa3; stroke:none;" d="M46 194L47 195L46 194M178 194L179 195L178 194z"/>
<path style="fill:#7fb1bd; stroke:none;" d="M183 194L184 195L183 194z"/>
<path style="fill:#b2d2d1; stroke:none;" d="M189 194L190 195L189 194z"/>
<path style="fill:#5f7fa3; stroke:none;" d="M37 195L38 196L37 195M42 195L43 196L42 195z"/>
<path style="fill:#7fb1bd; stroke:none;" d="M47 195L48 196L47 195M177 195L178 196L177 195z"/>
<path style="fill:#5f7fa3; stroke:none;" d="M182 195L183 196L182 195M187 195L188 196L187 195M38 196L39 197L38 196M43 196L44 197L43 196z"/>
<path style="fill:#b2d2d1; stroke:none;" d="M44 196L45 197L44 196M48 196L50 198L48 196z"/>
<path style="fill:#5f7fa3; stroke:none;" d="M49 196L50 197L49 196M175 196L174 198L175 196z"/>
<path style="fill:#b2d2d1; stroke:none;" d="M176 196L177 197L176 196M180 196L181 197L180 196z"/>
<path style="fill:#5f7fa3; stroke:none;" d="M181 196L182 197L181 196M186 196L187 197L186 196M39 197L40 198L39 197z"/>
<path style="fill:#b2d2d1; stroke:none;" d="M45 197L46 198L45 197z"/>
<path style="fill:#5f7fa3; stroke:none;" d="M50 197L51 198L50 197z"/>
<path style="fill:#b2d2d1; stroke:none;" d="M175 197L176 198L175 197M179 197L180 198L179 197z"/>
<path style="fill:#5f7fa3; stroke:none;" d="M185 197L186 198L185 197z"/>
<path style="fill:#7fb1bd; stroke:none;" d="M40 198L41 199L40 198M46 198L47 199L46 198M51 198L52 199L51 198M173 198L174 199L173 198M178 198L179 199L178 198M184 198L185 199L184 198z"/>
<path style="fill:#b2d2d1; stroke:none;" d="M41 199L42 200L41 199z"/>
<path style="fill:#5f7fa3; stroke:none;" d="M47 199L48 200L47 199z"/>
<path style="fill:#b2d2d1; stroke:none;" d="M52 199L53 200L52 199z"/>
<path style="fill:#5f7fa3; stroke:none;" d="M53 199L54 200L53 199M171 199L172 200L171 199z"/>
<path style="fill:#b2d2d1; stroke:none;" d="M172 199L173 200L172 199z"/>
<path style="fill:#5f7fa3; stroke:none;" d="M177 199L178 200L177 199z"/>
<path style="fill:#b2d2d1; stroke:none;" d="M183 199L184 200L183 199M42 200L43 201L42 200z"/>
<path style="fill:#5f7fa3; stroke:none;" d="M48 200L49 201L48 200z"/>
<path style="fill:#b2d2d1; stroke:none;" d="M49 200L50 201L49 200z"/>
<path style="fill:#5f7fa3; stroke:none;" d="M54 200L55 201L54 200M170 200L171 201L170 200z"/>
<path style="fill:#b2d2d1; stroke:none;" d="M175 200L176 201L175 200z"/>
<path style="fill:#5f7fa3; stroke:none;" d="M176 200L177 201L176 200z"/>
<path style="fill:#b2d2d1; stroke:none;" d="M182 200L183 201L182 200z"/>
<path style="fill:#5f7fa3; stroke:none;" d="M44 201L45 202L44 201M50 201L51 202L50 201z"/>
<path style="fill:#b2d2d1; stroke:none;" d="M55 201L56 202L55 201z"/>
<path style="fill:#5f7fa3; stroke:none;" d="M56 201L57 202L56 201M168 201L169 202L168 201z"/>
<path style="fill:#b2d2d1; stroke:none;" d="M169 201L170 202L169 201z"/>
<path style="fill:#7fb1bd; stroke:none;" d="M174 201L175 202L174 201z"/>
<path style="fill:#5f7fa3; stroke:none;" d="M180 201L181 202L180 201z"/>
<path style="fill:#7fb1bd; stroke:none;" d="M45 202L46 203L45 202z"/>
<path style="fill:#5f7fa3; stroke:none;" d="M51 202L52 203L51 202z"/>
<path style="fill:#b2d2d1; stroke:none;" d="M52 202L53 203L52 202z"/>
<path style="fill:#7fb1bd; stroke:none;" d="M57 202L58 203L57 202M167 202L168 203L167 202z"/>
<path style="fill:#b2d2d1; stroke:none;" d="M172 202L173 203L172 202z"/>
<path style="fill:#5f7fa3; stroke:none;" d="M173 202L174 203L173 202z"/>
<path style="fill:#7fb1bd; stroke:none;" d="M179 202L180 203L179 202z"/>
<path style="fill:#b2d2d1; stroke:none;" d="M46 203L47 204L46 203z"/>
<path style="fill:#7fb1bd; stroke:none;" d="M53 203L54 204L53 203z"/>
<path style="fill:#b2d2d1; stroke:none;" d="M58 203L59 204L58 203z"/>
<path style="fill:#5f7fa3; stroke:none;" d="M59 203L60 204L59 203z"/>
<path style="fill:#7fb1bd; stroke:none;" d="M171 203L172 204L171 203z"/>
<path style="fill:#b2d2d1; stroke:none;" d="M178 203L179 204L178 203z"/>
<path style="fill:#5f7fa3; stroke:none;" d="M48 204L49 205L48 204M54 204L55 205L54 204z"/>
<path style="fill:#b2d2d1; stroke:none;" d="M55 204L56 205L55 204M60 204L61 205L60 204z"/>
<path style="fill:#5f7fa3; stroke:none;" d="M61 204L62 205L61 204M163 204L164 205L163 204z"/>
<path style="fill:#b2d2d1; stroke:none;" d="M169 204L170 205L169 204z"/>
<path style="fill:#5f7fa3; stroke:none;" d="M170 204L171 205L170 204M176 204L177 205L176 204z"/>
<path style="fill:#b2d2d1; stroke:none;" d="M49 205L50 206L49 205z"/>
<path style="fill:#5f7fa3; stroke:none;" d="M50 205L51 206L50 205M56 205L57 206L56 205z"/>
<path style="fill:#b2d2d1; stroke:none;" d="M62 205L63 206L62 205z"/>
<path style="fill:#5f7fa3; stroke:none;" d="M63 205L64 206L63 205M161 205L162 206L161 205z"/>
<path style="fill:#b2d2d1; stroke:none;" d="M162 205L163 206L162 205z"/>
<path style="fill:#5f7fa3; stroke:none;" d="M168 205L169 206L168 205M174 205L175 206L174 205z"/>
<path style="fill:#b2d2d1; stroke:none;" d="M175 205L176 206L175 205z"/>
<path style="fill:#5f7fa3; stroke:none;" d="M51 206L52 207L51 206M57 206L58 207L57 206z"/>
<path style="fill:#7fb1bd; stroke:none;" d="M58 206L59 207L58 206z"/>
<path style="fill:#b2d2d1; stroke:none;" d="M64 206L65 207L64 206M160 206L161 207L160 206z"/>
<path style="fill:#7fb1bd; stroke:none;" d="M166 206L167 207L166 206z"/>
<path style="fill:#5f7fa3; stroke:none;" d="M167 206L168 207L167 206M173 206L174 207L173 206z"/>
<path style="fill:#b2d2d1; stroke:none;" d="M52 207L53 208L52 207z"/>
<path style="fill:#5f7fa3; stroke:none;" d="M53 207L54 208L53 207z"/>
<path style="fill:#b2d2d1; stroke:none;" d="M60 207L61 208L60 207M66 207L67 208L66 207z"/>
<path style="fill:#5f7fa3; stroke:none;" d="M157 207L158 208L157 207z"/>
<path style="fill:#b2d2d1; stroke:none;" d="M158 207L159 208L158 207M164 207L165 208L164 207z"/>
<path style="fill:#5f7fa3; stroke:none;" d="M171 207L172 208L171 207z"/>
<path style="fill:#b2d2d1; stroke:none;" d="M172 207L173 208L172 207z"/>
<path style="fill:#7fb1bd; stroke:none;" d="M54 208L55 209L54 208z"/>
<path style="fill:#5f7fa3; stroke:none;" d="M61 208L62 209L61 208z"/>
<path style="fill:#b2d2d1; stroke:none;" d="M62 208L63 209L62 208z"/>
<path style="fill:#5f7fa3; stroke:none;" d="M69 208L70 209L69 208M155 208L156 209L155 208z"/>
<path style="fill:#b2d2d1; stroke:none;" d="M156 208L157 209L156 208M162 208L163 209L162 208z"/>
<path style="fill:#5f7fa3; stroke:none;" d="M163 208L164 209L163 208z"/>
<path style="fill:#7fb1bd; stroke:none;" d="M170 208L171 209L170 208z"/>
<path style="fill:#b2d2d1; stroke:none;" d="M55 209L56 210L55 209z"/>
<path style="fill:#5f7fa3; stroke:none;" d="M56 209L57 210L56 209M63 209L64 210L63 209z"/>
<path style="fill:#b2d2d1; stroke:none;" d="M64 209L65 210L64 209M70 209L71 210L70 209z"/>
<path style="fill:#5f7fa3; stroke:none;" d="M71 209L72 210L71 209M153 209L154 210L153 209z"/>
<path style="fill:#b2d2d1; stroke:none;" d="M154 209L155 210L154 209M160 209L161 210L160 209z"/>
<path style="fill:#5f7fa3; stroke:none;" d="M161 209L162 210L161 209M168 209L169 210L168 209z"/>
<path style="fill:#b2d2d1; stroke:none;" d="M169 209L170 210L169 209M57 210L58 211L57 210z"/>
<path style="fill:#5f7fa3; stroke:none;" d="M58 210L59 211L58 210M65 210L66 211L65 210z"/>
<path style="fill:#b2d2d1; stroke:none;" d="M66 210L67 211L66 210z"/>
<path style="fill:#7fb1bd; stroke:none;" d="M73 210L74 211L73 210z"/>
<path style="fill:#5f7fa3; stroke:none;" d="M74 210L75 211L74 210M150 210L151 211L150 210z"/>
<path style="fill:#7fb1bd; stroke:none;" d="M151 210L152 211L151 210z"/>
<path style="fill:#b2d2d1; stroke:none;" d="M158 210L159 211L158 210z"/>
<path style="fill:#5f7fa3; stroke:none;" d="M159 210L160 211L159 210M166 210L167 211L166 210z"/>
<path style="fill:#b2d2d1; stroke:none;" d="M167 210L168 211L167 210M59 211L60 212L59 211z"/>
<path style="fill:#5f7fa3; stroke:none;" d="M60 211L61 212L60 211M67 211L68 212L67 211z"/>
<path style="fill:#b2d2d1; stroke:none;" d="M68 211L69 212L68 211M75 211L76 212L75 211z"/>
<path style="fill:#7fb1bd; stroke:none;" d="M76 211L77 212L76 211z"/>
<path style="fill:#5f7fa3; stroke:none;" d="M77 211L78 212L77 211M147 211L148 212L147 211z"/>
<path style="fill:#7fb1bd; stroke:none;" d="M148 211L149 212L148 211z"/>
<path style="fill:#b2d2d1; stroke:none;" d="M149 211L150 212L149 211M156 211L157 212L156 211z"/>
<path style="fill:#5f7fa3; stroke:none;" d="M157 211L158 212L157 211M164 211L165 212L164 211z"/>
<path style="fill:#b2d2d1; stroke:none;" d="M165 211L166 212L165 211z"/>
<path style="fill:#7fb1bd; stroke:none;" d="M61 212L62 213L61 212z"/>
<path style="fill:#5f7fa3; stroke:none;" d="M69 212L70 213L69 212z"/>
<path style="fill:#7fb1bd; stroke:none;" d="M70 212L71 213L70 212z"/>
<path style="fill:#b2d2d1; stroke:none;" d="M71 212L72 213L71 212M78 212L79 213L78 212z"/>
<path style="fill:#5f7fa3; stroke:none;" d="M79 212L80 213L79 212M145 212L146 213L145 212z"/>
<path style="fill:#b2d2d1; stroke:none;" d="M146 212L147 213L146 212z"/>
<path style="fill:#7fb1bd; stroke:none;" d="M154 212L155 213L154 212z"/>
<path style="fill:#5f7fa3; stroke:none;" d="M155 212L156 213L155 212z"/>
<path style="fill:#7fb1bd; stroke:none;" d="M163 212L164 213L163 212M63 213L64 214L63 213z"/>
<path style="fill:#5f7fa3; stroke:none;" d="M64 213L65 214L64 213M72 213L73 214L72 213z"/>
<path style="fill:#b2d2d1; stroke:none;" d="M73 213L74 214L73 213M81 213L82 214L81 213z"/>
<path style="fill:#7fb1bd; stroke:none;" d="M82 213L83 214L82 213z"/>
<path style="fill:#5f7fa3; stroke:none;" d="M83 213L84 214L83 213z"/>
<path style="fill:#7fb1bd; stroke:none;" d="M142 213L143 214L142 213z"/>
<path style="fill:#b2d2d1; stroke:none;" d="M143 213L144 214L143 213M151 213L152 214L151 213z"/>
<path style="fill:#5f7fa3; stroke:none;" d="M152 213L153 214L152 213M160 213L161 214L160 213z"/>
<path style="fill:#7fb1bd; stroke:none;" d="M161 213L162 214L161 213z"/>
<path style="fill:#b2d2d1; stroke:none;" d="M65 214L66 215L65 214z"/>
<path style="fill:#5f7fa3; stroke:none;" d="M66 214L67 215L66 214M74 214L75 215L74 214z"/>
<path style="fill:#7fb1bd; stroke:none;" d="M75 214L76 215L75 214z"/>
<path style="fill:#b2d2d1; stroke:none;" d="M76 214L77 215L76 214M84.6667 214.333L85.3333 214.667L84.6667 214.333z"/>
<path style="fill:#7fb1bd; stroke:none;" d="M86 214L87 215L86 214z"/>
<path style="fill:#5f7fa3; stroke:none;" d="M87 214L88 215L87 214z"/>
<path style="fill:#b2d2d1; stroke:none;" d="M139 214L140 215L139 214M148 214L149 215L148 214z"/>
<path style="fill:#7fb1bd; stroke:none;" d="M149 214L150 215L149 214z"/>
<path style="fill:#5f7fa3; stroke:none;" d="M150 214L151 215L150 214M158 214L159 215L158 214z"/>
<path style="fill:#b2d2d1; stroke:none;" d="M159 214L160 215L159 214M67 215L68 216L67 215z"/>
<path style="fill:#5f7fa3; stroke:none;" d="M68 215L69 216L68 215M77 215L78 216L77 215z"/>
<path style="fill:#7fb1bd; stroke:none;" d="M78 215L79 216L78 215z"/>
<path style="fill:#b2d2d1; stroke:none;" d="M79 215L80 216L79 215M88.6667 215.333L89.3333 215.667L88.6667 215.333z"/>
<path style="fill:#5f7fa3; stroke:none;" d="M90 215L91 216L90 215M133.667 215.333L134.333 215.667L133.667 215.333z"/>
<path style="fill:#b2d2d1; stroke:none;" d="M135.667 215.333L136.333 215.667L135.667 215.333M145 215L146 216L145 215z"/>
<path style="fill:#7fb1bd; stroke:none;" d="M146 215L147 216L146 215z"/>
<path style="fill:#5f7fa3; stroke:none;" d="M147 215L148 216L147 215M156 215L157 216L156 215z"/>
<path style="fill:#b2d2d1; stroke:none;" d="M157 215L158 216L157 215M69 216L70 217L69 216z"/>
<path style="fill:#7fb1bd; stroke:none;" d="M70 216L71 217L70 216z"/>
<path style="fill:#5f7fa3; stroke:none;" d="M71 216L72 217L71 216z"/>
<path style="fill:#7fb1bd; stroke:none;" d="M81 216L82 217L81 216z"/>
<path style="fill:#b2d2d1; stroke:none;" d="M82 216L83 217L82 216M93.6667 216.333L94.3333 216.667L93.6667 216.333z"/>
<path style="fill:#7fb1bd; stroke:none;" d="M95 216L96 217L95 216z"/>
<path style="fill:#5f7fa3; stroke:none;" d="M96 216L96 217L99 217L96 216M126 216L126 217L129 217L126 216z"/>
<path style="fill:#7fb1bd; stroke:none;" d="M129 216L130 217L129 216z"/>
<path style="fill:#b2d2d1; stroke:none;" d="M130.667 216.333L131.333 216.667L130.667 216.333M142 216L143 217L142 216z"/>
<path style="fill:#7fb1bd; stroke:none;" d="M143 216L144 217L143 216z"/>
<path style="fill:#5f7fa3; stroke:none;" d="M153 216L154 217L153 216z"/>
<path style="fill:#7fb1bd; stroke:none;" d="M154 216L155 217L154 216z"/>
<path style="fill:#b2d2d1; stroke:none;" d="M155 216L156 217L155 216M72 217L73 218L72 217z"/>
<path style="fill:#5f7fa3; stroke:none;" d="M73 217L74 218L73 217M84 217L85 218L84 217z"/>
<path style="fill:#7fb1bd; stroke:none;" d="M85 217L86 218L85 217z"/>
<path style="fill:#b2d2d1; stroke:none;" d="M86 217L87 218L86 217M99 217L99 218L102 218L99 217z"/>
<path style="fill:#7fb1bd; stroke:none;" d="M102 217L102 218L105 218L102 217z"/>
<path style="fill:#5f7fa3; stroke:none;" d="M105 217L105 218L115 218L105 217M118.667 217.333L119.333 217.667L118.667 217.333z"/>
<path style="fill:#7fb1bd; stroke:none;" d="M120 217L120 218L123 218L120 217z"/>
<path style="fill:#b2d2d1; stroke:none;" d="M123 217L123 218L126 218L123 217M138 217L139 218L138 217z"/>
<path style="fill:#7fb1bd; stroke:none;" d="M139 217L140 218L139 217z"/>
<path style="fill:#5f7fa3; stroke:none;" d="M140 217L141 218L140 217M151 217L152 218L151 217z"/>
<path style="fill:#b2d2d1; stroke:none;" d="M152 217L153 218L152 217z"/>
<path style="fill:#7fb1bd; stroke:none;" d="M75 218L76 219L75 218z"/>
<path style="fill:#5f7fa3; stroke:none;" d="M76 218L77 219L76 218M87.6667 218.333L88.3333 218.667L87.6667 218.333z"/>
<path style="fill:#7fb1bd; stroke:none;" d="M89 218L90 219L89 218z"/>
<path style="fill:#b2d2d1; stroke:none;" d="M90 218L91 219L90 218M134 218L135 219L134 218z"/>
<path style="fill:#7fb1bd; stroke:none;" d="M135 218L136 219L135 218z"/>
<path style="fill:#5f7fa3; stroke:none;" d="M136.667 218.333L137.333 218.667L136.667 218.333M148 218L149 219L148 218z"/>
<path style="fill:#7fb1bd; stroke:none;" d="M149 218L150 219L149 218M78 219L79 220L78 219z"/>
<path style="fill:#5f7fa3; stroke:none;" d="M79 219L80 220L79 219M93 219L94 220L93 219z"/>
<path style="fill:#7fb1bd; stroke:none;" d="M94.6667 219.333L95.3333 219.667L94.6667 219.333z"/>
<path style="fill:#b2d2d1; stroke:none;" d="M96.6667 219.333L97.3333 219.667L96.6667 219.333M127.667 219.333L128.333 219.667L127.667 219.333z"/>
<path style="fill:#7fb1bd; stroke:none;" d="M129.667 219.333L130.333 219.667L129.667 219.333z"/>
<path style="fill:#5f7fa3; stroke:none;" d="M131 219L132 220L131 219M145 219L146 220L145 219z"/>
<path style="fill:#7fb1bd; stroke:none;" d="M146 219L147 220L146 219z"/>
<path style="fill:#b2d2d1; stroke:none;" d="M80.6667 220.333L81.3333 220.667L80.6667 220.333z"/>
<path style="fill:#7fb1bd; stroke:none;" d="M82 220L83 221L82 220z"/>
<path style="fill:#5f7fa3; stroke:none;" d="M83 220L84 221L83 220M98 220L98 221L101 221L98 220z"/>
<path style="fill:#7fb1bd; stroke:none;" d="M101.667 220.333L102.333 220.667L101.667 220.333z"/>
<path style="fill:#b2d2d1; stroke:none;" d="M103 220L103 221L122 221L103 220z"/>
<path style="fill:#7fb1bd; stroke:none;" d="M122.667 220.333L123.333 220.667L122.667 220.333z"/>
<path style="fill:#5f7fa3; stroke:none;" d="M124 220L124 221L127 221L124 220M141 220L142 221L141 220z"/>
<path style="fill:#7fb1bd; stroke:none;" d="M142 220L143 221L142 220z"/>
<path style="fill:#b2d2d1; stroke:none;" d="M143.667 220.333L144.333 220.667L143.667 220.333M84 221L85 222L84 221z"/>
<path style="fill:#7fb1bd; stroke:none;" d="M85 221L86 222L85 221z"/>
<path style="fill:#5f7fa3; stroke:none;" d="M86 221L87 222L86 221M138 221L139 222L138 221z"/>
<path style="fill:#7fb1bd; stroke:none;" d="M139 221L140 222L139 221z"/>
<path style="fill:#b2d2d1; stroke:none;" d="M140 221L141 222L140 221M89 222L90 223L89 222z"/>
<path style="fill:#7fb1bd; stroke:none;" d="M90 222L91 223L90 222z"/>
<path style="fill:#5f7fa3; stroke:none;" d="M91.6667 222.333L92.3333 222.667L91.6667 222.333M132.667 222.333L133.333 222.667L132.667 222.333z"/>
<path style="fill:#7fb1bd; stroke:none;" d="M134 222L135 223L134 222z"/>
<path style="fill:#b2d2d1; stroke:none;" d="M135 222L136 223L135 222M93 223L93 224L96 224L93 223z"/>
<path style="fill:#7fb1bd; stroke:none;" d="M96 223L97 224L96 223z"/>
<path style="fill:#5f7fa3; stroke:none;" d="M97 223L97 224L100 224L97 223M125 223L125 224L128 224L125 223z"/>
<path style="fill:#7fb1bd; stroke:none;" d="M128 223L129 224L128 223z"/>
<path style="fill:#b2d2d1; stroke:none;" d="M129 223L129 224L132 224L129 223M101 224L101 225L105 225L101 224z"/>
<path style="fill:#7fb1bd; stroke:none;" d="M105.667 224.333L106.333 224.667L105.667 224.333z"/>
<path style="fill:#5f7fa3; stroke:none;" d="M107 224L107 225L118 225L107 224z"/>
<path style="fill:#7fb1bd; stroke:none;" d="M118.667 224.333L119.333 224.667L118.667 224.333z"/>
<path style="fill:#b2d2d1; stroke:none;" d="M120 224L120 225L124 225L120 224z"/>
</svg>
