<?xml version="1.0" standalone="yes"?>
<svg xmlns="http://www.w3.org/2000/svg" width="306" height="165">
<path style="fill:#fefefd; stroke:none;" d="M0 0L0 100L1 100C3.43834 72.0716 33.9715 62.6042 57 71.0548C81.4311 80.0201 95.9707 102.255 95.9707 128C95.9707 136.31 94.9045 149.187 89.3619 155.787C84.1901 161.946 74.3589 162.422 67 163.424C36.3566 167.595 3.60331 144.873 1 113L0 113L0 165L149 165L149 164C138.577 163.914 123.183 161.772 115.015 154.775C99.4365 141.431 100.079 108.453 102.285 90C107.58 45.7301 144.558 1.97919 192 1L174 0L135 0L0 0z"/>
<path style="fill:#f99939; stroke:none;" d="M247 119C237.69 121.451 214.955 157.268 211 131L210 131C204.007 139.502 192.68 146.727 188 133C175.259 137.296 165.775 148.914 156 132C150.636 135.341 144.819 141.697 138 141.471C127.763 141.13 127.334 128.351 128.289 121C130.454 104.346 136.148 84.1319 154 80C157.527 98.9994 145.249 105.165 139.6 121C138.248 124.79 138.125 132.954 143.059 134.208C146.813 135.161 151.435 131.449 153.686 128.826C158.999 122.633 167.605 94.1229 181.768 107.318C191.19 116.096 172.497 124.457 166 126C168.625 134.758 177.401 136.346 183.892 129.891C190.578 123.242 202.595 92.5667 216 109L228 105C226.599 108.255 225.714 111.619 224.659 115C222.771 121.049 217.841 138.906 229.961 129.517C231.274 128.5 232.468 127.245 233.516 125.961C238.132 120.309 232.756 116.688 235.472 111.005C240.288 100.927 246.032 106.599 245 115L260 105C264.857 76.7759 273.442 52.1583 254.957 26C224.352 -17.3087 157.217 -0.68074 126.286 33.0394C115.61 44.6786 108.726 58.746 104.895 74C100.135 92.9526 100.157 113.935 104.211 133C105.804 140.491 108.104 149.525 114.044 154.775C122.224 162.006 136.654 162.938 147 164.282C183.199 168.983 235.417 159.223 247 119z"/>
<path style="fill:#fefefd; stroke:none;" d="M209 0L209 1C251.348 1.87866 273.373 47.8961 265.338 85C262.687 97.2409 258.142 109.084 254.344 121C253.464 123.76 250.576 131.09 255.232 132.168C265.041 134.439 266.321 114.207 269.995 109.144C272.584 105.575 277.121 105.316 281 104L277 117C279.909 114.951 282.317 112.515 285 110.184C286.546 108.841 288.17 107.517 290 106.573C306.772 97.9195 294.439 128.634 294 134C309.841 132.236 306 113.492 306 102L306 0L209 0z"/>
<path style="fill:#3599cd; stroke:none;" d="M36 67.429C-1.06984 72.0341 -8.23398 111.228 10.5201 139C24.8326 160.195 48.8806 166.016 73 162.841C95.6524 159.859 97.4663 138.304 95.1551 119C91.8059 91.0264 66.5374 63.6354 36 67.429z"/>
<path style="fill:#fefefd; stroke:none;" d="M197 72L198 75L199 75L200 72L197 72M203 72L203 91L204 91L206 84L208 84L214 91C211.344 85.3015 209.654 82.7987 213 77L205 82L205 72L203 72M216 72L216 75L218 75L218 72L216 72M222 73L220 77L220 78L220 79L226 91C224.359 86.7172 223.024 82.9287 226 79L226 78L226 77L224 73L222 73M178 89L170 86C171.311 90.3183 180.055 93.5899 180.248 87C180.344 83.7607 174.535 81.8136 173 79L180 81C178.647 76.9238 170.377 75.3197 171.037 80.9506C171.407 84.1084 176.466 86.1386 178 89M195 86C193.126 86.525 190.195 88.4622 188.254 87.6736C182.274 85.2449 188.184 79.2898 194 82C192.28 76.3356 185.089 75.5424 183.449 82.0193C181.24 90.7423 191.037 93.063 195 86M197 77L198 91L199 91L200 77L197 77M216 77L216 91L218 91L218 77L216 77z"/>
<path style="fill:#9d6429; stroke:none;" d="M151 80L152 81L151 80z"/>
<path style="fill:#050403; stroke:none;" d="M157 132C161.105 149.113 179.55 137.772 188 132C191.066 148.876 205.384 136.894 212 130C212.077 138.512 216.682 143.906 225 138.196C233.689 132.232 238.353 122.421 248 118C245.908 123.025 242.194 128.348 242.363 133.999C242.791 148.329 259.346 136.027 264 132L265 141C276.172 139.486 271.695 134.092 275.279 126C277.832 120.235 283.101 115.733 288 112C288.734 120.115 280.803 129.004 283.908 136.941C288.414 148.461 304.903 134.107 306 127L305 127L295 135C293.111 126.285 300.248 119.533 299.598 111.005C299.141 105.006 293.318 104.448 289 107.009C287.148 108.108 285.561 109.573 284.002 111.042C281.608 113.296 279.325 115.675 277 118L280 105C264.67 107.985 270.682 119.875 261.853 128.811C250.078 140.728 254.005 120.756 256.192 115L260 105L244 116C244.403 114.039 245.04 112.009 245.226 110.015C246.085 100.815 228.319 110.518 238 120L238 121C235.836 122.872 233.968 124.957 231.959 127.001C214.834 144.423 225.928 112.256 227 105C224.059 105.566 220.949 107.735 218 107.718C211.709 107.68 208.726 103.476 202 106.84C191.175 112.253 191.243 123.704 182.981 130.66C176.063 136.484 168.916 134.553 166 126C171.907 124.597 180.018 121.778 182.971 115.985C187.835 106.446 175.667 103.391 169 106.573C157.996 111.825 158.816 124.712 149.995 131.606C145.988 134.738 141.08 135.521 138.894 129.981C136.129 122.971 142.383 117.201 146.09 112C152.38 103.178 158.09 90.5777 153 80C135.834 85.8072 131.512 103.116 128.754 120C127.661 126.686 126.499 138.205 135.015 140.566C143.875 143.022 149.858 135.27 157 132z"/>
<path style="fill:#9d6429; stroke:none;" d="M153 80L154 81L153 80M148 81L149 82L148 81M145.667 82.3333L146.333 82.6667L145.667 82.3333M154 82L155 83L154 82M143 83L144 84L143 83M140 85L141 86L140 85M149 85L150 86L149 85z"/>
<path style="fill:#f99939; stroke:none;" d="M150 85L140 114L141 114C145.696 107.386 156.031 93.0025 150 85z"/>
<path style="fill:#9d6429; stroke:none;" d="M139 87L140 88L139 87M147 88L148 89L147 88M138 89L139 90L138 89M137 91L138 92L137 91M146 91L147 92L146 91M151.333 92.6667L151.667 93.3333L151.333 92.6667M136 93L137 94L136 93M145 93L146 94L145 93M154.333 93.6667L154.667 94.3333L154.333 93.6667M135 96L136 97L135 96M144 96L145 97L144 96M150 96L151 97L150 96M153.333 97.6667L153.667 98.3333L153.333 97.6667M134.333 98.6667L134.667 99.3333L134.333 98.6667M143.333 99.6667L143.667 100.333L143.333 99.6667M149 99L150 100L149 99M152 100L153 101L152 100M133 101L134 102L133 101M148 101L149 102L148 101M142 103L143 104L142 103M147 103L148 104L147 103M132 104L133 105L132 104M208 104L208 105L211 105L208 104M225.667 104.333L226.333 104.667L225.667 104.333M242 104L243 105L242 104z"/>
<path style="fill:#f99939; stroke:none;" d="M280 104L281 105L280 104z"/>
<path style="fill:#9d6429; stroke:none;" d="M146 105L147 106L146 105M171 105L172 106L171 105M179.667 105.333L180.333 105.667L179.667 105.333M204 105L205 106L204 105M213 105L214 106L213 105M223 105L224 106L223 105M227 105L228 106L227 105M239 105L240 106L239 105z"/>
<path style="fill:#f99939; stroke:none;" d="M275 105L276 106L275 105z"/>
<path style="fill:#9d6429; stroke:none;" d="M276.667 105.333L277.333 105.667L276.667 105.333M280 105L281 106L280 105M291 105L292 106L291 105M297 105L298 106L297 105M149 106L150 107L149 106M168 106L169 107L168 106M202 106L203 107L202 106M214 106L215 107L214 106M245 106L246 107L245 106M255 106L256 107L255 106z"/>
<path style="fill:#f99939; stroke:none;" d="M259 106L260 107L259 106z"/>
<path style="fill:#9d6429; stroke:none;" d="M271.667 106.333L272.333 106.667L271.667 106.333z"/>
<path style="fill:#f99939; stroke:none;" d="M289 106L290 107L289 106z"/>
<path style="fill:#9d6429; stroke:none;" d="M298 106L299 107L298 106M131.333 107.667L131.667 108.333L131.333 107.667M141.333 107.667L141.667 108.333L141.333 107.667M145 107L146 108L145 107M200 107L201 108L200 107M215 107L216 108L215 107M220 107L221 108L220 107M270 107L271 108L270 107z"/>
<path style="fill:#f99939; stroke:none;" d="M299 107L300 108L299 107z"/>
<path style="fill:#9d6429; stroke:none;" d="M148 108L149 109L148 108M165 108L166 109L165 108M171 108L168 112L171 108z"/>
<path style="fill:#f99939; stroke:none;" d="M166 123C169.424 121.982 181.775 113.246 174.397 109.176C168.177 105.744 166.07 119.725 166 123z"/>
<path style="fill:#9d6429; stroke:none;" d="M183 108L184 109L183 108M207 108L208 109L207 108z"/>
<path style="fill:#f99939; stroke:none;" d="M208.021 108.851C201.984 110.648 198.884 120.445 198.319 125.999C197.959 129.543 199.68 133.613 203.989 132.338C209.961 130.57 212.727 121.477 212.959 116.001C213.098 112.721 212.794 107.43 208.021 108.851z"/>
<path style="fill:#9d6429; stroke:none;" d="M211 108L212 109L211 108M218 108L219 109L218 108M226 108L227 109L226 108M236 108L237 109L236 108M258 108L259 109L258 108M279 108L280 109L279 108z"/>
<path style="fill:#f99939; stroke:none;" d="M286 108L287 109L286 108z"/>
<path style="fill:#9d6429; stroke:none;" d="M299 108L300 109L299 108M164 109L165 110L164 109M245 109L245 112L246 112L245 109M253 109L254 110L253 109M269 109L270 110L269 109z"/>
<path style="fill:#f99939; stroke:none;" d="M285 109L286 110L285 109z"/>
<path style="fill:#9d6429; stroke:none;" d="M130.333 110.667L130.667 111.333L130.333 110.667M143 110L144 111L143 110M163 110L164 111L163 110M176 110L176 114L177 114L176 110M184 110L184 114L185 114L184 110M196 110L197 111L196 110M213 110L213 117L214 117L213 110M235 110L236 111L235 110M252 110L253 111L252 110M284 110L285 111L284 110M140.333 111.667L140.667 112.333L140.333 111.667M142 111L143 112L142 111M146 111L147 112L146 111M162 111L163 112L162 111M195 111L196 112L195 111M225.333 111.667L225.667 112.333L225.333 111.667M251 111L252 112L251 111M257 111L258 112L257 111z"/>
<path style="fill:#f99939; stroke:none;" d="M268 111L269 112L268 111z"/>
<path style="fill:#9d6429; stroke:none;" d="M278 111L279 112L278 111M283 111L284 112L283 111M145 112L146 113L145 112M194 112L195 113L194 112M203 112L204 113L203 112M234 112L234 117L235 117L234 112M250 112L251 113L250 112M268 112L269 113L268 112M282 112L283 113L282 112M287 112L288 113L287 112M167 113L168 114L167 113M193 113L194 114L193 113M244 113L246 116L244 113M249 113L250 114L249 113M281 113L282 114L281 113M285 113L286 114L285 113z"/>
<path style="fill:#fefefd; stroke:none;" d="M274 140L265 142L264 132C257.22 136.635 244.369 148.341 242 133C221.147 148.346 204.945 163.769 177 164L177 165L306 165L306 132C303.265 133.868 300.777 136.083 298 137.893C296.445 138.906 294.768 139.886 293 140.477C276.182 146.098 287.732 118.855 288 113C276.463 118.38 274.001 128.383 274 140z"/>
<path style="fill:#f99939; stroke:none;" d="M288.333 113.667L288.667 114.333L288.333 113.667z"/>
<path style="fill:#9d6429; stroke:none;" d="M299 113L300 114L299 113M129.333 114.667L129.667 115.333L129.333 114.667M224.333 114.667L224.667 115.333L224.333 114.667M247 114L248 115L247 114z"/>
<path style="fill:#f99939; stroke:none;" d="M256 114L257 115L256 114z"/>
<path style="fill:#9d6429; stroke:none;" d="M267 114L268 115L267 114M277 114L278 115L277 114M280 114L281 115L280 114z"/>
<path style="fill:#f99939; stroke:none;" d="M284 114L285 115L284 114M299 114L300 115L299 114z"/>
<path style="fill:#9d6429; stroke:none;" d="M143 115L144 116L143 115M159 115L160 116L159 115M166.333 115.667L166.667 116.333L166.333 115.667M201 115L202 116L201 115z"/>
<path style="fill:#f99939; stroke:none;" d="M277 115L278 116L277 115z"/>
<path style="fill:#9d6429; stroke:none;" d="M279 115L280 116L279 115z"/>
<path style="fill:#f99939; stroke:none;" d="M283 115L284 116L283 115z"/>
<path style="fill:#9d6429; stroke:none;" d="M288 115L289 116L288 115M142 116L143 117L142 116M175 116L176 117L175 116M191 116L192 117L191 116M255 116L256 117L255 116z"/>
<path style="fill:#f99939; stroke:none;" d="M278 116L279 117L278 116M282 116L283 117L282 116z"/>
<path style="fill:#9d6429; stroke:none;" d="M158 117L159 118L158 117M182 117L183 118L182 117M200 117L201 118L200 117z"/>
<path style="fill:#f99939; stroke:none;" d="M255 117L256 118L255 117z"/>
<path style="fill:#9d6429; stroke:none;" d="M266 117L267 118L266 117z"/>
<path style="fill:#f99939; stroke:none;" d="M277 117L278 118L277 117M281 117L282 118L281 117z"/>
<path style="fill:#9d6429; stroke:none;" d="M298 117L299 118L298 117M174 118L175 119L174 118M181 118L182 119L181 118M223 118L224 119L223 118M235 118L236 119L235 118M247.333 118.667L247.667 119.333L247.333 118.667z"/>
<path style="fill:#f99939; stroke:none;" d="M280 118L281 119L280 118z"/>
<path style="fill:#9d6429; stroke:none;" d="M287 118L288 119L287 118M128 119L128 122L129 122L128 119M157 119L158 120L157 119M173 119L174 120L173 119M180 119L181 120L180 119M189 119L190 120L189 119M244 119L245 120L244 119M254 119L255 120L254 119M279 119L280 120L279 119M165 120L165 123L166 123L165 120M199 120L200 121L199 120M212 120L213 121L212 120M237 120L238 121L237 120M241 120L242 121L241 120z"/>
<path style="fill:#f99939; stroke:none;" d="M254 120L255 121L254 120M265 120L266 121L265 120z"/>
<path style="fill:#9d6429; stroke:none;" d="M278 120L279 121L278 120M297 120L298 121L297 120M170 121L171 122L170 121M177 121L178 122L177 121M222.333 121.667L222.667 122.333L222.333 121.667M246 121L247 122L246 121M265 121L266 122L265 121M286 121L287 122L286 121M138 122L138 130L139 130L138 122M156.333 122.667L156.667 123.333L156.333 122.667M168 122L169 123L168 122M175 122L176 123L175 122M188 122L189 123L188 122M253 122L254 123L253 122M173 123L174 124L173 123M198.333 123.667L198.667 124.333L198.333 123.667M211 123L212 124L211 123M235 123L236 124L235 123M239 123L240 124L239 123M245 123L246 124L245 123z"/>
<path style="fill:#f99939; stroke:none;" d="M253 123L254 124L253 123M285 123L286 124L285 123M296 123L297 124L296 123z"/>
<path style="fill:#9d6429; stroke:none;" d="M171 124L172 125L171 124M234 124L235 125L234 124M275 124L276 125L275 124M168 125L169 126L168 125M187.333 125.667L187.667 126.333L187.333 125.667M210 125L211 126L210 125M221 125L221 128L222 128L221 125M244 125L245 126L244 125M252.333 125.667L252.667 126.333L252.333 125.667z"/>
<path style="fill:#f99939; stroke:none;" d="M264 125L265 126L264 125z"/>
<path style="fill:#9d6429; stroke:none;" d="M295 125L296 126L295 125M264 126L265 127L264 126z"/>
<path style="fill:#f99939; stroke:none;" d="M284 126L285 127L284 126z"/>
<path style="fill:#9d6429; stroke:none;" d="M186 127L187 128L186 127M209 127L210 128L209 127M236 127L237 128L236 127M243 127L244 128L243 127z"/>
<path style="fill:#f99939; stroke:none;" d="M252 127L253 128L252 127z"/>
<path style="fill:#9d6429; stroke:none;" d="M263 127L264 128L263 127M274.333 127.667L274.667 128.333L274.333 127.667M284 127L285 128L284 127M166 128L167 129L166 128M185 128L186 129L185 128M235 128L236 129L235 128M262 128L263 129L262 128M294 128L295 129L294 128M184 129L185 130L184 129M234 129L235 130L234 129M261 129L262 130L261 129z"/>
<path style="fill:#f99939; stroke:none;" d="M274 129L275 130L274 129M283 129L284 130L283 129M294 129L295 130L294 129z"/>
<path style="fill:#9d6429; stroke:none;" d="M303 129L304 130L303 129M167 130L168 131L167 130M183 130L184 131L183 130M207 130L208 131L207 130M211 130L211 135L212 135L211 130M228 130L229 131L228 130M233 130L234 131L233 130M242.333 130.667L242.667 131.333L242.333 130.667z"/>
<path style="fill:#f99939; stroke:none;" d="M252 130L253 131L252 130z"/>
<path style="fill:#9d6429; stroke:none;" d="M260 130L261 131L260 130M283.333 130.667L283.667 131.333L283.333 130.667M302 130L303 131L302 130M150 131L151 132L150 131M182 131L183 132L182 131M198 131L199 132L198 131M206 131L207 132L206 131M227 131L228 132L227 131M232 131L233 132L232 131M252 131L253 132L252 131M301 131L302 132L301 131M305 131L306 132L305 131M139 132L140 133L139 132M149 132L150 133L149 132M154 132L155 133L154 132M156 132L157 133L156 132M186.667 132.333L187.333 132.667L186.667 132.333M199 132L200 133L199 132M205 132L206 133L205 132M209 132L210 133L209 132M221 132L222 133L221 132M226 132L227 133L226 132M231 132L232 133L231 132z"/>
<path style="fill:#f99939; stroke:none;" d="M253 132L254 133L253 132M257 132L258 133L257 132z"/>
<path style="fill:#9d6429; stroke:none;" d="M304 132L305 133L304 132M128.333 133.667L128.667 134.333L128.333 133.667M140 133L141 134L140 133M153 133L154 134L153 133M170 133L171 134L170 133M179 133L180 134L179 133M185 133L186 134L185 133M200 133L200 134L204 134L200 133M208 133L209 134L208 133M223.667 133.333L224.333 133.667L223.667 133.333M230 133L231 134L230 133z"/>
<path style="fill:#f99939; stroke:none;" d="M298 133L299 134L298 133z"/>
<path style="fill:#9d6429; stroke:none;" d="M303 133L304 134L303 133M141 134L142 135L141 134M145 134L146 135L145 134M152 134L153 135L152 134M172 134L172 135L177 135L172 134M207 134L208 135L207 134M229 134L230 135L229 134z"/>
<path style="fill:#f99939; stroke:none;" d="M295.667 134.333L296.333 134.667L295.667 134.333z"/>
<path style="fill:#9d6429; stroke:none;" d="M302 134L303 135L302 134M157 135L158 136L157 135M188 135L189 136L188 135M228 135L229 136L228 135M259 135L260 136L259 135M301 135L302 136L301 135M129 136L130 137L129 136M158 136L159 137L158 136M242 136L243 137L242 136M258 136L259 137L258 136M264 136L264 141L265 141L264 136M283 136L284 137L283 136z"/>
<path style="fill:#f99939; stroke:none;" d="M300 136L301 137L300 136z"/>
<path style="fill:#9d6429; stroke:none;" d="M148 137L149 138L148 137M180 137L181 138L180 137M189 137L190 138L189 137M212 137L213 138L212 137z"/>
<path style="fill:#f99939; stroke:none;" d="M242 137L243 138L242 137M283 137L284 138L283 137z"/>
<path style="fill:#9d6429; stroke:none;" d="M203 138L204 139L203 138M224 138L225 139L224 138M255 138L256 139L255 138M297 138L298 139L297 138M145 139L146 140L145 139M161 139L162 140L161 139M177 139L178 140L177 139M202 139L203 140L202 139M213 139L214 140L213 139M223 139L224 140L223 139z"/>
<path style="fill:#f99939; stroke:none;" d="M254 139L255 140L254 139z"/>
<path style="fill:#9d6429; stroke:none;" d="M272 139L273 140L272 139z"/>
<path style="fill:#f99939; stroke:none;" d="M273 139L274 140L273 139z"/>
<path style="fill:#9d6429; stroke:none;" d="M295 139L296 140L295 139M133 140L134 141L133 140M142.667 140.333L143.333 140.667L142.667 140.333M163 140L164 141L163 140M174.667 140.333L175.333 140.667L174.667 140.333M192 140L193 141L192 140M200 140L201 141L200 140M214 140L215 141L214 140M221 140L222 141L221 140z"/>
<path style="fill:#f99939; stroke:none;" d="M252 140L253 141L252 140z"/>
<path style="fill:#9d6429; stroke:none;" d="M268 140L269 141L268 140z"/>
<path style="fill:#f99939; stroke:none;" d="M269 140L270 141L269 140z"/>
<path style="fill:#9d6429; stroke:none;" d="M293 140L294 141L293 140M135 141L135 142L140 142L135 141M166 141L166 142L172 142L166 141M194 141L194 142L198 142L194 141M216 141L216 142L220 142L216 141z"/>
<path style="fill:#f99939; stroke:none;" d="M246 141L247 142L246 141z"/>
<path style="fill:#9d6429; stroke:none;" d="M247.667 141.333L248.333 141.667L247.667 141.333z"/>
<path style="fill:#f99939; stroke:none;" d="M249 141L250 142L249 141M265 141L266 142L265 141M288 141L289 142L288 141z"/>
<path style="fill:#9d6429; stroke:none;" d="M289 141L290 142L289 141z"/>
<path style="fill:#f99939; stroke:none;" d="M290 141L291 142L290 141z"/>
</svg>
